<?xml version="1.0" encoding="UTF-8"?>
<svg id="Layer_1" xmlns="http://www.w3.org/2000/svg" viewBox="0 0 1200 300">
  <defs>
    <style>
      .cls-1 {
        fill: #fff;
      }
    </style>
  </defs>
  <path class="cls-1" d="M286.73,76.68c-4.95-12.56-17.51-16.63-30.6-16.63-57.31,0-115.87,65.1-115.87,119.58,0,12.74,5.84,22.11,19.99,22.11,42.1,0,98.71-58.02,98.71-96.23,0-14.86-6.54-22.29-19.81-22.29-28.13,0-54.84,25.47-54.84,45.29,0,11.14,6.9,16.27,16.98,16.27,16.45,0,32.19-14.33,38.74-31.84l1.95.71c-6.54,17.69-23.7,33.26-41.04,33.26-11.5,0-19.63-5.48-19.63-18.57,0-19.81,29.01-46.88,58.55-46.88,16.45,0,26.53,7.78,26.53,24.06,0,39.62-61.56,98.18-107.38,98.18-17.69,0-28.66-8.84-28.66-25.47,0-50.24,64.57-119.93,125.42-119.93,14.5,0,27.77,4.6,32.9,17.69l-1.95.71Z"/>
  <path class="cls-1" d="M296.99,171.67c-4.78,5.48-9.91,12.21-14.68,17.69-7.25,8.49-12.56,14.33-19.81,14.33-4.25,0-7.25-3.54-7.25-8.67,0-3.71,1.42-7.43,4.07-10.97l15.74-21.94c5.31-7.43,9.02-12.03,9.02-16.45,0-3.01-.88-4.25-4.95-4.6-1.06,0-1.95-.18-2.65-.35-6.54,8.49-15.57,20.17-24.41,30.96h-2.12c9.73-11.85,17.16-21.58,24.41-31.66-1.77-.88-2.83-2.3-2.83-4.78,0-5.13,3.36-12.38,8.67-12.38,2.12,0,3.18,1.24,3.18,2.65,0,5.31-9.73,5.13-9.73,10.44,0,2.65,1.95,3.01,5.48,3.36,6.55.53,9.91,2.83,9.91,9.2,0,4.6-2.48,9.2-7.25,15.92l-14.68,20.17c-4.6,6.01-6.72,9.91-6.72,12.91,0,2.48,1.24,4.07,3.71,4.07,4.78,0,10.26-5.13,17.16-13.44l13.62-16.45h2.12Z"/>
  <path class="cls-1" d="M290.97,192.37c0-4.25,1.42-8.49,4.07-13.62,3.36-6.19,8.67-13.8,14.51-19.81h-.18c-4.95,4.42-9.02,8.84-12.38,12.74h-2.12c6.19-7.61,15.74-16.8,24.94-23.53,9.2-6.72,15.57-8.84,20.17-8.84,6.19,0,8.84,4.78,6.9,11.5h.18l54.84-81.55h8.14l-77.66,114.98c-4.42,6.37-6.72,10.26-6.72,13.27,0,2.48,1.24,4.07,3.71,4.07,4.78,0,10.08-5.13,16.98-13.44,4.42-5.31,9.55-11.5,13.8-16.45h2.12c-4.78,5.48-10.08,12.21-14.68,17.69-7.25,8.49-12.56,14.33-19.81,14.33-4.6,0-6.9-3.36-6.9-8.84,0-2.3.71-4.78,2.48-7.61h-.18c-2.83,3.18-6.72,7.61-10.08,10.61-4.42,3.89-8.31,5.84-12.03,5.84-5.84,0-10.08-4.25-10.08-11.32ZM311.84,196.61c6.01-5.48,14.33-15.21,20.52-24.41l7.96-11.67c5.66-8.31,8.49-19.1,0-19.1-6.72,0-13.62,6.72-19.28,13.27-8.31,9.73-13.8,17.16-19.28,26.54-1.77,3.01-4.78,8.31-5.48,11.5-1.42,5.48,1.42,8.67,5.48,8.67,3.54,0,6.54-1.59,10.08-4.78Z"/>
  <path class="cls-1" d="M414.62,171.67c-15.21,18.57-28.48,32.02-44.4,32.02-7.08,0-13.97-3.71-13.97-11.67,0-3.89,1.59-8.31,4.07-13.27,3.36-6.19,8.67-13.8,14.51-19.81h-.18c-4.95,4.42-9.02,8.84-12.38,12.74h-2.12c6.19-7.61,15.74-16.8,24.94-23.53,9.2-6.72,15.21-8.84,19.64-8.84,6.9,0,9.02,6.9,4.78,15.39-7.08,13.62-23.7,20.87-38.74,20.87h-.35c-1.06,1.77-2.3,3.71-3.36,5.66-2.3,3.89-4.78,8.84-4.78,12.74,0,4.78,3.54,7.43,9.38,7.43,13.97,0,27.77-13.8,40.86-29.72h2.12ZM371.63,173.79c13.8-.18,25.12-5.31,33.79-20.7,4.6-7.78,3.18-12.03-.71-12.03-5.13,0-10.97,5.13-18.4,13.62-6.01,7.08-10.61,12.91-14.68,19.11Z"/>
  <path class="cls-1" d="M459.55,171.67c-4.78,5.48-9.91,12.21-14.68,17.69-7.25,8.49-12.56,14.33-19.81,14.33-4.25,0-7.25-3.54-7.25-8.67,0-3.71,1.42-7.43,4.07-10.97l15.74-21.94c5.31-7.43,9.02-12.03,9.02-16.45,0-3.01-.88-4.25-4.95-4.6-1.06,0-1.95-.18-2.65-.35-6.54,8.49-15.57,20.17-24.41,30.96h-2.12c9.73-11.85,17.16-21.58,24.41-31.66-1.77-.88-2.83-2.3-2.83-4.78,0-5.13,3.36-12.38,8.67-12.38,2.12,0,3.18,1.24,3.18,2.65,0,5.31-9.73,5.13-9.73,10.44,0,2.65,1.95,3.01,5.48,3.36,6.55.53,9.91,2.83,9.91,9.2,0,4.6-2.48,9.2-7.25,15.92l-14.68,20.17c-4.6,6.01-6.72,9.91-6.72,12.91,0,2.48,1.24,4.07,3.71,4.07,4.78,0,10.26-5.13,17.16-13.44l13.62-16.45h2.12Z"/>
  <path class="cls-1" d="M573.82,171.67c-9.55,11.67-16.8,16.27-26,16.27-1.06,0-1.95,0-2.83-.18-.71.53-1.24,1.24-1.95,1.95-7.43,7.08-16.63,13.97-26.71,13.97-6.54,0-10.79-4.25-10.79-11.32,0-4.25,1.59-8.67,4.07-13.62,3.36-6.19,8.67-13.8,14.51-19.81h-.18c-4.95,4.42-9.02,8.84-12.38,12.74h-2.12c6.19-7.43,15.74-16.8,24.94-23.53,9.2-6.72,16.1-8.84,21.76-8.84,6.55,0,10.79,4.25,10.79,11.32,0,4.25-1.59,8.67-4.07,13.62-3.89,7.25-8.67,13.8-16.45,22.11h1.42c8.67,0,15.57-4.78,23.88-14.68h2.12ZM539.32,185.11c-3.18-2.83-4.6-7.61-4.6-12.91,0-10.97,6.9-23.17,12.74-28.13h-.18c-3.89,2.48-7.43,6.19-11.68,10.61-8.31,9.73-13.97,17.16-19.28,26.54-2.48,4.42-5.66,10.08-5.66,15.04,0,3.89,1.95,5.66,5.13,5.66,7.08,0,14.33-6.37,20.88-13.8.88-1.06,1.77-2.12,2.65-3.01ZM536.67,172.2c0,5.13,1.24,9.2,3.89,11.68,6.54-7.78,11.14-14.15,15.57-22.11,2.48-4.42,5.66-10.08,5.66-15.21,0-3.71-1.95-5.48-5.13-5.48-9.2,0-19.99,17.87-19.99,31.13Z"/>
  <path class="cls-1" d="M665.98,84.64c-9.73,17.16-33.26,35.2-54.66,50.24l-21.05,31.13c-7.25,10.79-6.72,20.34,3.36,20.34,8.49,0,15.21-4.78,23.35-14.68h2.12c-9.55,11.67-16.63,16.27-25.47,16.27-7.79,0-11.68-5.31-9.55-12.91h-.18l-47.58,71.11h-8.49l67.04-98.88h-.18c-6.19,6.72-13.62,15.74-20.87,24.41h-2.12c15.39-18.75,29.37-33.61,36.97-45.11l19.28-28.48c4.07-6.01,11.5-15.92,19.28-22.29,6.02-4.95,12.38-8.31,17.34-8.31,5.84,0,7.43,6.54,1.42,17.16ZM664.74,69.07c-3.71,0-9.02,4.6-15.21,11.5-5.48,6.19-10.08,12.56-13.45,17.51l-22.29,33.08c19.28-13.8,39.62-31.13,49-47.94,3.36-6.19,6.54-14.15,1.95-14.15Z"/>
  <path class="cls-1" d="M730.55,125.32c1.95,5.13,7.61,7.08,17.87,7.08h4.95l-.18,2.3h-4.42c-45.29,0-58.73,35.91-58.73,50.06,0,11.5,5.84,16.98,18.04,16.98,29.9,0,63.15-26.71,63.15-49,0-6.72-4.25-10.79-11.14-10.79-16.8,0-29.89,15.92-36.44,31.49l-1.95-.53c6.72-15.92,20.7-32.9,38.74-32.9,7.96,0,14.15,4.42,14.15,12.91,0,22.47-35.38,50.77-66.69,50.77-18.75,0-27.6-6.9-27.6-20.52,0-21.23,23.7-44.93,58.02-49.71v-.35c-6.19-1.06-11.14-3.01-13.97-6.54-3.71.71-7.25,1.06-10.08,1.06-15.04,0-25.29-5.48-25.29-17.87,0-18.93,22.82-44.93,60.32-55.9l.53,1.77c-36.44,10.79-57.49,36.44-57.49,53.95,0,11.5,8.84,15.92,22.11,15.92,2.48,0,5.48-.35,8.67-.71-.88-1.77-1.42-3.71-1.42-6.01,0-21.23,35.2-51.3,62.09-51.3,9.02,0,13.97,4.07,13.97,10.97,0,21.23-39.8,40.51-67.22,46.88ZM794.23,78.27c0-4.95-3.01-8.84-10.79-8.84-23.7,0-53.6,29.89-53.6,51.48,0,.88,0,1.59.18,2.48,26.18-6.19,64.21-24.77,64.21-45.11Z"/>
  <path class="cls-1" d="M859.5,171.67c-8.67,10.61-15.74,16.27-23.53,16.27-1.24,0-2.3-.18-3.19-.53-7.61,7.96-17.69,16.27-27.6,16.27-5.48,0-9.73-3.18-9.73-10.08,0-4.95,2.65-9.91,6.19-15.04l14.68-20.17c4.42-6.01,6.72-9.91,6.72-13.09,0-2.3-1.24-3.89-3.71-3.89-4.78,0-10.44,5.13-17.16,13.27-4.42,5.48-9.38,11.68-13.97,16.98h-2.12c4.95-5.84,10.26-12.56,14.86-18.04,7.43-8.49,12.74-14.33,19.81-14.33,4.42,0,7.25,3.54,7.25,8.67,0,3.71-1.24,7.43-3.89,10.97l-15.92,22.29c-4.78,6.72-7.78,10.97-7.78,15.39,0,2.65,1.95,4.95,6.01,4.95,8.14,0,17.87-7.43,24.77-14.86-3.36-1.95-4.95-6.19-4.95-10.79,0-13.8,14.15-36.62,23.71-36.62,4.42,0,6.01,3.01,6.01,6.9,0,9.91-9.2,24.41-19.1,36.62-.88,1.06-1.77,2.12-2.83,3.18.53.18,1.24.35,2.12.35,7.08,0,13.62-5.66,21.23-14.68h2.12ZM832.43,185.29c1.06-1.24,2.12-2.3,3.01-3.54,10.79-13.09,18.4-25.65,18.4-35.38,0-3.54-1.24-5.31-4.07-5.31-6.9,0-19.99,23.53-19.99,36.97,0,3.36.71,6.01,2.65,7.25Z"/>
  <path class="cls-1" d="M911.86,171.67c-15.21,18.57-28.48,32.02-44.4,32.02-7.08,0-13.97-3.71-13.97-11.67,0-3.89,1.59-8.31,4.07-13.27,3.36-6.19,8.67-13.8,14.51-19.81h-.18c-4.95,4.42-9.02,8.84-12.38,12.74h-2.12c6.19-7.61,15.74-16.8,24.94-23.53,9.2-6.72,15.21-8.84,19.63-8.84,6.9,0,9.02,6.9,4.78,15.39-7.07,13.62-23.7,20.87-38.74,20.87h-.36c-1.06,1.77-2.3,3.71-3.36,5.66-2.3,3.89-4.78,8.84-4.78,12.74,0,4.78,3.54,7.43,9.38,7.43,13.97,0,27.77-13.8,40.86-29.72h2.12ZM868.87,173.79c13.8-.18,25.12-5.31,33.79-20.7,4.6-7.78,3.19-12.03-.71-12.03-5.13,0-10.97,5.13-18.4,13.62-6.02,7.08-10.61,12.91-14.68,19.11Z"/>
  <path class="cls-1" d="M967.93,162.12c3.36-4.78,6.9-9.55,7.96-13.62,1.24-4.6-1.06-7.08-5.13-7.08-3.54,0-6.54,1.59-10.26,4.95-4.07,3.89-14.68,15.74-19.99,23.7l-21.58,31.84h-8.14l29.01-43.16c4.25-6.55,6.9-10.79,6.9-14.33,0-1.95-.88-3.36-3.36-3.36-4.95,0-10.79,5.66-17.69,13.97-4.25,5.31-9.55,11.5-13.8,16.63h-2.12c4.78-5.66,10.08-12.38,14.68-17.69,6.72-8.31,13.09-14.68,19.81-14.68,5.13,0,6.9,3.54,6.9,8.49,0,2.83-.71,5.48-2.65,8.84h.18c3.01-3.54,7.43-8.67,10.79-11.5,4.24-4.07,8.14-5.84,12.74-5.84s8.84,3.01,8.84,10.08c0,4.95-2.65,9.91-6.37,15.04l-14.51,20.17c-4.6,6.01-6.72,9.91-6.72,12.91,0,2.48,1.24,4.07,3.71,4.07,4.78,0,10.26-5.13,17.16-13.44,4.42-5.31,9.38-11.32,13.44-16.45h2.12c-4.6,5.48-9.73,12.21-14.51,17.69-7.25,8.49-12.74,14.33-19.81,14.33-4.42,0-7.25-3.54-7.25-8.67,0-3.71,1.41-7.43,4.07-10.97l15.57-21.94Z"/>
  <path class="cls-1" d="M1010.92,147.26h-.18c-6.19,6.72-13.62,15.74-20.88,24.41h-2.12c15.39-18.75,23.35-27.07,30.78-36.79h-15.21l1.24-2.12h15.74c1.59-2.12,3.54-4.6,4.6-6.37l8.31-12.38h8.14l-12.74,18.75h20.7l-1.42,2.12h-20.7l-30.78,45.82c-3.54,5.13-6.19,9.73-6.19,14.15,0,3.54,1.95,6.72,6.19,6.72,6.19,0,12.74-4.6,19.81-13.27,4.6-5.31,9.55-11.5,13.8-16.63h2.12c-4.78,5.84-10.08,12.21-14.51,17.69-6.37,7.78-13.62,14.33-22.82,14.33-6.54,0-10.61-4.07-10.61-11.14,0-5.31,2.48-9.55,5.66-14.33l21.05-30.96Z"/>
  <path class="cls-1" d="M1012.16,194.31c0-7.08,3.89-12.21,8.31-12.21,2.12,0,3.18,1.24,3.18,2.65,0,5.66-9.2,4.25-9.2,11.5,0,3.18,2.48,5.48,6.72,5.48,5.31,0,12.91-4.25,22.11-15.92,11.67-14.5,13.27-26.36,13.27-36.26,0-2.3-.18-5.31-.35-8.14-6.54,8.84-15.57,19.81-24.06,30.25h-2.12c9.2-11.14,18.57-22.47,25.83-32.55-.18-1.95-.18-3.71-.18-5.48,0-7.78,3.01-13.09,6.9-13.09,2.12,0,3.18,1.24,3.18,3.36,0,4.07-3.36,8.49-8.31,15.57,1.77,15.21,3.19,35.2-6.9,48.29h.35c4.6-3.71,11.14-9.73,16.63-16.1h2.12c-4.95,5.84-10.62,11.67-16.98,16.8-8.85,7.61-20.52,15.21-30.78,15.21-6.54,0-9.73-4.25-9.73-9.38Z"/>
</svg>