<?xml version="1.0" encoding="UTF-8"?>
<svg id="Layer_1" xmlns="http://www.w3.org/2000/svg" viewBox="0 0 1200 453.67">
  <defs>
    <style>
      .cls-1 {
        fill: #4c531f;
      }
    </style>
  </defs>
  <g>
    <path class="cls-1" d="M430.54,183.83c0-7.08,3.71-12.74,8.31-12.74,2.12,0,3.18,1.24,3.18,2.65,0,5.48-9.02,4.95-9.02,11.32,0,10.08,6.37,16.98,19.99,16.98,29.54,0,53.07-36.26,72-66.69,17.33-27.77,27.95-41.57,45.99-54.48l1.06,1.59c-11.67,8.67-18.22,19.99-37.5,53.6-19.28,33.79-48.82,67.93-81.55,67.93-14.5,0-22.46-7.96-22.46-20.17ZM549.23,192.86c0-4.6,1.95-9.91,7.78-19.11,4.6-7.43,8.31-13.27,8.31-21.23,0-11.32-9.73-17.16-24.41-17.33v-2.3c29.19,1.59,45.46-12.74,45.46-32.9,0-17.51-11.68-30.25-43.52-30.25-46.88,0-85.09,29.54-85.09,57.49,0,9.91,5.13,17.16,17.16,17.16,27.6,0,44.22-26.53,46.88-47.58h1.95c-3.01,22.47-19.81,49.53-49.53,49.53-12.56,0-22.11-5.48-22.11-19.46,0-28.3,42.63-59.08,90.75-59.08,33.26,0,52.36,12.74,52.36,32.9s-21.76,32.9-45.82,33.79v.18c13.09,1.77,23,10.61,23,22.82,0,6.37-3.54,12.74-6.72,18.04-3.89,6.37-8.84,13.27-8.84,19.99,0,4.25,2.48,6.37,5.84,6.37,6.9,0,12.91-6.01,17.33-11.32,4.07-4.42,12.03-14.33,15.57-18.57h2.12c-4.07,4.95-12.21,15.04-16.1,19.64-4.42,5.31-11.5,12.38-19.99,12.38-6.01,0-12.38-3.54-12.38-11.14Z"/>
    <path class="cls-1" d="M577.71,194.63c0-7.08,3.89-12.21,8.31-12.21,2.12,0,3.18,1.24,3.18,2.65,0,5.66-9.2,4.25-9.2,11.5,0,3.18,2.48,5.48,6.72,5.48,5.31,0,12.91-4.25,22.11-15.92,11.67-14.5,13.27-26.36,13.27-36.26,0-2.3-.18-5.31-.35-8.14-6.54,8.84-15.57,19.81-24.06,30.25h-2.12c9.2-11.14,18.57-22.47,25.83-32.55-.18-1.95-.18-3.71-.18-5.48,0-7.78,3.01-13.09,6.9-13.09,2.12,0,3.18,1.24,3.18,3.36,0,4.07-3.36,8.49-8.31,15.57,1.77,15.21,3.18,35.2-6.9,48.29h.35c4.6-3.71,11.14-9.73,16.63-16.1h2.12c-4.95,5.84-10.61,11.67-16.98,16.8-8.84,7.61-20.52,15.21-30.78,15.21-6.54,0-9.73-4.25-9.73-9.38Z"/>
    <path class="cls-1" d="M706.49,171.98c-8.67,10.61-15.74,16.27-23.53,16.27-1.24,0-2.3-.18-3.18-.53-7.61,7.96-17.69,16.27-27.6,16.27-5.48,0-9.73-3.18-9.73-10.08,0-4.95,2.65-9.91,6.19-15.04l14.68-20.17c4.42-6.01,6.72-9.91,6.72-13.09,0-2.3-1.24-3.89-3.71-3.89-4.78,0-10.44,5.13-17.16,13.27-4.42,5.48-9.38,11.68-13.97,16.98h-2.12c4.95-5.84,10.26-12.56,14.86-18.04,7.43-8.49,12.74-14.33,19.81-14.33,4.42,0,7.25,3.54,7.25,8.67,0,3.71-1.24,7.43-3.89,10.97l-15.92,22.29c-4.78,6.72-7.78,10.97-7.78,15.39,0,2.65,1.95,4.95,6.01,4.95,8.14,0,17.87-7.43,24.77-14.86-3.36-1.95-4.95-6.19-4.95-10.79,0-13.8,14.15-36.62,23.7-36.62,4.42,0,6.01,3.01,6.01,6.9,0,9.91-9.2,24.41-19.1,36.62-.88,1.06-1.77,2.12-2.83,3.18.53.18,1.24.35,2.12.35,7.08,0,13.62-5.66,21.23-14.68h2.12ZM679.43,185.6c1.06-1.24,2.12-2.3,3.01-3.54,10.79-13.09,18.4-25.65,18.4-35.38,0-3.54-1.24-5.31-4.07-5.31-6.9,0-19.99,23.53-19.99,36.97,0,3.36.71,6.01,2.65,7.25Z"/>
    <path class="cls-1" d="M660.32,246.46l64.92-95.35h-.18c-6.01,6.01-12.91,13.97-18.57,20.87h-2.12c9.73-12.03,18.22-20.87,26.53-30.6h7.61l-10.44,15.57h.18c3.01-3.54,7.43-8.67,10.79-11.5,4.25-4.07,8.14-5.84,12.56-5.84,4.78,0,8.84,3.01,8.84,10.08,0,4.95-2.65,9.91-6.19,15.04l-14.68,20.17c-4.42,6.01-6.54,9.91-6.54,12.91,0,2.48,1.24,4.07,3.54,4.07,4.78,0,10.44-5.13,17.16-13.44,4.6-5.31,9.38-11.32,13.62-16.45h2.12c-4.6,5.48-9.91,12.21-14.51,17.69-7.43,8.49-12.74,14.33-19.81,14.33-4.42,0-7.25-3.54-7.25-8.67,0-3.71,1.24-7.43,3.89-10.97l15.74-21.94c3.18-4.78,6.72-9.55,7.78-13.62,1.24-4.6-.88-7.08-4.95-7.08-3.54,0-6.54,1.59-10.26,4.95-4.25,3.89-14.68,15.92-19.99,23.7l-51.65,76.06h-8.14Z"/>
  </g>
  <g>
    <path class="cls-1" d="M600.61,332.17c19.96-14.48,45.11-14.61,66.52-3.24,6.85,3.46,13.48,7.3,20.39,10.6,13.01,6.85,26.93,14.35,42.03,13.37,15.3-.95,27.46-11.58,40.17-19.32,6.59-4.05,13.61-7.43,20.97-9.85,7.35-2.44,15.24-3.83,23.01-3.69,4.83.21,9.9.87,14.47,2.48,6.5,2.03,12.33,5.91,17.79,9.8,15.76,12.1,34.1,15.1,53.23,10.34,14.66-3.62,27.63-11.44,40.03-19.92.5-.34,1.19-.21,1.54.29.31.45.23,1.05-.14,1.42-11.16,10.72-25.47,18.35-40.67,21.52-15.22,3.13-31.55,1.48-45.39-5.76-6.76-3.59-12.74-8.49-19.5-11.91-6.63-3.37-14.02-4.91-21.41-5.06-14.96-.03-29.66,5.2-42.47,12.75-9.78,5.75-19.04,13.17-29.88,17.27-11.06,4.39-23.69,3.39-34.68-.51-7.29-2.62-14.34-6-20.81-10.18-3.23-2.07-6.35-4.27-9.63-6.18-9.69-5.64-20.34-10.38-31.48-11.56-14.76-1.7-29.94,1.56-42.84,9.19-.52.31-1.2.14-1.51-.39-.29-.49-.15-1.12.3-1.45h0Z"/>
    <path class="cls-1" d="M695.67,345.4c15.3,4.4,28.86,13.95,39.31,25.85,3.42,4.06,6.49,8.49,8.58,13.47.19.45-.02.97-.47,1.16-5.53-.22-11.03-1.96-16.16-4.01-14.9-6.35-27.45-19.14-31.87-34.89-.16-.59.71-.92.96-.32,7.81,19.48,25.89,34.68,46.82,37.51,0,0-.94,1.22-.94,1.22-1.85-4.79-4.67-9.23-7.96-13.26-6.6-8.09-14.93-14.76-24.05-19.83-4.57-2.53-9.41-4.62-14.46-5.91-.63-.14-.41-1.16.25-.98h0Z"/>
    <path class="cls-1" d="M667.82,330.06c19.45,3.58,40.2,1.44,57.97-7.44,0,0,.35,1.62.35,1.62-5.77-.03-10.82-3.16-16.05-4.86-5.05-1.7-10.51-1.41-15.89-.55-5.41.93-10.9,1.77-16.21,3-5.32,1.23-10.52,2.92-15.27,5.65-.24.14-.55.06-.69-.18-.13-.22-.06-.51.14-.66,6.86-5,15.26-7.18,23.47-8.72,8.22-1.43,16.99-3.52,25.15-.57,2.69.95,5.19,2.2,7.7,3.24,2.51,1.03,5.07,1.87,7.68,1.96.48,0,.87.4.85.88-.01.33-.21.61-.49.74-9.14,4.2-18.97,6.8-28.95,7.91-9.96,1.13-20.07.67-29.94-1.01-.63-.12-.5-1.11.18-.99h0Z"/>
    <path class="cls-1" d="M751.63,347.91c13.19,8.88,28.99,13.83,44.86,14.31,5.29.18,10.59-.19,15.8-1.02l-.48,1.53c-15.94-14.67-39.14-19.93-60.15-15.16-.59.15-.89-.77-.28-.97,21.13-7.14,45.81-.6,61.65,14.84.55.48.24,1.46-.48,1.53-5.35.71-10.74.87-16.11.6-16.08-.85-31.91-5.95-45.37-14.82-.53-.36-.01-1.22.56-.84h0Z"/>
    <path class="cls-1" d="M768.63,335.48c11.32-6.16,17.34-17.67,20.16-29.84.52-2.01.99-4.04,1.45-6.07.47-2.01.92-4.05.18-5.58l1.3.39c-13.96,9.43-22.71,25.16-25,41.75-.07.6-1.02.56-1.01-.07.1-17.42,10.41-34.04,25.03-43.18.45-.31,1.09-.12,1.3.39.93,2.23.25,4.56-.31,6.68-1.61,6.08-3.25,12.17-5.91,17.91-1.75,3.83-4.05,7.45-6.89,10.57-2.84,3.13-6.15,5.81-9.8,7.94-.57.32-1.09-.54-.5-.88h0Z"/>
    <path class="cls-1" d="M860.33,341.13c10.03,6.43,17.99,15.89,22.76,26.79,1.6,3.63,2.83,7.43,3.66,11.32.13.53-.43,1.02-.94.83-22.13-7.04-40.83-25.98-45.63-48.94-.11-.59.77-.87.98-.26,1.79,5.43,4.14,10.62,6.99,15.51,8.53,14.63,22.07,26.63,38.12,32.32,0,0-.94.83-.94.83-1.43-7.64-4.47-14.98-8.88-21.39-4.38-6.43-10.04-12.04-16.66-16.15-.55-.34-.03-1.22.54-.85h0Z"/>
    <path class="cls-1" d="M821.19,321.21c16.54,1.9,33.67.18,49.24-5.81,5.18-2,10.14-4.52,14.75-7.57l.71,1.56c-6.2,1.82-12.28-1.21-18.15-2.3-17.97-3.48-35.17,5.44-49.86,14.95-.5.34-1.1-.43-.59-.82,4.76-3.74,9.78-7.21,15.19-10.04,10.78-5.71,23.53-8.81,35.69-6.21,5.76,1.18,11.43,4.26,17.26,2.76.92-.27,1.53,1.06.68,1.57-4.8,3-9.94,5.41-15.22,7.35-15.88,5.74-33.08,7.35-49.82,5.58-.63-.08-.57-1.08.11-1h0Z"/>
    <path class="cls-1" d="M940.55,316.43c-.86-4.51-1.45-9.06-1.84-13.64-.18-4.67-1.12-9.4.78-13.94.74-1.91,2.87-4.13,5.07-2.77,1.76,1.12,2.31,3.04,2.96,4.86,1.87,5.55,2.62,11.45,2.2,17.33,0,0-2.14-1.37-2.14-1.37,4.31-2.71,9.13-4.6,14.14-5.63,2.81-.41,5.48-1.27,8.36-.3,3.81,1.58,3.56,7.03.72,9.39-2.19,1.99-4.5,2.75-7.02,3.88-6.98,2.85-14.62,4.36-22.13,4-.98-.05-1.06-1.51-.09-1.65,4.81-.79,9.5-1.82,14.04-3.34,4.21-1.52,8.95-3.06,12.52-5.71.88-.81,1.2-1.76.83-2.71-.11-.2-.17-.27-.37-.37-1.37-.46-4.5.12-6.22.31-4.65.73-9.18,2.3-13.34,4.58-.96.64-2.32-.24-2.14-1.37.57-4.36.42-8.85-.5-13.2-.56-2.57-2.37-11.22-5.34-5.2-1.75,3.96-1,8.81-.81,13.08.34,4.52,1,9,1.93,13.43.21,1.07-1.4,1.41-1.62.33h0Z"/>
    <path class="cls-1" d="M740.7,384.6c-7.96-5.21-15.65-10.83-23.07-16.81-7.37-6.03-14.55-12.37-20.44-19.89-.36-.45.27-1.09.72-.71,7.41,5.97,13.88,12.85,20.9,19.24,6.93,6.43,14.37,12.35,22.44,17.32.56.34.03,1.23-.55.85h0Z"/>
    <path class="cls-1" d="M810.46,362.2c-9.75-2.19-19.31-5.08-29-7.3-9.69-2.31-19.44-3.97-29.06-6.63-.56-.14-.43-1.04.16-1,10.02.53,19.77,3.09,29.36,5.89,9.56,2.88,18.99,6.12,28.75,8.05.63.12.47,1.14-.21.99h0Z"/>
    <path class="cls-1" d="M767.9,334.68c3.3-6.72,6.26-13.57,9.17-20.48,2.99-6.86,6.35-14.03,12.28-18.9.43-.36,1.08.21.75.68-6.31,9.22-11.58,18.96-16.5,28.99-1.64,3.36-3.26,6.73-4.78,10.14-.27.6-1.22.19-.92-.43h0Z"/>
    <path class="cls-1" d="M664.83,328.38c18.47-4.53,38.1-8.46,57.04-4.48.56.12.48,1.02-.11,1-9.55,0-18.97-.59-28.51-.09-9.5.41-18.99,1.88-28.14,4.54-.62.18-.94-.8-.27-.97h0Z"/>
    <path class="cls-1" d="M883.84,378.55c-6.91-11.64-17.57-20.22-26.63-30.09-3.03-3.33-5.9-6.87-8.11-10.85-.29-.49.42-1.04.81-.6,12.04,13.28,24.79,26.04,34.79,41.01.35.55-.5,1.12-.86.53h0Z"/>
    <path class="cls-1" d="M821.72,319.34c4.95.16,9.74-1.6,14.48-3.19,4.77-1.64,9.67-2.97,14.64-3.96,9.83-2.2,20.07-1.19,29.92-2.77.56-.11.85.74.29.97-9.6,3.78-19.99,1.88-29.91,3.58-4.94.64-9.83,1.71-14.61,3.19-4.77,1.47-9.64,3.2-14.83,3.19-.65,0-.67-1.03.02-1.01h0Z"/>
    <g>
      <path class="cls-1" d="M601.42,326.61c4.5-9.02,4.75-20.06.81-29.31-1.94-4.87-4.77-8.55-10.45-7.65-4.56.58-8.33,4.85-13.25,3.7-1.63-.34-3.67-1.59-5.04-1.33-.79.12-1.55.7-2.14,1.54-2.38,3.58-1.65,9.17,1.23,12.36,2.32,2.67,6.17,4.69,8.64,7.65,1.73,2.01,2.78,4.4,4.37,6.31,4.2,4.38,10.59,6.05,16.45,7,.87.1.82,1.45-.06,1.47-6.62.1-13.94-1.42-18.83-6.29-1.83-1.94-2.92-4.35-4.55-6.24-2.57-2.9-5.88-4.49-8.61-7.69-2.85-3.36-3.91-8.03-2.85-12.28.71-3.7,4.22-7.83,8.44-6.35,1.75.52,3.39,1.69,5.1,1.55,2.36-.09,4.59-1.46,6.87-2.33,3.79-1.6,8.6-1.75,11.93,1.14,8.46,9.71,8.62,26.13,3.27,37.4-.43.87-1.76.24-1.33-.65h0Z"/>
      <path class="cls-1" d="M603.35,299.07c-1.08-3.06-1.12-8.03,2.86-8.92,3.32-.45,6.45.67,9.64,1.02,2.05.28,4.1.42,6.02-.02,1.93-.38,3.62-1.52,5.45-2.62,5.81-4.06,12.02-1.88,13.82,5,.78,3.46-.35,7.1-2.02,10.03-2.22,3.88-5.22,7.19-8.78,9.87-3.39,2.61-7.5,4.19-10.99,6.41-4.51,2.79-7.47,8.38-13.35,8.82-.99.1-4.43-.17-3.85-1.67.16-.31.52-.46.84-.38,5.27,1.12,8.41-4.25,11.81-7.47,2.36-2.3,5.51-3.9,8.31-5.35,3.68-1.85,6.92-4.08,9.74-7.03,2.75-2.88,5.24-6.29,5.85-10,.7-3.47-1.42-7.85-5.11-8.31-4.04-.35-7.31,3.55-11.41,4.22-5.32,1.15-10.51-1.62-15.7-1.18-3.1.85-2.58,4.56-1.73,7.2.27.95-1.18,1.33-1.42.39h0Z"/>
      <path class="cls-1" d="M593.64,287.5c2.35-6.79,12.1-9.76,16.83-3.58,1.52,1.85,2.26,4.57,1.27,6.82-.27.66-1.28.59-1.47-.08-1.42-3.35-3.06-6.29-6.5-7.54-3.4-1.21-7.88,1.21-8.71,4.81-.26.99-1.75.54-1.41-.43h0Z"/>
      <path class="cls-1" d="M603.18,280.36c.46-3.9,4.25-6.84,8.14-6.38,1.98.29,3.53,1.38,4.98,2.17,1.37.78,2.66,1.3,4.21,1.08,1.45-.16,3.05-.85,5.1-.99,5.3-.35,10.64,4.01,10.66,9.43.02.77-.07,1.78-.83,2.32-.53.39-1.5.32-1.56-.46-.03-.41.28-.76.69-.78-.11-.07-.29.05-.3,0-.27-.7-.55-1.57-.96-2.23-1.53-2.73-4.44-4.95-7.62-5.03-2.14-.05-5.64.99-8.04-.23-2.34-.99-4.24-3.28-6.58-3.74-2.91-.58-6.34,1.93-6.43,4.96-.04,1.01-1.57.9-1.47-.11h0Z"/>
      <path class="cls-1" d="M603.1,280.89c-.09-3.78-4.51-6.87-8.09-5.5-1.96.66-3.87,1.94-6.06,2.18-4.21.61-8.47-1.12-12.42-.8-1.67.07-2.34,1.4-3.02,2.85-1.06,2.46-1.23,5.35-.54,7.98.2.71.33,1.34.74,1.82,0,0,.43.26.43.26.47.27.38,1.03-.13,1.18-1.59.45-2.7-1.13-3.35-2.31-2.3-4.28-1.65-9.87,1.76-13.47,4.67-4.01,11.23.94,16.34.53,1.88,0,3.64-1.06,5.81-1.7,2.19-.7,4.73-.16,6.57,1.17,1.85,1.3,3.23,3.37,3.43,5.73.04.41-.27.76-.67.8-.42.04-.79-.29-.8-.72h0Z"/>
      <path class="cls-1" d="M597.65,332.41c-3.06-1.37-5.97-3.1-8.63-5.14-1.5-1.15-3.05-2.63-3.12-4.52-.09-.87.48-1.6,1.34-1.71,2.59-.59,5.1.99,7.55,1.99,4.62,1.89,10.02,1.78,14.56-.29,1.13-.51,2.41-1.15,3.54-.63,1.32.61,1.5,2.54.74,3.78-.76,1.23-2.14,1.93-3.44,2.56-2.05,1-4.1,2-6.15,3-2,.97-4.35,1.95-6.35.98"/>
      <path class="cls-1" d="M580.52,292.55c-.95.94-1.21,2.37-1.02,3.68.75,4.59,5.58,6.75,8.35,10.11,3.2,3.5,5.69,7.9,6.45,12.64.11,1.05.77,5.71-.86,5.42-.27-.05-.49-.23-.58-.47-2.19-5.6-3.71-10.99-7.08-15.96-1.63-2.59-3.9-4.56-5.76-7.06-1.96-2.6-2.9-6.6-.58-9.37.67-.75,1.78.29,1.08,1.01h0Z"/>
      <path class="cls-1" d="M627.47,289.36c5.12,5.76-4.56,16.01-8.11,20.58-3.48,4.22-5.37,9.47-8.38,14.02,0,0-.15.23-.15.23-.02.03-.04.07-.06.07,0,.01-.01-.01-.02-.04,0-.04,0-.09-.04-.18-.1-.32-.46-.56-.82-.48.95-.18,1.21,1.27.27,1.45-.48.1-.92-.32-.92-.78-.02-.22.01-.58.02-.81.91-5.76,3.74-11.44,7.94-15.52,2.98-2.8,6.25-5.63,8.37-9.09,1.49-2.36,3.21-6.19.91-8.38-.78-.65.26-1.81,1-1.09h0Z"/>
    </g>
    <path class="cls-1" d="M598.17,333.37c-24.36-14.16-50.75-12.13-74.32,2.38-3.28,1.92-6.41,4.12-9.63,6.18-6.48,4.18-13.53,7.56-20.81,10.18-10.99,3.9-23.62,4.9-34.68.51-10.84-4.11-20.1-11.52-29.88-17.27-12.82-7.55-27.51-12.79-42.47-12.75-7.4.15-14.78,1.69-21.41,5.06-6.76,3.43-12.74,8.33-19.5,11.91-13.83,7.24-30.16,8.89-45.39,5.76-7.65-1.54-15.01-4.35-21.89-7.96-6.86-3.65-13.24-8.19-18.78-13.56-.44-.42-.45-1.12-.03-1.56.38-.39.98-.44,1.42-.14,12.4,8.48,25.37,16.31,40.03,19.92,19.16,4.76,37.45,1.76,53.23-10.34,10.08-7.45,19.49-11.95,32.26-12.29,7.77-.14,15.65,1.25,23.01,3.69,7.36,2.42,14.38,5.81,20.97,9.85,12.7,7.74,24.87,18.38,40.17,19.32,15.1.98,29.01-6.52,42.03-13.37,13.84-6.61,26.88-15.81,42.4-18.05,11.6-1.81,23.77-.09,34.43,4.8,3.56,1.6,6.94,3.6,10.08,5.9.49.36.6,1.05.24,1.54-.34.46-.98.58-1.46.29h0Z"/>
    <path class="cls-1" d="M504.58,345.74c-18.4,4.95-39.27,21.1-46.47,39,0,0-.94-1.22-.94-1.22,5.19-.7,10.27-2.17,15.03-4.32,14.39-6.41,25.88-18.54,31.79-33.19.21-.57,1.14-.29.96.32-4.42,15.75-16.97,28.54-31.87,34.89-5,2.1-10.3,3.52-15.7,4.08-.49.07-.95-.29-1-.79,1.78-5.2,5.24-9.73,8.65-13.91,3.44-4.05,7.33-7.68,11.45-11.01,4.12-3.32,8.54-6.27,13.18-8.81,4.66-2.51,9.53-4.66,14.68-6.03.63-.16.91.81.25.98h0Z"/>
    <path class="cls-1" d="M532.36,330.42c-19.74,3.44-40.59,1.53-58.89-6.9-.81-.36-.55-1.64.35-1.62,5.49-.23,10.21-3.39,15.39-5.19,8.16-2.95,16.93-.86,25.15.57,8.2,1.54,16.61,3.72,23.47,8.72.23.16.28.48.11.71-.15.21-.44.26-.66.14-4.75-2.72-9.95-4.42-15.27-5.64-5.31-1.23-10.8-2.07-16.21-3-5.38-.86-10.84-1.16-15.89.55-2.55.83-5.05,1.99-7.67,3-2.62,1.01-5.43,1.84-8.37,1.86l.35-1.62c4.42,2.2,9.04,4.01,13.79,5.4,9.5,2.83,19.49,3.94,29.39,3.63,4.96-.14,9.91-.7,14.79-1.59.63-.12.85.88.18.99h0Z"/>
    <path class="cls-1" d="M448.93,348.12c-13.45,8.87-29.28,13.97-45.37,14.82-5.37.27-10.77.1-16.11-.6-.72-.07-1.04-1.05-.48-1.53,3.97-3.87,8.49-7.17,13.35-9.86,14.55-7.94,32.48-10.38,48.3-4.99.58.21.35,1.11-.28.97-21.01-4.77-44.21.5-60.15,15.16,0,0-.48-1.53-.48-1.53,5.21.83,10.51,1.19,15.8,1.02,10.59-.3,21.12-2.64,30.89-6.76,4.89-2.04,9.58-4.58,13.98-7.54.52-.36,1.13.47.56.84h0Z"/>
    <path class="cls-1" d="M430.87,335.72c-11.66-6.64-17.6-17.79-20.96-30.37-.57-2.02-1.11-4.04-1.65-6.05-.56-2.12-1.24-4.45-.31-6.68.21-.5.85-.69,1.3-.39,14.62,9.14,24.94,25.76,25.03,43.18,0,.61-.92.7-1.01.07-2.28-16.59-11.03-32.32-25-41.75,0,0,1.3-.39,1.3-.39-.73,1.53-.29,3.58.18,5.58,1.39,6.05,2.84,12.17,5.38,17.84,3.33,7.55,9,14.06,16.23,18.08.57.31.09,1.22-.5.88h0Z"/>
    <path class="cls-1" d="M340.21,341.35c-9.91,6.19-17.73,15.63-22.22,26.4-1.48,3.59-2.61,7.33-3.32,11.15,0,0-.94-.83-.94-.83,16.04-5.69,29.59-17.69,38.12-32.32,2.86-4.89,5.2-10.08,6.99-15.51.17-.56,1.11-.38.98.26-4.79,22.97-23.5,41.9-45.63,48.94-.51.19-1.07-.3-.94-.83,2.5-11.64,8.57-22.47,17.12-30.74,2.86-2.74,5.95-5.24,9.29-7.38.56-.34,1.11.49.54.85h0Z"/>
    <path class="cls-1" d="M378.93,321.57c-16.74,1.78-33.94.17-49.82-5.58-5.28-1.94-10.42-4.35-15.22-7.35-.82-.5-.26-1.84.68-1.57,5.83,1.5,11.5-1.58,17.26-2.75,12.16-2.6,24.91.5,35.69,6.21,5.42,2.84,10.44,6.3,15.19,10.04.47.38-.03,1.17-.59.82-14.69-9.52-31.89-18.44-49.86-14.95-5.88,1.1-11.95,4.13-18.15,2.3,0,0,.71-1.56.71-1.56,4.6,3.05,9.57,5.57,14.75,7.57,15.57,5.99,32.7,7.71,49.24,5.81.62-.08.81.92.11,1h0Z"/>
    <path class="cls-1" d="M257.82,315.47c.93-4.43,1.59-8.92,1.93-13.43.19-4.28.95-9.13-.8-13.08-2.97-6.02-4.79,2.64-5.34,5.2-.92,4.34-1.07,8.83-.5,13.2.18,1.14-1.18,2-2.14,1.37-4.16-2.28-8.69-3.85-13.34-4.58-1.72-.19-4.86-.77-6.22-.32-.2.11-.26.18-.37.38-.36.95-.05,1.9.83,2.71,3.57,2.65,8.31,4.19,12.52,5.71,4.54,1.52,9.23,2.55,14.04,3.34.97.14.9,1.62-.09,1.65-7.51.36-15.15-1.15-22.13-4-2.53-1.13-4.84-1.9-7.02-3.88-2.83-2.35-3.09-7.81.72-9.39,2.87-.97,5.54-.11,8.36.3,5.01,1.03,9.84,2.92,14.14,5.63l-2.14,1.37c-.35-4.71.1-9.43,1.21-13.97.93-2.87,1.3-6.34,3.94-8.22,2.2-1.34,4.34.86,5.07,2.77,1.91,4.53.96,9.26.78,13.94-.38,4.57-.98,9.13-1.84,13.64-.22,1.07-1.84.75-1.62-.33h0Z"/>
    <path class="cls-1" d="M458.75,383.11c16.45-9.73,28.83-24.4,43.34-36.56.44-.37,1.1.25.72.71-8.91,11.22-20.34,20.09-31.77,28.59-3.83,2.82-7.77,5.5-11.74,8.11-.54.36-1.13-.48-.55-.85h0Z"/>
    <path class="cls-1" d="M389.33,360.57c19.48-3.92,38.02-12.88,58.1-13.94.57-.03.75.84.16,1-9.62,2.66-19.37,4.32-29.06,6.63-9.69,2.22-19.25,5.11-29,7.3-.63.14-.88-.85-.21-.99h0Z"/>
    <path class="cls-1" d="M431.18,334.47c-6.17-13.53-12.89-26.83-21.28-39.13-.32-.46.32-1.05.75-.68,2.98,2.41,5.33,5.51,7.26,8.76,1.96,3.25,3.53,6.7,5.02,10.14,2.91,6.91,5.87,13.76,9.17,20.48.29.59-.63,1.06-.92.43h0Z"/>
    <path class="cls-1" d="M534.9,328.72c-18.39-5.68-37.66-4.79-56.65-4.45-.58.01-.69-.89-.11-1,18.93-3.98,38.56-.05,57.04,4.48.62.17.39,1.16-.27.97h0Z"/>
    <path class="cls-1" d="M315.3,377.38c10-14.97,22.75-27.73,34.79-41.01.38-.42,1.12.1.81.6-4.48,7.91-11.2,14.14-17.55,20.48-6.37,6.25-12.59,12.79-17.2,20.46-.33.56-1.23.05-.86-.53h0Z"/>
    <path class="cls-1" d="M378.3,319.71c-5.19.01-10.06-1.72-14.83-3.19-4.78-1.47-9.67-2.55-14.61-3.19-9.93-1.7-20.31.2-29.91-3.58-.54-.21-.3-1.09.29-.97,7.37,1.27,14.92.81,22.4,1.62,7.55.84,15,2.66,22.17,5.11,4.74,1.59,9.53,3.35,14.48,3.19.65-.03.71,1.01.02,1.01h0Z"/>
  </g>
</svg>