<?xml version="1.0" encoding="UTF-8"?>
<svg id="Layer_1" xmlns="http://www.w3.org/2000/svg" viewBox="0 0 1200 300">
  <defs>
    <style>
      .cls-1 {
        fill: #fff;
      }
    </style>
  </defs>
  <path class="cls-1" d="M311.06,55.01c-18.4,3.18-41.57,15.57-57.67,34.5,4.78,7.43,7.61,16.98,7.61,28.48,0,42.63-39.62,84.56-84.02,84.56-9.2,0-17.34-2.3-25.3-5.66-13.62,3.89-28.66,5.66-45.11,5.66s-32.2-3.54-32.2-13.8c0-7.61,8.31-12.91,23.17-12.91,20.87,0,36.26,11.14,53.07,18.57,28.66-9.91,47.05-31.49,69.17-66.69,9.55-15.39,19.28-27.95,28.66-37.86-9.38-14.86-26.53-21.58-44.93-21.58-41.22,0-75.18,29.54-75.18,57.49,0,9.91,5.13,17.16,17.16,17.16,27.59,0,44.22-26.53,46.88-47.58h1.95c-3.01,22.47-19.81,49.53-49.53,49.53-12.56,0-22.11-5.48-22.11-19.46,0-28.3,38.03-59.08,80.84-59.08,19.81,0,37.68,6.54,48.12,20.52,20.17-19.81,40.86-30.43,59.44-33.61v1.77ZM147.96,195.29c-16.27-7.43-31.49-17.51-50.42-17.51-13.44,0-20.34,4.42-20.34,10.97,0,9.02,14.68,11.85,29.72,11.85,15.92,0,29.36-1.77,41.04-5.31ZM256.22,119.22c0-10.44-2.12-19.1-5.84-26.18-6.54,8.67-12.03,18.57-21.23,35.38-20.7,37.33-44.4,58.02-74.65,67.57,7.08,2.65,14.33,4.6,22.47,4.6,42.45,0,79.25-40.69,79.25-81.37Z"/>
  <path class="cls-1" d="M254.81,191.22c0-4.25,1.42-8.49,4.07-13.62,3.36-6.19,8.67-13.8,14.51-19.81h-.18c-4.95,4.42-9.02,8.84-12.38,12.74h-2.12c6.19-7.61,15.74-16.8,24.94-23.53,9.2-6.72,15.57-8.84,20.17-8.84,6.19,0,9.2,4.78,6.37,13.09h.18l7.78-11.32h7.25l-29.19,43.16c-4.6,6.54-6.72,10.26-6.72,13.27,0,2.48,1.24,4.07,3.71,4.07,4.78,0,10.08-5.13,16.98-13.44,4.42-5.31,9.55-11.5,13.8-16.45h2.12c-4.78,5.48-10.08,12.21-14.68,17.69-7.25,8.49-12.56,14.33-19.81,14.33-4.6,0-6.9-3.36-6.9-8.84,0-2.3.71-4.6,2.48-7.61h-.18c-2.83,3.18-6.72,7.61-10.08,10.61-4.42,3.89-8.31,5.84-12.03,5.84-5.84,0-10.08-4.25-10.08-11.32ZM275.68,195.46c6.01-5.48,14.33-15.21,20.52-24.41l7.96-11.67c5.66-8.31,8.49-19.1,0-19.1-6.72,0-13.62,6.72-19.28,13.27-8.31,9.73-13.8,17.16-19.28,26.54-1.77,3.01-4.78,8.31-5.48,11.5-1.42,5.48,1.42,8.67,5.48,8.67,3.54,0,6.54-1.59,10.08-4.78Z"/>
  <path class="cls-1" d="M390.48,170.52c-19.81,24.06-35.73,33.96-48.65,40.33-7.61,11.14-14.33,20.52-22.11,26.89-5.31,4.42-14.68,9.02-22.11,9.02-4.6,0-8.31-2.65-8.31-6.9,0-1.77.53-3.71,1.42-5.31,5.66-9.91,24.76-14.15,41.75-21.76l16.98-24.77h-.18c-2.48,2.83-5.66,6.37-8.14,8.67-4.42,4.07-8.14,5.84-12.74,5.84s-8.84-3.01-8.84-10.08c0-4.95,2.83-9.91,6.19-15.04l19.1-27.77h-.18c-6.01,6.01-12.91,13.97-18.57,20.87h-2.12c9.73-12.03,18.22-20.87,26.53-30.6h8.67l-26.71,39.98c-3.18,4.6-6.72,9.38-7.78,13.44-1.24,4.6,1.06,7.08,4.95,7.08s6.72-1.59,10.26-4.95c4.25-3.89,14.68-15.74,20.17-23.7l21.58-31.84h8.14l-45.99,68.1c11.85-6.01,26.89-15.92,44.58-37.5h2.12ZM330.87,215.27c-13.97,6.54-30.07,10.44-35.91,18.75-1.24,1.95-2.3,4.42-2.3,6.72,0,2.83,1.95,4.42,5.13,4.42,7.25,0,15.04-7.25,20.34-13.09,4.25-4.78,8.49-10.44,12.74-16.8Z"/>
  <path class="cls-1" d="M370.49,193.16c0-7.08,3.89-12.21,8.31-12.21,2.12,0,3.18,1.24,3.18,2.65,0,5.66-9.2,4.25-9.2,11.5,0,3.18,2.48,5.48,6.72,5.48,5.31,0,12.91-4.25,22.11-15.92,11.67-14.5,13.27-26.36,13.27-36.26,0-2.3-.18-5.31-.35-8.14-6.54,8.84-15.57,19.81-24.06,30.25h-2.12c9.2-11.14,18.57-22.47,25.83-32.55-.18-1.95-.18-3.71-.18-5.48,0-7.78,3.01-13.09,6.9-13.09,2.12,0,3.18,1.24,3.18,3.36,0,4.07-3.36,8.49-8.31,15.57,1.77,15.21,3.18,35.2-6.9,48.29h.35c4.6-3.71,11.14-9.73,16.63-16.1h2.12c-4.95,5.84-10.61,11.67-16.98,16.8-8.84,7.61-20.52,15.21-30.78,15.21-6.54,0-9.73-4.25-9.73-9.38Z"/>
  <path class="cls-1" d="M473.44,192.45c0-4.95,2.83-9.91,6.19-15.04l19.1-27.77h-.18c-6.01,6.01-12.91,13.97-18.57,20.87h-2.12c9.73-12.03,18.22-20.87,26.53-30.6h8.67l-26.71,39.98c-3.18,4.6-6.72,9.38-7.78,13.44-1.24,4.6,1.06,7.08,4.95,7.08s6.72-1.59,10.26-4.95c4.25-3.89,14.68-15.74,20.17-23.7l21.58-31.84h8.14l-29.01,43.16c-4.42,6.54-7.08,10.79-7.08,14.15,0,1.95,1.06,3.36,3.54,3.36,4.95,0,10.79-5.48,17.51-13.62l13.62-16.45h2.12c-4.78,5.48-9.91,12.21-14.68,17.69-6.54,7.78-12.74,14.33-19.63,14.33-4.95,0-6.72-3.54-6.72-8.49,0-2.83.71-5.48,2.48-9.02h-.18c-3.01,3.71-7.25,8.67-10.61,11.68-4.42,4.07-8.14,5.84-12.74,5.84s-8.84-3.01-8.84-10.08Z"/>
  <path class="cls-1" d="M600.45,160.97c3.36-4.78,6.9-9.55,7.96-13.62,1.24-4.6-1.06-7.08-5.13-7.08-3.54,0-6.54,1.59-10.26,4.95-4.07,3.89-14.68,15.74-19.99,23.7l-21.58,31.84h-8.14l29.01-43.16c4.25-6.55,6.9-10.79,6.9-14.33,0-1.95-.88-3.36-3.36-3.36-4.95,0-10.79,5.66-17.69,13.97-4.25,5.31-9.55,11.5-13.8,16.63h-2.12c4.78-5.66,10.08-12.38,14.68-17.69,6.72-8.31,13.09-14.68,19.81-14.68,5.13,0,6.9,3.54,6.9,8.49,0,2.83-.71,5.48-2.65,8.84h.18c3.01-3.54,7.43-8.67,10.79-11.5,4.25-4.07,8.14-5.84,12.74-5.84s8.84,3.01,8.84,10.08c0,4.95-2.65,9.91-6.37,15.04l-14.51,20.17c-4.6,6.01-6.72,9.91-6.72,12.91,0,2.48,1.24,4.07,3.71,4.07,4.78,0,10.26-5.13,17.16-13.44,4.42-5.31,9.38-11.32,13.44-16.45h2.12c-4.6,5.48-9.73,12.21-14.51,17.69-7.25,8.49-12.74,14.33-19.81,14.33-4.42,0-7.25-3.54-7.25-8.67,0-3.71,1.42-7.43,4.07-10.97l15.57-21.94Z"/>
  <path class="cls-1" d="M643.44,146.11h-.18c-6.19,6.72-13.62,15.74-20.87,24.41h-2.12c15.39-18.75,23.35-27.07,30.78-36.79h-15.21l1.24-2.12h15.74c1.59-2.12,3.54-4.6,4.6-6.37l8.31-12.38h8.14l-12.74,18.75h20.7l-1.42,2.12h-20.7l-30.78,45.82c-3.54,5.13-6.19,9.73-6.19,14.15,0,3.54,1.95,6.72,6.19,6.72,6.19,0,12.74-4.6,19.81-13.27,4.6-5.31,9.55-11.5,13.8-16.63h2.12c-4.78,5.84-10.08,12.21-14.51,17.69-6.37,7.78-13.62,14.33-22.82,14.33-6.54,0-10.61-4.07-10.61-11.14,0-5.31,2.48-9.55,5.66-14.33l21.05-30.96Z"/>
  <path class="cls-1" d="M656.7,193.87c0-3.71,1.42-7.43,4.07-10.97l22.64-33.26h-.18c-6.01,6.01-12.91,13.97-18.57,20.87h-2.12c9.73-12.03,18.22-20.87,26.53-30.6h8.67l-29.36,43.52c-4.25,6.19-6.54,9.91-6.54,12.91,0,2.48,1.24,4.07,3.71,4.07,4.78,0,10.26-5.13,16.98-13.44,4.6-5.31,9.55-11.32,13.8-16.45h2.12c-4.78,5.48-10.08,12.21-14.68,17.69-7.25,8.49-12.56,14.33-19.81,14.33-4.42,0-7.25-3.54-7.25-8.67ZM708.36,107.01c0-2.83,2.3-5.31,5.31-5.31,2.83,0,5.13,2.48,5.13,5.31,0,3.01-2.3,5.13-5.13,5.13-3.01,0-5.31-2.12-5.31-5.13Z"/>
  <path class="cls-1" d="M690.49,193.87c0-3.71,1.42-7.43,4.07-10.97l24.94-36.79h-.18c-6.19,6.72-13.62,15.74-20.87,24.41h-2.12c15.39-18.75,29.54-33.96,36.97-45.11l38.56-57.31h8.14l-77.66,115.33c-4.25,6.19-6.72,9.91-6.72,12.91,0,2.48,1.24,4.07,3.71,4.07,4.78,0,10.26-5.13,16.98-13.44,4.6-5.31,9.55-11.32,13.8-16.45h2.12c-4.78,5.48-10.08,12.21-14.68,17.69-7.25,8.49-12.56,14.33-19.81,14.33-4.42,0-7.25-3.54-7.25-8.67Z"/>
  <path class="cls-1" d="M776.28,182.37c0-7.08,3.71-12.74,8.31-12.74,2.12,0,3.18,1.24,3.18,2.65,0,5.48-9.02,4.95-9.02,11.32,0,10.08,6.37,16.98,19.99,16.98,24.77,0,45.11-24.41,67.93-59.97,14.68-22.47,26.89-42.1,44.4-58.73l-.18-.18c-12.74,9.38-19.28,11.68-25.3,11.68-7.43,0-12.56-5.13-17.51-12.03-6.37-8.67-10.61-13.09-21.94-13.09-21.93,0-40.33,13.44-40.33,31.84,0,10.61,5.84,17.16,16.98,17.16,13.62,0,25.65-10.26,30.07-21.4l1.77.71c-4.42,11.5-17.51,23-33.08,23-10.44,0-19.81-6.54-19.81-19.28,0-19.46,22.64-33.96,44.4-33.96,17.51,0,23.35,5.66,29.9,14.68,4.78,6.54,7.43,9.91,11.5,9.91,9.55,0,21.76-9.91,41.04-24.59l1.42,1.42c-23.7,18.04-18.4,16.45-53.78,73.59-23,38.39-51.65,61.21-77.48,61.21-14.5,0-22.46-7.96-22.46-20.17Z"/>
  <path class="cls-1" d="M924.16,191.22c0-4.25,1.42-8.49,4.07-13.62,3.36-6.19,8.67-13.8,14.51-19.81h-.18c-4.95,4.42-9.02,8.84-12.38,12.74h-2.12c6.19-7.61,15.74-16.8,24.94-23.53,9.2-6.72,15.57-8.84,20.17-8.84,6.19,0,8.84,4.78,6.9,11.5h.18l54.84-81.55h8.14l-77.66,114.98c-4.42,6.37-6.72,10.26-6.72,13.27,0,2.48,1.24,4.07,3.71,4.07,4.78,0,10.08-5.13,16.98-13.44,4.42-5.31,9.55-11.5,13.8-16.45h2.12c-4.78,5.48-10.08,12.21-14.68,17.69-7.25,8.49-12.56,14.33-19.81,14.33-4.6,0-6.9-3.36-6.9-8.84,0-2.3.71-4.78,2.48-7.61h-.18c-2.83,3.18-6.72,7.61-10.08,10.61-4.42,3.89-8.31,5.84-12.03,5.84-5.84,0-10.08-4.25-10.08-11.32ZM945.04,195.46c6.01-5.48,14.33-15.21,20.52-24.41l7.96-11.67c5.66-8.31,8.49-19.1,0-19.1-6.72,0-13.62,6.72-19.28,13.27-8.31,9.73-13.8,17.16-19.28,26.54-1.77,3.01-4.78,8.31-5.48,11.5-1.42,5.48,1.42,8.67,5.48,8.67,3.54,0,6.54-1.59,10.08-4.78Z"/>
  <path class="cls-1" d="M1057.72,170.52c-9.55,11.67-16.8,16.27-26,16.27-1.06,0-1.95,0-2.83-.18-.71.53-1.24,1.24-1.95,1.95-7.43,7.08-16.63,13.97-26.71,13.97-6.54,0-10.79-4.25-10.79-11.32,0-4.25,1.59-8.67,4.07-13.62,3.36-6.19,8.67-13.8,14.51-19.81h-.18c-4.95,4.42-9.02,8.84-12.38,12.74h-2.12c6.19-7.43,15.74-16.8,24.94-23.53,9.2-6.72,16.1-8.84,21.76-8.84,6.55,0,10.79,4.25,10.79,11.32,0,4.25-1.59,8.67-4.07,13.62-3.89,7.25-8.67,13.8-16.45,22.11h1.42c8.67,0,15.57-4.78,23.88-14.68h2.12ZM1023.22,183.96c-3.18-2.83-4.6-7.61-4.6-12.91,0-10.97,6.9-23.17,12.74-28.13h-.18c-3.89,2.48-7.43,6.19-11.67,10.61-8.31,9.73-13.97,17.16-19.28,26.54-2.48,4.42-5.66,10.08-5.66,15.04,0,3.89,1.95,5.66,5.13,5.66,7.08,0,14.33-6.37,20.87-13.8.88-1.06,1.77-2.12,2.65-3.01ZM1020.57,171.05c0,5.13,1.24,9.2,3.89,11.68,6.54-7.78,11.14-14.15,15.57-22.11,2.48-4.42,5.66-10.08,5.66-15.21,0-3.71-1.95-5.48-5.13-5.48-9.2,0-19.99,17.87-19.99,31.13Z"/>
  <path class="cls-1" d="M1060.9,200.77c-3.18,0-5.48-2.3-5.48-5.48s2.3-5.48,5.31-5.48c3.18,0,5.48,2.3,5.48,5.48s-2.3,5.48-5.31,5.48ZM1068.15,178.83c18.57-26.36,34.85-55.9,47.23-75.36,2.12-3.36,3.89-4.95,7.08-4.95,2.3,0,4.25,2.48,2.48,4.95-15.04,21.58-35.03,47.41-54.13,75.36h-2.65Z"/>
</svg>