<?xml version="1.0" encoding="UTF-8"?>
<svg id="Layer_1" xmlns="http://www.w3.org/2000/svg" viewBox="0 0 1200 300">
  <defs>
    <style>
      .cls-1 {
        fill: #fff;
      }
    </style>
  </defs>
  <path class="cls-1" d="M463.26,96.49c-16.45,23.88-42.28,34.14-65.63,35.73-17.51,29.54-37.15,48.65-58.73,59.61,13.27,5.13,26.54,9.55,39.98,9.55,18.57,0,29.72-12.56,44.4-30.25h2.12c-16.1,19.46-27.24,32.02-46.52,32.02-14.51,0-28.66-4.78-42.46-10.26-14.68,7.08-30.6,10.26-47.23,10.26-15.57,0-30.43-3.54-30.43-13.8,0-7.96,8.49-12.91,25.47-12.91s33.43,6.9,49.88,13.44c19.28-10.97,35.91-29.9,53.24-57.31-27.6-.71-42.28-12.03-42.28-31.13s20.34-41.04,52.89-48.82l.53,1.77c-31.49,7.78-48.65,26.89-48.65,46.88,0,17.16,12.74,28.83,38.74,29.37.53-.71.88-1.59,1.42-2.3,23.88-38.56,45.29-61.38,65.1-61.38,18.4,0,16.27,17.51,8.14,29.54ZM331.83,191.13c-15.92-6.37-31.66-12.74-47.58-12.74s-22.64,4.07-22.64,10.97c0,9.02,13.97,11.85,27.95,11.85,15.92,0,29.72-3.36,42.28-10.08ZM455.48,68.89c-18.93,0-35.03,23.88-55.9,60.14l-.71,1.24c21.94-1.95,45.46-11.67,61.03-34.67,7.43-11.14,9.91-26.71-4.42-26.71Z"/>
  <path class="cls-1" d="M487.67,171.14c-9.55,11.67-16.8,16.27-26,16.27-1.06,0-1.95,0-2.83-.18-.71.53-1.24,1.24-1.95,1.95-7.43,7.08-16.63,13.97-26.71,13.97-6.54,0-10.79-4.25-10.79-11.32,0-4.25,1.59-8.67,4.07-13.62,3.36-6.19,8.67-13.8,14.51-19.81h-.18c-4.95,4.42-9.02,8.84-12.38,12.74h-2.12c6.19-7.43,15.74-16.8,24.94-23.53,9.2-6.72,16.1-8.84,21.76-8.84,6.55,0,10.79,4.25,10.79,11.32,0,4.25-1.59,8.67-4.07,13.62-3.89,7.25-8.67,13.8-16.45,22.11h1.42c8.67,0,15.57-4.78,23.88-14.68h2.12ZM453.18,184.58c-3.18-2.83-4.6-7.61-4.6-12.91,0-10.97,6.9-23.17,12.74-28.13h-.18c-3.89,2.48-7.43,6.19-11.68,10.61-8.31,9.73-13.97,17.16-19.28,26.54-2.48,4.42-5.66,10.08-5.66,15.04,0,3.89,1.95,5.66,5.13,5.66,7.08,0,14.33-6.37,20.88-13.8.88-1.06,1.77-2.12,2.65-3.01ZM450.53,171.67c0,5.13,1.24,9.2,3.89,11.68,6.54-7.78,11.14-14.15,15.57-22.11,2.48-4.42,5.66-10.08,5.66-15.21,0-3.71-1.95-5.48-5.13-5.48-9.2,0-19.99,17.87-19.99,31.13Z"/>
  <path class="cls-1" d="M558.96,171.14c-8.67,10.61-15.74,16.27-23.53,16.27-1.24,0-2.3-.18-3.19-.53-7.61,7.96-17.69,16.27-27.6,16.27-5.48,0-9.73-3.18-9.73-10.08,0-4.95,2.65-9.91,6.19-15.04l14.68-20.17c4.42-6.01,6.72-9.91,6.72-13.09,0-2.3-1.24-3.89-3.71-3.89-4.78,0-10.44,5.13-17.16,13.27-4.42,5.48-9.38,11.68-13.97,16.98h-2.12c4.95-5.84,10.26-12.56,14.86-18.04,7.43-8.49,12.74-14.33,19.81-14.33,4.42,0,7.25,3.54,7.25,8.67,0,3.71-1.24,7.43-3.89,10.97l-15.92,22.29c-4.78,6.72-7.78,10.97-7.78,15.39,0,2.65,1.95,4.95,6.01,4.95,8.14,0,17.87-7.43,24.77-14.86-3.36-1.95-4.95-6.19-4.95-10.79,0-13.8,14.15-36.62,23.71-36.62,4.42,0,6.01,3.01,6.01,6.9,0,9.91-9.2,24.41-19.1,36.62-.88,1.06-1.77,2.12-2.83,3.18.53.18,1.24.35,2.12.35,7.08,0,13.62-5.66,21.23-14.68h2.12ZM531.9,184.76c1.06-1.24,2.12-2.3,3.01-3.54,10.79-13.09,18.4-25.65,18.4-35.38,0-3.54-1.24-5.31-4.07-5.31-6.9,0-19.99,23.53-19.99,36.97,0,3.36.71,6.01,2.65,7.25Z"/>
  <path class="cls-1" d="M611.32,171.14c-15.21,18.57-28.48,32.02-44.4,32.02-7.08,0-13.97-3.71-13.97-11.67,0-3.89,1.59-8.31,4.07-13.27,3.36-6.19,8.67-13.8,14.51-19.81h-.18c-4.95,4.42-9.02,8.84-12.38,12.74h-2.12c6.19-7.61,15.74-16.8,24.94-23.53,9.2-6.72,15.21-8.84,19.63-8.84,6.9,0,9.02,6.9,4.78,15.39-7.07,13.62-23.7,20.87-38.74,20.87h-.36c-1.06,1.77-2.3,3.71-3.36,5.66-2.3,3.89-4.78,8.84-4.78,12.74,0,4.78,3.54,7.43,9.38,7.43,13.98,0,27.77-13.8,40.86-29.72h2.12ZM568.33,173.26c13.8-.18,25.12-5.31,33.79-20.7,4.6-7.78,3.19-12.03-.71-12.03-5.13,0-10.97,5.13-18.4,13.62-6.02,7.08-10.61,12.91-14.68,19.11Z"/>
  <path class="cls-1" d="M714.45,134.17c-5.84,11.32-9.38,22.29-9.38,31.31,0,15.39,6.72,21.94,18.04,21.94,16.45,0,39.98-11.67,60.85-39.09h9.02c-30.78,46.88-62.27,99.06-107.2,99.06-15.39,0-24.06-7.78-24.06-17.34,0-7.08,3.71-12.38,8.31-12.38,2.12,0,3.18,1.24,3.18,2.65,0,5.48-8.84,4.95-8.84,11.32,0,6.9,7.43,13.8,21.4,13.8,34.14,0,58.2-39.09,88.62-82.61h-.35c-15.04,15.39-33.96,26.53-50.95,26.53-15.92,0-27.95-7.43-27.95-23.88,0-9.02,4.25-20.34,11.14-32.02-22.29-3.01-32.73-13.97-32.73-31.31,0-19.28,19.64-41.75,52.89-49.53l.53,1.77c-31.49,7.96-48.65,26.89-48.65,47.58,0,15.74,9.73,26.36,29.19,29.36,19.28-31.31,56.78-64.39,83.67-64.39,12.21,0,19.46,6.19,19.46,15.74,0,26.53-52.89,51.48-91.81,51.48h-4.42ZM715.51,132.04h3.54c36.44,0,87.56-23.17,87.56-49.35,0-9.2-5.66-13.8-15.57-13.8-26.18,0-59.08,32.37-75.54,63.15Z"/>
  <path class="cls-1" d="M794.76,194.49c0-3.71,1.41-7.43,4.07-10.97l22.64-33.26h-.18c-6.01,6.01-12.91,13.97-18.57,20.87h-2.12c9.73-12.03,18.22-20.87,26.54-30.6h8.67l-29.37,43.52c-4.24,6.19-6.54,9.91-6.54,12.91,0,2.48,1.24,4.07,3.71,4.07,4.78,0,10.26-5.13,16.98-13.44,4.6-5.31,9.55-11.32,13.8-16.45h2.12c-4.78,5.48-10.08,12.21-14.68,17.69-7.25,8.49-12.56,14.33-19.81,14.33-4.42,0-7.25-3.54-7.25-8.67ZM846.41,107.63c0-2.83,2.3-5.31,5.31-5.31,2.83,0,5.13,2.48,5.13,5.31,0,3.01-2.3,5.13-5.13,5.13-3.01,0-5.31-2.12-5.31-5.13Z"/>
  <path class="cls-1" d="M928.67,84.11c-9.73,17.16-33.26,35.2-54.66,50.24l-21.05,31.13c-7.25,10.79-6.72,20.34,3.36,20.34,8.49,0,15.21-4.78,23.35-14.68h2.12c-9.55,11.67-16.63,16.27-25.47,16.27-7.78,0-11.68-5.31-9.55-12.91h-.18l-47.58,71.11h-8.49l67.04-98.88h-.18c-6.19,6.72-13.62,15.74-20.87,24.41h-2.12c15.39-18.75,29.37-33.61,36.97-45.11l19.28-28.48c4.07-6.01,11.5-15.92,19.28-22.29,6.02-4.95,12.38-8.31,17.34-8.31,5.84,0,7.43,6.54,1.42,17.16ZM927.43,68.54c-3.71,0-9.02,4.6-15.21,11.5-5.48,6.19-10.08,12.56-13.45,17.51l-22.29,33.08c19.28-13.8,39.62-31.13,49-47.94,3.36-6.19,6.54-14.15,1.95-14.15Z"/>
  <path class="cls-1" d="M902.84,146.73h-.18c-6.19,6.72-13.62,15.74-20.88,24.41h-2.12c15.39-18.75,23.35-27.07,30.78-36.79h-15.21l1.24-2.12h15.74c1.59-2.12,3.54-4.6,4.6-6.37l8.31-12.38h8.14l-12.74,18.75h20.7l-1.42,2.12h-20.7l-30.78,45.82c-3.54,5.13-6.19,9.73-6.19,14.15,0,3.54,1.95,6.72,6.19,6.72,6.19,0,12.74-4.6,19.81-13.27,4.6-5.31,9.55-11.5,13.8-16.63h2.12c-4.78,5.84-10.08,12.21-14.51,17.69-6.37,7.78-13.62,14.33-22.82,14.33-6.54,0-10.61-4.07-10.61-11.14,0-5.31,2.48-9.55,5.66-14.33l21.05-30.96Z"/>
</svg>