<?xml version="1.0" encoding="UTF-8"?>
<svg version="1.1" xmlns="http://www.w3.org/2000/svg" width="5000" height="1250">
<path d="M0 0 C1.47583955 0.0001591 2.95168467 0.00585225 4.42749023 0.01586914 C5.20293686 0.01728409 5.97838348 0.01869904 6.77732849 0.02015686 C9.26361893 0.02577194 11.74982059 0.03832693 14.23608398 0.05102539 C15.91772331 0.05603845 17.59936405 0.06060169 19.28100586 0.06469727 C23.41189965 0.07574626 27.54272674 0.09302094 31.67358398 0.11352539 C30.10398103 3.46079838 28.19105987 6.45918244 26.13842773 9.53149414 C25.42009766 10.60834473 24.70176758 11.68519531 23.96166992 12.79467773 C23.17825236 13.96353475 22.39472076 15.13231533 21.61108398 16.30102539 C20.80012473 17.51402071 19.98925361 18.72707496 19.1784668 19.94018555 C13.17851912 28.90799691 7.12847936 37.8414025 1.03662109 46.74707031 C-5.83900751 56.81310309 -12.56252595 66.9676903 -19.32641602 77.11352539 C8.39358398 77.44352539 36.11358398 77.77352539 64.67358398 78.11352539 C61.85312374 85.16467599 61.85312374 85.16467599 58.67358398 88.11352539 C55.74645884 88.53268191 53.42539262 88.63654604 50.51538086 88.50317383 C49.28520737 88.47793892 49.28520737 88.47793892 48.03018188 88.45219421 C46.25007452 88.41421546 44.47016869 88.36565119 42.69059753 88.30776215 C39.86378282 88.22203453 37.03921706 88.1777583 34.21130371 88.14654541 C26.17294769 88.05558864 18.1373294 87.93222348 10.10229492 87.6784668 C5.18203568 87.52608031 0.26652096 87.45824934 -4.6559906 87.44312286 C-6.52231392 87.42151772 -8.38856611 87.36898498 -10.25306702 87.28374481 C-20.34956536 86.64901937 -20.34956536 86.64901937 -29.22801971 90.69582748 C-32.86054835 94.73957129 -35.57075352 99.27143575 -38.1711731 104.02529907 C-39.6534783 106.70472578 -41.3545848 109.20132775 -43.09692383 111.7175293 C-44.16066089 113.33984077 -45.22156008 114.96401674 -46.27954102 116.59008789 C-47.47870687 118.42020068 -48.67792748 120.25027759 -49.87719727 122.08032227 C-50.48128418 123.00449951 -51.08537109 123.92867676 -51.70776367 124.88085938 C-68.57231283 150.67123669 -68.57231283 150.67123669 -76.32641602 161.61352539 C-85.43373508 174.46723531 -93.98358478 187.69769569 -102.59985352 200.88305664 C-108.37254337 209.70151171 -114.21079754 218.45295231 -120.29125977 227.06274414 C-127.86740843 237.79052916 -135.07375526 248.74973617 -142.26391602 259.73852539 C-144.16519677 262.64054406 -146.06740082 265.54194753 -147.97132874 268.44223022 C-149.13951787 270.2220901 -150.30618632 272.00294952 -151.47093201 273.7850647 C-154.81672851 278.88680198 -158.25584288 283.90916129 -161.78649902 288.88491821 C-164.01342318 292.10777969 -165.98825761 295.44057427 -167.88891602 298.86352539 C-168.26604736 299.54036377 -168.64317871 300.21720215 -169.03173828 300.91455078 C-176.7761842 315.05909258 -183.80061499 330.61071082 -179.56860352 347.05883789 C-176.76702937 354.44881693 -173.49716732 358.89933922 -166.32641602 362.31665039 C-155.64595223 366.57214768 -143.53574105 363.3639666 -133.23120117 359.28393555 C-110.02180393 349.19645901 -90.01773552 329.56332067 -74.51000977 309.86352539 C-71.96875325 306.66308784 -69.31324142 303.57771298 -66.63891602 300.48852539 C-60.35023906 293.19402259 -54.2345409 285.76245863 -48.13061523 278.31323242 C-45.69752552 275.34677257 -43.25725717 272.38625862 -40.81689453 269.42578125 C-36.37453215 264.03659715 -31.93652418 258.64393537 -27.51391602 253.23852539 C-26.4659082 251.95848633 -26.4659082 251.95848633 -25.39672852 250.65258789 C-23.96926326 248.90192295 -22.54773348 247.14640722 -21.13110352 245.38696289 C-16.55363367 239.72493572 -11.82192524 234.26270457 -6.88110352 228.91430664 C-4.89351681 226.73525516 -2.94690956 224.53557869 -1.01391602 222.30883789 C2.74174057 218.00326398 6.62538314 213.82883553 10.54858398 209.67602539 C11.60239258 208.5596167 11.60239258 208.5596167 12.67749023 207.4206543 C19.46672424 200.24709443 26.27362219 193.22732662 33.77514648 186.79321289 C35.65329152 185.13147963 37.41663914 183.40227014 39.17358398 181.61352539 C42.83671695 177.90122286 46.71764553 174.50893185 50.67358398 171.11352539 C51.68189451 170.22997884 52.68966672 169.34581773 53.69702148 168.46118164 C62.05806348 161.15781758 70.71233725 154.31980795 79.59936523 147.66870117 C81.55838489 146.19989759 83.50717254 144.71842964 85.45483398 143.23461914 C110.22962094 124.5216078 140.83036186 106.38725428 172.67358398 105.11352539 C173.46635742 105.07356445 174.25913086 105.03360352 175.07592773 104.99243164 C188.3627643 104.63559717 198.91329421 107.98880573 209.98608398 115.30102539 C221.07334672 126.90397476 224.29351602 140.12371764 224.14648438 155.7421875 C222.72453448 200.94015588 189.47950313 244.71508073 161.09741211 277.4675293 C159.57931256 279.22250652 158.07088603 280.98545296 156.56420898 282.75024414 C151.30687735 288.90604236 146.02845334 295.04215943 140.67358398 301.11352539 C178.10284971 300.1180662 205.43379054 280.54133753 230.67358398 254.11352539 C235.41808997 248.85150059 239.94207558 243.41199882 244.42358398 237.92602539 C249.17931789 232.12579306 253.97415479 226.36393082 258.83618164 220.65258789 C261.70271159 217.27945002 264.51286105 213.86608049 267.29858398 210.42602539 C270.87758521 206.02550964 274.62150698 201.81520018 278.44311523 197.62524414 C280.6687775 195.11893795 282.76879959 192.54428146 284.86108398 189.92602539 C289.76361884 183.86032321 295.09616435 178.23187562 300.44311523 172.55883789 C303.38390978 169.43576617 306.23757576 166.25080447 309.03686523 163.00024414 C311.0523217 160.67693752 313.11206861 158.39604074 315.17358398 156.11352539 C318.44062734 152.49328816 321.66879174 148.84368974 324.86889648 145.16430664 C326.9031654 142.85263742 328.97580708 140.57821109 331.04858398 138.30102539 C334.93342585 134.00065715 338.6192454 129.57128569 342.23999023 125.04711914 C343.04307617 124.0790332 343.84616211 123.11094727 344.67358398 122.11352539 C345.12652832 121.3467749 345.57947266 120.58002441 346.04614258 119.79003906 C348.36887043 116.3718689 350.45751314 113.63709485 354.64871216 112.6468811 C360.48208629 111.98044012 366.32260632 112.29497802 372.17358398 112.55102539 C373.96775442 112.59621982 375.76203417 112.63727574 377.55639648 112.67407227 C381.93151075 112.77275847 386.30133714 112.92774936 390.67358398 113.11352539 C387.38129116 119.26403764 383.80049669 125.09725833 379.86108398 130.85180664 C379.02395119 132.08565849 379.02395119 132.08565849 378.16990662 133.34443665 C376.96752927 135.11647697 375.76362102 136.88747934 374.55831909 138.65753174 C371.30774459 143.43231141 368.06970435 148.21555433 364.83374023 153.00024414 C364.16375504 153.99084839 363.49376984 154.98145264 362.80348206 156.0020752 C354.27201441 168.63966322 345.91417172 181.39200748 337.57006836 194.15380859 C332.41032876 202.03101319 327.20769926 209.85507987 321.73608398 217.51977539 C314.61996743 227.48904283 307.94060771 237.73994263 301.23608398 247.98852539 C292.63223183 261.12866524 283.94000847 274.19330898 275.03500366 287.13146973 C253.27813128 316.43570375 253.27813128 316.43570375 246.67358398 351.11352539 C247.69802631 355.15909379 249.12322352 358.02382531 252.57983398 360.45336914 C261.84948335 365.31301741 270.63156157 364.86743001 280.56420898 362.14477539 C295.64174413 357.14418584 306.46043533 346.6654359 317.37280273 335.62011719 C318.93082526 334.04369862 320.49684205 332.47557021 322.06420898 330.90844727 C327.47383869 325.47964281 332.69582637 319.94404967 337.67358398 314.11352539 C339.12803916 312.50584167 340.58579293 310.90112825 342.04858398 309.30102539 C345.94404969 304.98442826 349.64216616 300.53951409 353.29858398 296.01977539 C355.39011639 293.4604002 357.51453064 290.93724279 359.66162109 288.42480469 C365.87777934 281.14727106 371.85747727 273.71429517 377.67358398 266.11352539 C378.16600586 265.47366699 378.65842773 264.83380859 379.16577148 264.17456055 C388.58214888 251.87531381 397.16726496 239.04451285 405.68261719 226.11425781 C410.80577348 218.34473809 416.05747888 210.69984792 421.49829102 203.14941406 C424.08093411 199.54501823 426.55518498 195.88356632 428.98608398 192.17602539 C434.47063736 183.88700696 440.03239132 175.65180716 445.61108398 167.42602539 C446.05384674 166.77312531 446.4966095 166.12022522 446.95278931 165.44754028 C448.77928805 162.7543139 450.60586883 160.06114325 452.43275452 157.36817932 C455.79961886 152.40450941 459.1613844 147.43741006 462.52124023 142.46899414 C463.94583676 140.3631114 465.37050546 138.25727751 466.79519653 136.15145874 C467.704244 134.8074403 468.61300297 133.46322668 469.52145386 132.11880493 C470.79008633 130.24148382 472.0598468 128.36493022 473.32983398 126.48852539 C474.04977539 125.42375977 474.7697168 124.35899414 475.51147461 123.26196289 C476.2249707 122.22297852 476.9384668 121.18399414 477.67358398 120.11352539 C478.21573799 119.15910805 478.21573799 119.15910805 478.7688446 118.18540955 C479.94523316 116.24262214 481.02016544 114.67338088 482.67358398 113.11352539 C485.7563737 112.46551244 487.76420431 112.28078546 490.81811523 112.42993164 C491.58790207 112.43983627 492.3576889 112.44974091 493.15080261 112.45994568 C495.59787541 112.49898389 498.04037948 112.58676259 500.48608398 112.67602539 C502.14943041 112.71115397 503.81284753 112.74309031 505.47631836 112.77172852 C509.54382088 112.84870819 513.60792935 112.96939817 517.67358398 113.11352539 C516.4072011 116.52639713 514.95471574 119.42892781 512.91137695 122.43798828 C512.35674774 123.25977066 511.80211853 124.08155304 511.23068237 124.92823792 C510.63176178 125.80535934 510.03284119 126.68248077 509.41577148 127.58618164 C508.79388947 128.50507675 508.17200745 129.42397186 507.53128052 130.37071228 C505.54147096 133.30884369 503.54520736 136.24252119 501.54858398 139.17602539 C500.22782822 141.12299039 498.90751112 143.07025305 497.58764648 145.01782227 C495.66293523 147.85758497 493.73784383 150.69708213 491.81091309 153.53533936 C488.12074806 158.97128791 484.45554692 164.42247467 480.82055664 169.89550781 C477.88611886 174.29382761 474.9283007 178.67623375 471.97045898 183.05883789 C471.36134674 183.96139816 470.7522345 184.86395844 470.12466431 185.79386902 C467.59340876 189.54395574 465.06164011 193.2936957 462.52954102 197.04321289 C455.72652789 207.11809259 448.93784527 217.20162199 442.20367432 227.32266235 C435.28921932 237.70639843 428.2925771 248.03494794 421.30981445 258.37280273 C414.39785065 268.60730233 407.49716021 278.84859972 400.65820312 289.13208008 C398.00988983 293.11403879 395.34835413 297.08648918 392.66841125 301.04724121 C374.4196477 326.56652537 374.4196477 326.56652537 368.67358398 356.11352539 C369.62428435 359.53604671 370.39706172 361.32409715 373.45483398 363.21508789 C381.23843012 366.45825295 388.57083434 364.74269331 396.16577148 361.72680664 C404.2779364 357.9192369 411.00099946 353.09967156 417.67358398 347.11352539 C418.5153418 346.38004883 419.35709961 345.64657227 420.22436523 344.89086914 C428.95930402 337.1883648 437.15466932 329.00653329 444.67358398 320.11352539 C445.51791992 319.12352539 446.36225586 318.13352539 447.23217773 317.11352539 C453.13215327 310.18304982 458.93245857 303.17634875 464.67358398 296.11352539 C469.40674623 290.29071428 474.17774972 284.50881991 479.04858398 278.80102539 C482.83139349 274.3649173 486.47904021 269.84762278 490.04858398 265.23852539 C494.45252174 259.55676524 499.09056368 254.12479336 503.83276367 248.72387695 C507.94154192 244.02011835 511.82796759 239.18033328 515.65014648 234.24243164 C518.72818018 230.27856848 521.90865015 226.42454108 525.17358398 222.61352539 C530.40168323 216.5010849 535.37644013 210.21198344 540.31176758 203.86206055 C542.08126006 201.59008042 543.86298099 199.32786945 545.64526367 197.06591797 C547.99270806 194.08545006 550.3331333 191.09948624 552.67358398 188.11352539 C553.20322754 187.43837891 553.73287109 186.76323242 554.27856445 186.06762695 C562.9234527 175.03750677 571.39299483 163.88643388 579.77368164 152.65454102 C581.67591565 150.11040692 583.58556995 147.57202576 585.49780273 145.03540039 C591.72326771 136.77355347 597.90847864 128.48495314 603.98608398 120.11352539 C604.53151855 119.36570801 605.07695312 118.61789062 605.63891602 117.84741211 C606.14148926 117.15147949 606.6440625 116.45554687 607.16186523 115.73852539 C607.60054932 115.13266602 608.0392334 114.52680664 608.49121094 113.90258789 C609.72452749 112.03644218 610.71400899 110.13216216 611.67358398 108.11352539 C610.83827148 107.80415039 610.83827148 107.80415039 609.98608398 107.48852539 C605.47055317 104.80361518 603.20258752 101.43603422 601.29858398 96.67602539 C598.49451524 82.32899406 603.13913763 65.31739456 611.08374023 53.28930664 C616.78782611 45.48297782 622.33775906 40.22546703 631.67358398 37.11352539 C642.96248713 36.11984128 642.96248713 36.11984128 647.29858398 38.86352539 C650.70808941 42.09358316 651.51024102 43.69788639 652.04858398 48.36352539 C651.39845506 54.86481462 649.08021921 59.27737292 644.04858398 63.48852539 C638.71102153 67.37120042 632.8733805 70.46184595 627.05786133 73.56225586 C620.63659534 77.0037457 615.45885511 80.08369865 612.34155273 86.89086914 C611.16672182 90.80010183 611.38811282 94.25711191 612.67358398 98.11352539 C617.64412448 104.17137162 627.05015161 104.23474723 634.37402344 105.15185547 C647.21921923 106.76879066 659.76475687 108.68137113 668.42749023 119.25415039 C676.13071877 130.16860431 676.25660129 143.58188131 674.3190918 156.47192383 C668.90013751 182.90842751 649.27330815 205.93064524 633.67358398 227.11352539 C632.82280273 228.26933105 632.82280273 228.26933105 631.95483398 229.44848633 C629.60721462 232.63585123 627.25811755 235.82211588 624.90625 239.00634766 C618.76362086 247.3285919 612.7155304 255.71805146 606.67358398 264.11352539 C599.99130749 273.39875804 593.28319897 282.66190104 586.48608398 291.86352539 C584.74749018 294.22389637 583.00964159 296.58481336 581.2722168 298.94604492 C580.2615074 300.31639892 579.24817119 301.68482281 578.23120117 303.05053711 C561.81962287 324.85484645 561.81962287 324.85484645 556.29467773 350.78930664 C556.94081994 354.75275625 558.12200415 357.98408777 560.67358398 361.11352539 C566.29842692 364.50965697 571.05495385 364.98573466 577.39624023 363.45727539 C600.00581339 356.68899026 619.2861086 336.02953026 633.47436523 317.88305664 C636.26838443 314.36447829 639.21617799 310.99492318 642.17358398 307.61352539 C647.46453097 301.54398261 652.61348689 295.37751175 657.67358398 289.11352539 C662.90933305 282.66807257 668.20741894 276.28332055 673.58276367 269.9543457 C678.01418358 264.72905351 682.35203241 259.42996654 686.67358398 254.11352539 C696.08044595 242.54105491 705.62410207 231.13497792 715.67358398 220.11352539 C716.40963867 219.2846582 717.14569336 218.45579102 717.90405273 217.60180664 C724.32776819 210.44278512 731.06958361 203.60954848 737.86108398 196.80102539 C738.33444183 196.32507935 738.80779968 195.8491333 739.29550171 195.35876465 C744.36892932 190.26348633 749.48231342 185.2812227 754.94189453 180.60009766 C757.34411522 178.53790651 759.6607464 176.38665996 761.98608398 174.23852539 C766.42071396 170.19875973 770.95453252 166.33596089 775.62670898 162.57446289 C777.84228659 160.7849579 780.03678073 158.98010472 782.22045898 157.15258789 C810.10244191 133.94196929 849.93344364 103.10167526 888.63452148 104.89477539 C898.21050898 105.92208439 905.35000546 108.23286214 911.98608398 115.48852539 C918.68739376 124.02905333 919.41831537 133.73479354 918.28295898 144.35571289 C917.83375998 147.95602818 917.27982573 151.53619804 916.67358398 155.11352539 C917.1234668 154.43290039 917.57334961 153.75227539 918.03686523 153.05102539 C921.10128323 148.43290448 924.18156384 143.82644329 927.30249023 139.24633789 C927.74963379 138.58891602 928.19677734 137.93149414 928.6574707 137.25415039 C929.59371359 135.8976005 930.54494249 134.55128529 931.51000977 133.21508789 C933.89382251 129.89069599 935.90831147 126.7684197 937.47436523 122.98071289 C939.47471312 118.63194369 941.22185463 115.25552777 945.67358398 113.11352539 C956.20115323 111.36349539 967.08949151 112.26731873 977.67358398 113.11352539 C972.89828043 120.68165241 968.02042895 128.17319336 963.04858398 135.61352539 C961.99392944 137.19351318 961.99392944 137.19351318 960.91796875 138.80541992 C956.34653508 145.64210906 951.7312389 152.44660303 947.07446289 159.2253418 C941.65456187 167.12189702 936.28799345 175.05422479 930.92358398 182.98852539 C930.43534149 183.71062195 929.947099 184.43271851 929.44406128 185.17669678 C925.8529263 190.48831368 922.26312759 195.80083298 918.67358398 201.11352539 C917.63517707 202.65031231 916.59676561 204.18709617 915.55834961 205.72387695 C911.38205966 211.90458002 907.20599198 218.08543324 903.0300293 224.26635742 C895.9131434 234.80005119 888.79527115 245.33307692 881.67358398 255.86352539 C881.19674164 256.56864258 880.71989929 257.27375977 880.22860718 258.00024414 C874.71042714 266.15916229 869.18292148 274.31157637 863.63842773 282.45263672 C860.92238837 286.44135741 858.21064098 290.43298063 855.50024414 294.42553711 C854.31432753 296.17065097 853.12660585 297.91454004 851.93676758 299.65698242 C833.78186469 324.22161755 833.78186469 324.22161755 828.67358398 353.11352539 C829.61028041 356.68510168 830.91583412 359.38021907 833.61108398 361.98852539 C838.70515425 364.76710917 843.85347034 364.7822952 849.40795898 363.46508789 C860.50885397 360.10030884 868.94154198 354.1514617 877.34545898 346.28930664 C879.38394977 344.38420703 881.47076306 342.58897641 883.61108398 340.80102539 C893.65378381 332.02624157 902.07068265 321.26126403 910.67358398 311.11352539 C911.63566652 309.98318337 912.59790361 308.85297287 913.56030273 307.72290039 C918.56000939 301.84287835 923.48857914 295.91224563 928.36108398 289.92602539 C931.39791169 286.23258629 934.49319354 282.59054053 937.58984375 278.94726562 C940.46903718 275.5539843 943.30562636 272.13084753 946.11108398 268.67602539 C950.06931355 263.81143915 954.1400746 259.05290361 958.23413086 254.30297852 C961.24590386 250.80136188 964.20410089 247.26574946 967.11108398 243.67602539 C980.55242474 227.16445033 995.02510592 211.68527719 1010.04858398 196.61352539 C1010.97598389 195.68145264 1011.90338379 194.74937988 1012.85888672 193.7890625 C1017.42491156 189.23372034 1022.03945996 184.80631167 1026.93530273 180.60668945 C1029.3392275 178.54174509 1031.65847468 176.38875856 1033.98608398 174.23852539 C1038.42071396 170.19875973 1042.95453252 166.33596089 1047.62670898 162.57446289 C1049.84228659 160.7849579 1052.03678073 158.98010472 1054.22045898 157.15258789 C1082.10244191 133.94196929 1121.93344364 103.10167526 1160.63452148 104.89477539 C1170.19227355 105.9201281 1177.311209 108.2427447 1183.98608398 115.42602539 C1190.52717172 123.72680792 1191.39184184 134.00217048 1190.28295898 144.28540039 C1189.83044659 147.90846264 1189.27627632 151.51231418 1188.67358398 155.11352539 C1189.5649707 153.76774414 1189.5649707 153.76774414 1190.47436523 152.39477539 C1195.03709745 145.51993591 1199.63215827 138.66848845 1204.29858398 131.86352539 C1204.92567261 130.94603516 1204.92567261 130.94603516 1205.56542969 130.01000977 C1206.42920152 128.75421714 1207.31005498 127.51003788 1208.20581055 126.27685547 C1209.77670553 124.04314851 1209.77670553 124.04314851 1211.22729492 121.20605469 C1213.14171253 117.94708652 1214.79707746 115.57887055 1217.67358398 113.11352539 C1223.08069043 111.77533915 1228.15547333 112.06103123 1233.67358398 112.42602539 C1235.13042971 112.48128506 1236.58747763 112.53146089 1238.04467773 112.57641602 C1241.59189216 112.69683564 1245.13143219 112.88609736 1248.67358398 113.11352539 C1247.30537866 116.88105341 1245.58314919 119.9667848 1243.32592773 123.27368164 C1242.60904785 124.33087402 1241.89216797 125.38806641 1241.15356445 126.47729492 C1240.75691589 127.05827942 1240.36026733 127.63926392 1239.95159912 128.237854 C1238.09238182 130.96652332 1236.25048075 133.7067744 1234.40652466 136.44577026 C1231.68707297 140.48357432 1228.96096119 144.51688168 1226.23608398 148.55102539 C1225.03684008 150.32705007 1223.8376218 152.10309206 1222.63842773 153.87915039 C1213.79257646 166.97942018 1204.94254921 180.07686926 1196.09179688 193.17382812 C1188.44849643 204.48443213 1180.81016049 215.79838073 1173.17358398 227.11352539 C1164.51067058 239.94939737 1155.84438658 252.78298134 1147.17358398 265.61352539 C1137.41613803 280.05220796 1127.66338169 294.49404897 1117.91552734 308.93920898 C1112.16972124 317.45364403 1106.42185413 325.96667367 1100.66967773 334.47680664 C1087.26693499 354.30901819 1073.91664501 374.17427653 1060.67358398 394.11352539 C1097.76797724 374.58502429 1132.17734387 350.63792391 1163.16186523 322.37915039 C1165.23566859 320.50853461 1167.33043776 318.67081066 1169.43920898 316.84008789 C1173.75631375 313.0698668 1177.94498962 309.17427597 1182.11108398 305.23852539 C1182.85535645 304.53598633 1183.59962891 303.83344727 1184.36645508 303.10961914 C1191.54001495 296.32038513 1198.55978276 289.51348719 1204.99389648 282.01196289 C1206.65562974 280.13381786 1208.38483924 278.37047023 1210.17358398 276.61352539 C1213.20953323 273.62480202 1216.01867057 270.4964606 1218.79858398 267.26977539 C1220.84717492 264.91389581 1222.945614 262.60845079 1225.04858398 260.30102539 C1228.92002065 256.01176082 1232.58695445 251.58985102 1236.22436523 247.10180664 C1243.06575489 238.75465659 1250.14364882 230.59554837 1257.40820312 222.61450195 C1258.82180128 221.05389203 1260.22772928 219.48625792 1261.62182617 217.90820312 C1267.39106325 211.39532938 1273.43266804 205.20012751 1279.59423828 199.0625 C1281.24099802 197.42112743 1282.88230494 195.7744372 1284.52319336 194.12719727 C1290.06901679 188.57787483 1295.70430836 183.20903622 1301.67358398 178.11352539 C1303.44928619 176.49384723 1305.22066706 174.86940821 1306.98608398 173.23852539 C1312.3884538 168.31851002 1317.96206871 163.66904823 1323.67358398 159.11352539 C1324.46804932 158.47761475 1324.46804932 158.47761475 1325.27856445 157.82885742 C1396.08535479 101.2454457 1396.08535479 101.2454457 1434.92749023 105.35180664 C1441.80607538 106.53611956 1447.81214129 109.61852726 1452.27905273 115.07446289 C1459.1002189 125.51624805 1459.2059152 138.10889557 1457.05639648 150.12915039 C1449.17411125 182.91387657 1423.04008406 210.28436868 1395.17358398 227.61352539 C1365.36035936 245.62951186 1330.69415896 257.49340881 1295.61108398 257.17602539 C1294.65008789 257.17151367 1293.6890918 257.16700195 1292.69897461 257.16235352 C1290.35710977 257.15070245 1288.01538217 257.13434565 1285.67358398 257.11352539 C1285.40497559 257.8310498 1285.13636719 258.54857422 1284.85961914 259.2878418 C1283.66484581 262.13434376 1282.2731689 264.67175698 1280.69702148 267.32446289 C1280.11251221 268.31422119 1279.52800293 269.30397949 1278.92578125 270.32373047 C1277.9965686 271.89030396 1277.9965686 271.89030396 1277.04858398 273.48852539 C1257.62290087 304.81709625 1257.62290087 304.81709625 1253.17358398 340.48852539 C1255.08156531 347.79232652 1259.38475918 354.02980212 1265.74780273 358.12133789 C1282.81731743 366.91577346 1304.04461245 363.85548891 1321.70776367 358.49633789 C1349.54042582 349.2044445 1373.66117581 330.57271368 1394.82983398 310.76977539 C1396.70501439 309.01823326 1398.60066669 307.2883199 1400.51733398 305.58227539 C1408.77337365 298.21398192 1416.30995364 290.2507909 1423.81518555 282.12475586 C1425.47819458 280.32498334 1427.14848749 278.53240894 1428.82202148 276.74243164 C1433.93016629 271.25525882 1438.77951168 265.61596042 1443.48217773 259.77758789 C1446.41344188 256.2140903 1449.49116067 252.80244262 1452.62670898 249.41821289 C1454.67207268 247.19941013 1454.67207268 247.19941013 1456.22045898 244.93383789 C1457.61653055 242.98090632 1458.72036292 241.51386253 1460.67358398 240.11352539 C1464.0883284 239.55212699 1467.24938055 239.68719176 1470.67358398 240.11352539 C1468.27272062 244.47427721 1465.31400004 248.02173322 1462.04858398 251.73852539 C1458.32936253 256.01739472 1454.66355452 260.31881521 1451.11108398 264.73852539 C1447.00706331 269.79593017 1442.65044409 274.57484551 1438.22436523 279.34790039 C1436.18956516 281.55408486 1434.1971216 283.779848 1432.23608398 286.05102539 C1424.44237365 295.00003867 1416.29855704 303.58332108 1407.92358398 311.98852539 C1407.22700684 312.68969482 1406.53042969 313.39086426 1405.81274414 314.11328125 C1401.26227795 318.65027176 1396.54844919 322.9292127 1391.67358398 327.11352539 C1390.66374875 328.00202991 1389.65457603 328.89128832 1388.64624023 329.78149414 C1358.42670546 355.94471552 1320.85336855 377.19441876 1279.67358398 375.11352539 C1266.08154055 373.99154067 1253.57707668 370.50604778 1242.67358398 362.11352539 C1241.12670898 361.03071289 1241.12670898 361.03071289 1239.54858398 359.92602539 C1231.03905028 352.55425664 1226.65209562 341.07285573 1225.67358398 330.11352539 C1224.27073463 308.3693604 1233.51652221 286.82490062 1243.67358398 268.11352539 C1244.18743652 267.14817871 1244.18743652 267.14817871 1244.71166992 266.16333008 C1254.3831027 248.03728038 1266.3649153 231.51763738 1278.67358398 215.11352539 C1279.25011719 214.34427734 1279.82665039 213.5750293 1280.4206543 212.7824707 C1281.83763941 210.89232711 1283.25527689 209.00267709 1284.67358398 207.11352539 C1281.6484744 210.10923863 1278.62930524 213.11087344 1275.61108398 216.11352539 C1274.76352539 216.95270508 1273.9159668 217.79188477 1273.04272461 218.65649414 C1268.03650741 223.64338232 1263.24860269 228.72956568 1258.67358398 234.11352539 C1257.6767078 235.26631871 1256.67932834 236.41867705 1255.68139648 237.57055664 C1254.71976172 238.6884468 1253.758834 239.80694553 1252.79858398 240.92602539 C1252.02333374 241.82877197 1252.02333374 241.82877197 1251.23242188 242.74975586 C1248.13508133 246.3688294 1245.10082239 250.02953215 1242.11108398 253.73852539 C1238.00472425 258.79881261 1233.64558073 263.58032808 1229.21655273 268.35571289 C1227.22370159 270.51693087 1225.27650613 272.69699508 1223.36108398 274.92602539 C1213.62337274 286.08711438 1203.25599722 296.6330143 1192.79858398 307.11352539 C1192.25897034 307.65572723 1191.71935669 308.19792908 1191.16339111 308.75656128 C1185.17922531 314.76334874 1179.12271926 320.60224235 1172.67358398 326.11352539 C1170.89788178 327.73320356 1169.12650091 329.35764257 1167.36108398 330.98852539 C1161.95860879 335.90929841 1156.37120818 340.54053029 1150.67358398 345.11352539 C1149.54159612 346.03741988 1148.41010911 346.96192829 1147.27905273 347.88696289 C1122.01467056 368.45465164 1094.65448668 385.74995203 1066.03295898 401.21899414 C1065.15728271 401.69723633 1064.28160645 402.17547852 1063.37939453 402.66821289 C1061.52319406 403.65970498 1059.64815938 404.61648933 1057.75878906 405.54321289 C1051.40772838 408.74097971 1047.61530675 411.71985079 1043.86108398 417.73852539 C1042.84983302 419.25706618 1041.83809398 420.77528202 1040.82592773 422.29321289 C1040.31143066 423.08308594 1039.79693359 423.87295898 1039.2668457 424.68676758 C1036.56562684 428.80109726 1033.74502199 432.83108459 1030.92358398 436.86352539 C1030.34592285 437.69207031 1029.76826172 438.52061523 1029.1730957 439.37426758 C1022.86752778 448.3625053 1016.21558571 457.07936755 1009.49536133 465.76000977 C1007.84724899 467.88917124 1006.20688192 470.02404553 1004.56811523 472.16040039 C999.60934813 478.58859012 994.45061651 484.72973569 988.92358398 490.67993164 C987.03412348 492.72356688 985.22016481 494.80156857 983.42358398 496.92602539 C974.74393131 506.87487256 965.19199341 516.13353933 954.67358398 524.11352539 C953.63073242 524.91145508 952.58788086 525.70938477 951.51342773 526.53149414 C925.55781861 545.96412857 890.78337044 562.02471169 857.67358398 559.11352539 C847.17776928 557.14696482 839.37478042 553.30566249 833.23608398 544.48852539 C828.25870115 536.75798529 828.72529709 527.61102641 830.25170898 518.76196289 C835.73348479 498.28005509 852.99321461 484.58928998 870.48217773 474.19946289 C895.29438842 459.97149844 922.24832692 450.25547781 948.93603516 440.22851562 C963.18033063 434.86974393 977.30887248 429.29597742 991.3347168 423.38916016 C991.97200714 423.12152359 992.60929749 422.85388702 993.26589966 422.57814026 C995.03034869 421.83659758 996.79364657 421.0923176 998.55688477 420.34790039 C1001.33511237 419.24757775 1004.08092424 418.37086372 1006.95092773 417.55102539 C1010.75465345 416.53737707 1010.75465345 416.53737707 1011.94702148 413.83618164 C1012.18678711 412.93770508 1012.42655273 412.03922852 1012.67358398 411.11352539 C1014.17483344 408.87839377 1015.69655473 406.71059978 1017.29858398 404.55102539 C1021.07407407 399.4219432 1024.64723307 394.18487637 1028.16625977 388.87646484 C1031.277759 384.19375593 1034.4352214 379.54216925 1037.58764648 374.88696289 C1038.85594411 373.0120092 1040.12417214 371.13700842 1041.39233398 369.26196289 C1043.35035165 366.36720284 1045.30912896 363.47297168 1047.27026367 360.58032227 C1049.19098019 357.74666668 1051.10833336 354.91075989 1053.02514648 352.07446289 C1053.60342194 351.22314789 1054.18169739 350.37183289 1054.77749634 349.49472046 C1058.61084321 343.81444738 1062.20400161 338.02277902 1065.67358398 332.11352539 C1064.4012793 333.52891602 1064.4012793 333.52891602 1063.10327148 334.97290039 C1051.53115006 347.70140083 1039.78050891 358.70495397 1024.67358398 367.11352539 C1023.92334961 367.5324707 1023.17311523 367.95141602 1022.40014648 368.38305664 C1009.9756059 374.93908892 996.27096614 377.18882148 982.67358398 373.11352539 C970.48237686 368.32524766 963.5456685 361.88923199 957.90014648 350.14086914 C949.47816424 329.35412952 954.51906088 305.86770244 962.80249023 285.84790039 C968.36184013 272.94741637 975.11747316 260.93905722 982.67358398 249.11352539 C983.05256836 248.51862305 983.43155273 247.9237207 983.82202148 247.31079102 C986.03561216 243.86141758 988.33142943 240.47661911 990.67358398 237.11352539 C991.04660645 236.57598633 991.41962891 236.03844727 991.80395508 235.48461914 C998.1046417 226.43430773 1004.78895933 217.72585052 1011.67358398 209.11352539 C1009.79714341 209.11352539 1008.57260795 211.08396213 1007.32202148 212.33227539 C1006.63495117 213.01805664 1005.94788086 213.70383789 1005.23999023 214.41040039 C1004.15524414 215.50094727 1004.15524414 215.50094727 1003.04858398 216.61352539 C1002.34862305 217.30961914 1001.64866211 218.00571289 1000.92749023 218.72290039 C996.30305146 223.35591883 991.93064083 228.14275582 987.67358398 233.11352539 C986.63916239 234.30426816 985.60402363 235.49438836 984.56811523 236.68383789 C981.82753945 239.84248996 979.09154326 243.00509436 976.35668945 246.16870117 C974.75800947 248.01597195 973.15546261 249.85982348 971.55249023 251.70336914 C966.13158362 257.95900253 960.89425938 264.31172015 955.82421875 270.85498047 C952.01329749 275.74729604 948.00803125 280.45044185 943.94970703 285.13818359 C940.39439292 289.25092079 936.95902768 293.44094249 933.58374023 297.70336914 C923.56246644 310.34779845 913.0934943 322.59574966 902.13452148 334.43383789 C900.04254544 336.71176736 898.00230965 339.01886478 895.98608398 341.36352539 C880.46921403 359.10229456 862.14293666 372.78351812 838.15405273 375.38696289 C830.5119765 375.73493834 823.33833036 373.83099379 817.36108398 368.98852539 C808.48858782 360.43866545 806.54398913 350.28340633 806.29858398 338.36352539 C806.26787922 331.38358649 807.61838793 325.4554078 809.79858398 318.80883789 C810.77650877 316.2687777 810.77650877 316.2687777 810.67358398 314.11352539 C808.90246035 316.02992443 807.1317012 317.94665854 805.36108398 319.86352539 C804.8185498 320.45045166 804.27601562 321.03737793 803.71704102 321.64208984 C801.0608145 324.51793172 798.40988017 327.39800754 795.77905273 330.29711914 C777.26738161 350.68788093 755.59747298 372.69397896 726.63061523 375.29711914 C714.76250038 375.69982962 703.07917543 371.53181526 694.29858398 363.48852539 C684.03837406 352.18309658 681.03806937 337.14748778 681.67358398 322.30102539 C683.7409538 292.30319904 699.74160309 264.21264792 716.67358398 240.11352539 C717.59704624 238.777785 718.52020023 237.44183146 719.44311523 236.10571289 C724.8307682 228.351169 730.37269312 220.76784122 736.28417969 213.40307617 C738.71082356 210.41244802 738.71082356 210.41244802 740.67358398 207.11352539 C737.81512391 209.94255415 734.96263414 212.77753318 732.11108398 215.61352539 C730.91128906 216.80075195 730.91128906 216.80075195 729.68725586 218.01196289 C724.79999472 222.87927602 720.14053356 227.8589403 715.67358398 233.11352539 C714.71148936 234.23083773 713.74925576 235.34803042 712.78686523 236.46508789 C711.85279403 237.55582502 710.91921046 238.64697993 709.98608398 239.73852539 C708.94579259 240.95473383 707.90542576 242.17087775 706.86499023 243.38696289 C706.07632568 244.30880371 706.07632568 244.30880371 705.27172852 245.24926758 C703.68927793 247.09521819 702.10212194 248.93700949 700.51342773 250.77758789 C695.52630359 256.56089653 690.59872875 262.36847253 685.86108398 268.35961914 C681.35852998 274.02801303 676.76965609 279.62738091 672.19848633 285.24047852 C670.87259823 286.86907498 669.54833764 288.49899617 668.22436523 290.12915039 C662.93863967 296.62005935 657.5595575 303.02732124 652.13256836 309.40014648 C651.14608355 310.55863886 650.16042834 311.71783809 649.17553711 312.87768555 C643.19886871 319.91392418 637.15215598 326.85939602 630.90795898 333.66040039 C628.93749495 335.82377699 627.01670777 338.01821144 625.11108398 340.23852539 C609.19187726 358.40558306 590.89561943 372.46804498 566.37670898 375.38696289 C558.61453856 375.79059575 550.63138852 372.98809274 544.67358398 368.11352539 C538.58312711 362.25260835 534.14197898 354.48369735 533.51245117 345.92211914 C533.06879365 320.87094537 540.38012562 304.21003939 555.06616211 284.29760742 C557.22982918 281.35772807 559.35831555 278.39308237 561.48925781 275.42944336 C563.66378163 272.40808933 565.84835807 269.3940644 568.0324707 266.37963867 C570.75006561 262.62707754 573.46160337 258.87014494 576.17358398 255.11352539 C579.43227455 250.59960644 582.69225058 246.08664874 585.95874023 241.57836914 C591.2393882 234.28604575 596.49309739 226.97742419 601.67358398 219.61352539 C605.78198651 213.77356038 609.9275418 207.96241415 614.11108398 202.17602539 C614.65047607 201.42893311 615.18986816 200.68184082 615.74560547 199.91210938 C618.4689262 196.14457181 621.20495692 192.38723704 623.96264648 188.64477539 C645.72585193 161.15491063 645.72585193 161.15491063 652.67358398 128.11352539 C651.73482192 124.29680661 650.62696423 121.13500423 647.92358398 118.23852539 C640.59250596 114.57298638 629.761444 112.10647897 621.67358398 114.11352539 C617.69045664 117.29689094 615.36492749 120.93062101 612.79321289 125.28491211 C611.05292333 128.12720796 608.98856394 130.6889425 606.92358398 133.30102539 C606.09266513 134.37800109 605.26329227 135.45617098 604.43530273 136.53540039 C595.6869332 147.88219989 586.86348959 159.17077014 578.00024414 170.42797852 C576.18395275 172.73561115 574.36972389 175.04486096 572.55566406 177.35424805 C571.63515832 178.5259782 570.71442305 179.69752807 569.79345703 180.86889648 C567.52284329 183.75715902 565.25518417 186.64764144 562.99389648 189.54321289 C556.97016409 197.24816495 550.84153337 204.86128206 544.66186523 212.44165039 C542.31636865 215.31964993 539.98756852 218.21008375 537.67358398 221.11352539 C529.56719392 231.2635432 521.3971712 241.34400128 512.91064453 251.17944336 C508.39980188 256.41211041 504.02105775 261.74436006 499.67358398 267.11352539 C498.07404201 269.08323076 496.47377016 271.05234202 494.87353516 273.02148438 C493.74196701 274.41404612 492.61061865 275.80678649 491.47949219 277.19970703 C487.58738612 281.99222995 483.68580645 286.77681759 479.77124023 291.55102539 C478.35840804 293.2769433 476.94962689 295.00618441 475.54467773 296.73852539 C470.39403014 303.07778397 465.12381109 309.30294226 459.79077148 315.48852539 C457.69919581 317.91491073 455.62220047 320.35266511 453.55639648 322.80102539 C447.85802604 329.53956026 442.03863007 335.9866723 435.67358398 342.11352539 C434.84858398 342.93852539 434.02358398 343.76352539 433.17358398 344.61352539 C432.34858398 345.43852539 431.52358398 346.26352539 430.67358398 347.11352539 C430.07674805 347.75676758 429.47991211 348.40000977 428.86499023 349.06274414 C415.38443752 363.23587571 397.73142742 374.33653297 377.79858398 375.30102539 C369.27386344 375.11999851 362.86753127 373.15838423 356.67358398 367.11352539 C349.41259992 359.00385488 348.08622031 346.7503296 348.38061523 336.25024414 C349.27754864 326.64707718 351.64175987 317.25200234 354.67358398 308.11352539 C353.98393555 308.93594727 353.29428711 309.75836914 352.58374023 310.60571289 C346.73729202 317.55884014 340.80272241 324.40655573 334.67358398 331.11352539 C333.75417008 332.12641638 332.83490619 333.13944355 331.91577148 334.15258789 C312.84246172 355.13453145 293.15535626 372.24200791 264.07983398 375.39477539 C254.77848888 375.7991817 244.85369635 373.11191093 237.67358398 367.11352539 C229.14910992 359.2001809 224.8963502 350.13190932 224.43530273 338.52368164 C224.20967272 327.72885381 224.70098086 318.2984782 228.67358398 308.11352539 C228.90964355 307.49735352 229.14570313 306.88118164 229.38891602 306.24633789 C236.55416255 287.84121721 247.71515845 271.79839844 258.91186523 255.65551758 C260.45415549 253.43013978 261.98861247 251.19979679 263.51733398 248.96508789 C268.77767145 241.27705321 274.0970902 233.63083081 279.42358398 225.98852539 C286.07811513 216.43913881 292.65485933 206.83904553 299.20092773 197.21508789 C306.96216891 185.80463439 314.80953832 174.45328506 322.67358398 163.11352539 C321.98006836 163.80833008 321.28655273 164.50313477 320.57202148 165.21899414 C318.5840098 167.20770534 316.58812121 169.18813675 314.58764648 171.16430664 C309.33869931 176.36184008 304.12322597 181.53395921 299.33764648 187.16821289 C297.37219384 189.46585471 295.33628527 191.69225662 293.29858398 193.92602539 C290.16935572 197.38882621 287.1685805 200.92031542 284.23608398 204.55102539 C281.1602181 208.35440042 277.98605232 212.01435191 274.67358398 215.61352539 C270.61696311 220.02642883 266.78684706 224.56853301 263.02124023 229.23071289 C259.98938599 232.95368865 256.88081252 236.60816224 253.76855469 240.26391602 C250.76711432 243.79762375 247.83216753 247.37752882 244.92358398 250.98852539 C241.90474042 254.70030635 238.78072834 258.13215572 235.33764648 261.44946289 C233.58929255 263.19781683 232.01432836 265.0337181 230.42358398 266.92602539 C211.75015328 288.46271547 184.36942991 306.02672125 155.67358398 309.11352539 C153.71664137 309.13215144 151.75945074 309.13016595 149.80249023 309.11352539 C148.73321289 309.11481445 147.66393555 309.11610352 146.56225586 309.11743164 C144.34845685 309.11483176 142.13447111 309.08106773 139.92163086 309.01586914 C133.60778699 309.07111949 133.60778699 309.07111949 128.23193359 312.06958008 C126.23176127 314.3361504 124.46371877 316.68058866 122.67358398 319.11352539 C120.87498808 320.85319327 119.01244024 322.44665429 117.09936523 324.05883789 C115.19300048 325.67356875 113.32534792 327.31249415 111.46655273 328.98071289 C83.95065981 353.53237322 48.828301 376.32824335 10.48217773 375.35961914 C-1.8537149 374.2787273 -13.01356191 371.03763998 -21.70141602 361.86352539 C-31.65788956 349.7239726 -34.27832397 335.3907443 -32.93237305 320.00024414 C-31.15943261 303.59773387 -25.45254913 288.87858208 -18.32641602 274.11352539 C-18.01285156 273.44981934 -17.69928711 272.78611328 -17.3762207 272.10229492 C-12.53917675 261.96982745 -6.54288611 252.62732819 -0.32641602 243.30102539 C0.05045349 242.73497589 0.427323 242.16892639 0.81561279 241.58572388 C8.55824108 229.99744854 16.88962959 218.93191064 25.67358398 208.11352539 C23.79714341 208.11352539 22.57260795 210.08396213 21.32202148 211.33227539 C20.63495117 212.01805664 19.94788086 212.70383789 19.23999023 213.41040039 C18.15524414 214.50094727 18.15524414 214.50094727 17.04858398 215.61352539 C16.34862305 216.30961914 15.64866211 217.00571289 14.92749023 217.72290039 C10.30281483 222.3561559 5.93445449 227.14583991 1.67358398 232.11352539 C0.59260324 233.35142269 -0.48941144 234.58841795 -1.57250977 235.82446289 C-6.87474131 241.90400632 -12.11892758 248.00089238 -17.11547852 254.33618164 C-24.31063071 263.37461487 -31.71641868 272.25168634 -39.20141602 281.05102539 C-42.91573334 285.41878128 -46.54675432 289.84162538 -50.11157227 294.33227539 C-62.0580383 309.33383416 -74.20459752 324.12106491 -87.32641602 338.11352539 C-87.90520508 338.74645508 -88.48399414 339.37938477 -89.08032227 340.03149414 C-107.59465708 359.56666947 -132.99314774 373.37024647 -159.94360352 375.30102539 C-173.17438604 375.63919236 -185.72586113 372.59169335 -195.70141602 363.48852539 C-207.11344599 351.05416773 -208.20764216 335.69322899 -207.52172852 319.68286133 C-206.68982642 308.73918928 -202.26562963 298.77991568 -197.32641602 289.11352539 C-196.89844727 288.24856445 -196.47047852 287.38360352 -196.02954102 286.49243164 C-191.23702036 277.23159025 -185.18061066 268.72124285 -179.32641602 260.11352539 C-178.00605593 258.16694308 -176.6857455 256.2203271 -175.36547852 254.27368164 C-171.75983667 248.96245773 -168.14680762 243.65629495 -164.53198242 238.35131836 C-160.96005901 233.10769999 -157.39344923 227.860471 -153.82641602 222.61352539 C-152.40977608 220.53017388 -150.99310938 218.44684057 -149.57641602 216.36352539 C-148.87516602 215.33227539 -148.17391602 214.30102539 -147.45141602 213.23852539 C-141.07641602 203.86352539 -141.07641602 203.86352539 -138.94897461 200.73510742 C-137.54023202 198.66331277 -136.13170144 196.59137395 -134.72338867 194.51928711 C-131.44722348 189.6995222 -128.16916574 184.88108593 -124.88311768 180.0680542 C-123.73151933 178.3811025 -122.58062324 176.69367383 -121.42993164 175.00610352 C-119.99511668 172.90229508 -118.55901972 170.79936011 -117.12133789 168.69750977 C-112.72606606 162.2490982 -108.47652505 155.72235998 -104.32641602 149.11352539 C-108.95770451 154.18018619 -113.50841033 159.27503865 -117.82641602 164.61352539 C-120.73454981 168.20830189 -123.71182933 171.69613167 -126.82641602 175.11352539 C-130.64812464 179.31081573 -134.24115791 183.6506277 -137.81079102 188.06274414 C-140.75566756 191.63409287 -143.783648 195.12561331 -146.82641602 198.61352539 C-151.34136597 203.79266773 -155.75879989 209.03188937 -160.08422852 214.37133789 C-162.62895284 217.48352687 -165.22259826 220.55079036 -167.82641602 223.61352539 C-171.95059104 228.46658464 -176.00307406 233.37165832 -180.02172852 238.31274414 C-182.09315477 240.83005367 -184.1937349 243.31722714 -186.31030273 245.79638672 C-191.02919347 251.32439578 -195.59774493 256.94249912 -200.06469727 262.67578125 C-205.16802427 269.21756363 -210.41466738 275.64039714 -215.66040039 282.06811523 C-217.32959239 284.1174251 -218.99296712 286.17131672 -220.65454102 288.22680664 C-227.43877441 296.61540601 -234.3020733 304.92482151 -241.32641602 313.11352539 C-241.84204102 313.71551758 -242.35766602 314.31750977 -242.88891602 314.93774414 C-250.21036022 323.4735625 -257.58213508 331.95644145 -265.32641602 340.11352539 C-265.92325195 340.74436035 -266.52008789 341.37519531 -267.13500977 342.02514648 C-283.5472853 359.2506057 -301.577649 374.28134147 -326.57641602 375.48852539 C-335.98713826 374.54745317 -343.36008065 371.50665521 -349.82641602 364.48461914 C-357.16754649 355.06787142 -358.16428849 342.62828712 -357.32641602 331.11352539 C-354.52456254 311.0769031 -343.942892 296.12289143 -332.32641602 280.11352539 C-331.22456655 278.58769091 -330.12299346 277.0616568 -329.02172852 275.53540039 C-327.42413226 273.32319431 -325.82527731 271.1119565 -324.22241211 268.90356445 C-319.59093166 262.51444627 -315.06977002 256.05138856 -310.55908203 249.57666016 C-306.68459233 244.02532098 -302.74682655 238.52497115 -298.76391602 233.05102539 C-293.72773811 226.12647182 -288.86871463 219.09580892 -284.06274414 212.01000977 C-280.72875925 207.11183366 -277.30200753 202.30341854 -273.76391602 197.55102539 C-249.59066983 166.91765715 -249.59066983 166.91765715 -241.70141602 130.46118164 C-243.13220871 125.57534978 -245.1677247 122.18734071 -249.32641602 119.11352539 C-258.21332637 114.76685835 -267.19396884 115.25879498 -276.47485352 118.08227539 C-286.53983511 121.72221394 -294.3513301 127.05592723 -302.32641602 134.11352539 C-303.15915039 134.82508789 -303.99188477 135.53665039 -304.84985352 136.26977539 C-310.9887362 141.61467009 -316.45739209 147.46363035 -321.87915039 153.51342773 C-323.36130539 155.15209911 -324.863341 156.76998106 -326.37329102 158.38305664 C-331.84949379 164.2360305 -337.09111586 170.17478794 -342.11157227 176.42993164 C-344.45218389 179.2659108 -346.89731811 181.97205385 -349.38891602 184.67602539 C-353.95195728 189.64623033 -358.17352337 194.79936091 -362.32641602 200.11352539 C-363.14625977 201.13833008 -363.96610352 202.16313477 -364.81079102 203.21899414 C-379.25235875 221.29950758 -392.07472924 240.49063803 -404.98678589 259.67219543 C-409.24263258 265.99365875 -413.51724429 272.30221266 -417.79968262 278.60568237 C-419.73123929 281.44891946 -421.6616316 284.2929468 -423.59204102 287.13696289 C-423.97632263 287.70307785 -424.36060425 288.26919281 -424.75653076 288.85246277 C-428.96830782 295.05790558 -433.17480014 301.26692632 -437.38070679 307.47634888 C-438.69419204 309.41536111 -440.00795659 311.35418384 -441.32177734 313.29296875 C-445.42094986 319.34277771 -449.51747298 325.39433876 -453.60565186 331.45158386 C-455.49483816 334.2503241 -457.385455 337.04809653 -459.27618408 339.84579468 C-460.16813288 341.16645976 -461.05939546 342.48758862 -461.94989014 343.80923462 C-462.37046692 344.43341278 -462.7910437 345.05759094 -463.22436523 345.70068359 C-463.63462952 346.31037994 -464.0448938 346.92007629 -464.46759033 347.54824829 C-465.27448406 348.73646509 -466.0895886 349.91915235 -466.91326904 351.09579468 C-468.81155042 353.81044875 -470.52434957 356.48796214 -472.07397461 359.41943359 C-473.92624662 362.67069549 -475.36496397 364.81245605 -478.32641602 367.11352539 C-484.39466422 368.43807266 -490.16155026 368.16022155 -496.32641602 367.80102539 C-497.97599224 367.7457803 -499.62574638 367.69560199 -501.27563477 367.65063477 C-505.29699134 367.53006113 -509.30973096 367.34073503 -513.32641602 367.11352539 C-511.86711114 362.89296779 -509.75488051 359.74177753 -507.09985352 356.16430664 C-502.69553351 350.13046893 -498.52462102 343.96534274 -494.42797852 337.71899414 C-493.82145447 336.79482697 -493.21493042 335.87065979 -492.59002686 334.91848755 C-490.0808082 331.08979218 -487.57664711 327.2578012 -485.07250977 323.42578125 C-478.48797646 313.35739061 -471.85744054 303.35319443 -464.86282349 293.5644989 C-458.24861208 284.2622574 -452.06857224 274.66727877 -445.82641602 265.11352539 C-438.6622046 254.14854685 -431.48130165 243.22515642 -423.86914062 232.56491089 C-417.92937294 224.21159006 -412.31598669 215.64245499 -406.69018555 207.07592773 C-404.83152712 204.24630654 -402.96798143 201.41995243 -401.10375977 198.59399414 C-374.04440148 163.15609252 -374.04440148 163.15609252 -365.07641602 122.23852539 C-366.22445104 119.36843783 -366.85550952 117.89257807 -369.32641602 116.11352539 C-377.47412432 113.39762262 -385.22547551 115.11789358 -392.94750977 118.39086914 C-415.17985477 129.72550977 -432.99920648 150.94203203 -448.32641602 170.11352539 C-450.60960513 172.91218121 -452.90487901 175.70081795 -455.20141602 178.48852539 C-456.10283325 179.58390625 -456.10283325 179.58390625 -457.02246094 180.70141602 C-461.13942545 185.69625858 -465.30054877 190.65101464 -469.49389648 195.58178711 C-472.30880183 198.89619507 -475.08105557 202.24134813 -477.82641602 205.61352539 C-483.3995709 212.45601093 -489.12236348 219.16989615 -494.83911133 225.89233398 C-496.33577547 227.65280554 -497.83111126 229.4143992 -499.32641602 231.17602539 C-499.78322754 231.71211426 -500.24003906 232.24820313 -500.71069336 232.80053711 C-502.54900133 234.96669618 -504.29492711 237.06368862 -505.81469727 239.46899414 C-507.32641602 241.11352539 -507.32641602 241.11352539 -509.80688477 241.50415039 C-510.70020508 241.45774414 -511.59352539 241.41133789 -512.51391602 241.36352539 C-513.4149707 241.32743164 -514.31602539 241.29133789 -515.24438477 241.25415039 C-515.93145508 241.20774414 -516.61852539 241.16133789 -517.32641602 241.11352539 C-515.83146963 237.78040513 -513.91421568 235.22523289 -511.57641602 232.42602539 C-510.77719727 231.4630957 -509.97797852 230.50016602 -509.15454102 229.50805664 C-508.70788086 228.9726123 -508.2612207 228.43716797 -507.80102539 227.88549805 C-504.96162536 224.47351702 -502.14668283 221.04132153 -499.32641602 217.61352539 C-498.10770323 216.13432807 -496.88895391 214.65516083 -495.67016602 213.17602539 C-493.04934401 209.99359867 -490.43493944 206.8060466 -487.82641602 203.61352539 C-486.32671907 201.77994415 -484.82668255 199.94664062 -483.32641602 198.11352539 C-482.81643066 197.49010254 -482.30644531 196.86667969 -481.78100586 196.22436523 C-475.11218711 188.07828869 -468.40158418 179.97831575 -461.52124023 172.00976562 C-458.50163742 168.50651887 -455.5493265 164.95873834 -452.63891602 161.36352539 C-449.03826498 156.9294506 -445.28779265 152.66583396 -441.43969727 148.44555664 C-439.55265065 146.36317803 -437.71583369 144.24849475 -435.88891602 142.11352539 C-420.95788966 125.10306386 -400.98378635 106.93332311 -377.32641602 105.11352539 C-368.79260613 104.70059911 -361.12844398 105.52074684 -354.32641602 111.11352539 C-346.41390808 118.7351323 -344.298743 127.51912162 -344.03491211 138.28051758 C-343.92496372 150.17028537 -346.54087027 159.85920019 -350.32641602 171.11352539 C-349.63418945 170.28852539 -348.94196289 169.46352539 -348.22875977 168.61352539 C-335.31757574 153.33204244 -321.81165171 137.84827517 -306.32641602 125.11352539 C-305.46661133 124.40325195 -304.60680664 123.69297852 -303.72094727 122.96118164 C-289.39272042 111.6494236 -272.11891906 103.09625105 -253.32641602 105.11352539 C-246.70676726 105.95792153 -241.00792084 107.57149937 -235.32641602 111.11352539 C-234.73086914 111.47704102 -234.13532227 111.84055664 -233.52172852 112.21508789 C-225.47630154 118.04355277 -221.43399327 128.54582028 -219.82641602 138.05102539 C-216.70229822 169.53792051 -233.91412119 196.04730855 -252.26000977 220.05493164 C-255.36339675 224.12941973 -258.32607795 228.29368505 -261.26391602 232.48852539 C-266.995364 240.66373016 -272.82735811 248.76250902 -278.68530273 256.84741211 C-281.40289775 260.59997339 -284.11436074 264.35695959 -286.82641602 268.11352539 C-287.90971963 269.61354685 -288.99305297 271.11354685 -290.07641602 272.61352539 C-290.61266602 273.35602539 -291.14891602 274.09852539 -291.70141602 274.86352539 C-296.57641602 281.61352539 -296.57641602 281.61352539 -298.20214844 283.86376953 C-299.28401551 285.36225218 -300.36490966 286.86143774 -301.44482422 288.36132812 C-304.16799868 292.14093831 -306.90758727 295.90639993 -309.68188477 299.64868164 C-328.87418952 324.82255442 -328.87418952 324.82255442 -333.32641602 355.11352539 C-332.05680391 358.97942293 -329.89690972 360.73319625 -326.51391602 362.98852539 C-318.5033583 365.81578106 -311.02018638 363.26595437 -303.59204102 359.85961914 C-296.83940499 356.35931205 -291.0572359 352.09006187 -285.32641602 347.11352539 C-284.4021582 346.31172852 -283.47790039 345.50993164 -282.52563477 344.68383789 C-271.64267155 334.96845086 -261.69594445 324.30713877 -252.59204102 312.91040039 C-249.94707473 309.64523511 -247.20383305 306.47551462 -244.45141602 303.30102539 C-239.96380291 298.10996012 -235.67991722 292.79677907 -231.47802734 287.37304688 C-227.66354832 282.476942 -223.65436598 277.77046188 -219.59375 273.07788086 C-216.13955175 269.08064738 -212.79419089 265.01638881 -209.51782227 260.87133789 C-206.64957433 257.26174245 -203.73768377 253.68845475 -200.82641602 250.11352539 C-197.2618154 245.73540359 -193.70894484 241.35013067 -190.20141602 236.92602539 C-186.70783016 232.54249451 -183.09435779 228.26841989 -179.46264648 223.99951172 C-176.54590949 220.56743415 -173.66929809 217.10737151 -170.82641602 213.61352539 C-166.20088609 207.93449398 -161.47174557 202.34759717 -156.72924805 196.76635742 C-155.35164013 195.14324472 -153.97709844 193.51759499 -152.60375977 191.89086914 C-146.38414208 184.52432394 -140.12330284 177.19408501 -133.8425293 169.87963867 C-131.33540616 166.95910264 -128.83104274 164.03620228 -126.32641602 161.11352539 C-125.32642942 159.94684723 -124.32642942 158.78018057 -123.32641602 157.61352539 C-122.83141602 157.03602539 -122.33641602 156.45852539 -121.82641602 155.86352539 C-117.32641602 150.61352539 -117.32641602 150.61352539 -115.82568359 148.86279297 C-114.82796407 147.69870562 -113.83040488 146.53448083 -112.83300781 145.37011719 C-110.29942858 142.41282652 -107.76291464 139.4581417 -105.22094727 136.50805664 C-100.00803906 130.4532152 -94.84707749 124.36776169 -89.81079102 118.16430664 C-87.85116489 115.7579104 -85.88191861 113.3607566 -83.90454102 110.96899414 C-83.29400879 110.23011963 -82.68347656 109.49124512 -82.05444336 108.72998047 C-80.85776066 107.28245163 -79.66022966 105.83562347 -78.46166992 104.38964844 C-74.31317035 99.36643661 -70.33054567 94.26169208 -66.32641602 89.11352539 C-86.78641602 88.78352539 -107.24641602 88.45352539 -128.32641602 88.11352539 C-126.67641602 84.81352539 -125.02641602 81.51352539 -123.32641602 78.11352539 C-101.21641602 78.11352539 -79.10641602 78.11352539 -56.32641602 78.11352539 C-55.66641602 76.79352539 -55.00641602 75.47352539 -54.32641602 74.11352539 C-53.57527173 73.00326829 -52.79502183 71.91228126 -51.99047852 70.84008789 C-51.27553223 69.87413696 -51.27553223 69.87413696 -50.54614258 68.88867188 C-49.75675293 67.82434937 -49.75675293 67.82434937 -48.95141602 66.73852539 C-42.91908864 58.49808965 -37.21757566 50.06082722 -31.57641602 41.55102539 C-31.15462067 40.91494354 -30.73282532 40.27886169 -30.29824829 39.62350464 C-29.875466 38.98591217 -29.45268372 38.3483197 -29.01708984 37.69140625 C-28.16059946 36.39979689 -27.30407274 35.10821162 -26.44750977 33.81665039 C-26.02365494 33.17740128 -25.59980011 32.53815216 -25.1631012 31.87953186 C-20.70005078 25.15609608 -16.17748514 18.47363592 -11.63891602 11.80102539 C-10.91414063 10.73360107 -10.18936523 9.66617676 -9.44262695 8.56640625 C-3.69478134 0.12609712 -3.69478134 0.12609712 0 0 Z M138.85327148 138.37524414 C112.60119674 170.50111239 94.36375601 212.67814802 97.98608398 254.74243164 C99.54125832 267.39210856 102.99046298 281.12000351 112.67358398 290.11352539 C116.62416157 288.79666619 118.13644594 286.25985668 120.54858398 283.05102539 C121.53536051 281.7634125 122.52370419 280.47699944 123.51342773 279.19165039 C124.03018066 278.5194043 124.54693359 277.8471582 125.0793457 277.15454102 C127.16425405 274.48534748 129.32083742 271.87973007 131.48144531 269.27172852 C138.70004266 260.54236255 145.29042924 251.46683763 151.67358398 242.11352539 C152.10767578 241.48091797 152.54176758 240.84831055 152.98901367 240.1965332 C190.35919492 188.6914279 190.35919492 188.6914279 201.24780273 128.61352539 C199.65058198 122.81257639 196.77481815 119.28878339 191.67358398 116.11352539 C172.273183 106.82813611 150.67332341 124.40275014 138.85327148 138.37524414 Z M1354.67358398 167.11352539 C1353.75438148 168.18241375 1352.83365616 169.24999343 1351.91186523 170.31665039 C1345.71751483 177.49092591 1339.62683768 184.7371033 1333.67358398 192.11352539 C1333.02534668 192.91016602 1333.02534668 192.91016602 1332.36401367 193.72290039 C1321.0477142 207.63102321 1310.27545343 221.95619499 1299.86108398 236.55102539 C1299.36350586 237.24244629 1298.86592773 237.93386719 1298.35327148 238.64624023 C1297.8956543 239.29415527 1297.43803711 239.94207031 1296.96655273 240.60961914 C1296.37136841 241.44771118 1296.37136841 241.44771118 1295.76416016 242.30273438 C1294.45061363 244.48374503 1293.56734773 246.73380618 1292.67358398 249.11352539 C1333.45661131 249.94932329 1369.12024509 234.5559115 1398.67358398 207.11352539 C1399.26655273 206.57469727 1399.85952148 206.03586914 1400.47045898 205.48071289 C1417.86291062 188.99929444 1441.09759186 157.87433977 1442.87670898 133.30883789 C1443.10518532 125.23191776 1443.10518532 125.23191776 1439.67358398 118.11352539 C1436.00580045 114.53978758 1432.95313683 113.80654558 1427.98608398 113.61352539 C1399.15588982 114.71554268 1372.03246582 146.38876015 1354.67358398 167.11352539 Z M811.67358398 166.11352539 C810.6997448 167.22544882 809.72432966 168.33599293 808.74780273 169.44555664 C802.84028004 176.17504165 797.10161658 182.98610901 791.61889648 190.06665039 C788.80244932 193.69945905 785.9041929 197.23741475 782.92358398 200.73852539 C765.78527275 221.18518151 750.62861009 243.40362195 736.67358398 266.11352539 C736.09713135 267.04479248 736.09713135 267.04479248 735.5090332 267.99487305 C732.83079383 272.32975533 730.23475461 276.70857762 727.67358398 281.11352539 C727.13942871 282.02908203 726.60527344 282.94463867 726.05493164 283.88793945 C719.8575465 294.56435163 713.73300783 305.22720008 708.92358398 316.61352539 C708.61283936 317.34732422 708.30209473 318.08112305 707.98193359 318.8371582 C703.90184514 328.95177086 701.53546874 339.84830112 705.23608398 350.42602539 C708.02313816 356.58688198 712.24753658 360.23043852 718.36108398 362.98852539 C728.21297514 366.15249813 738.39504906 364.11010039 747.67358398 360.11352539 C756.41510235 355.42674913 763.7897144 349.59879725 770.92358398 342.74633789 C773.38499976 340.38981199 775.90516819 338.14944947 778.48608398 335.92602539 C781.94165855 332.87442986 784.95348732 329.63012929 787.92749023 326.11352539 C789.75975439 324.01482462 791.68676088 322.06602718 793.67358398 320.11352539 C797.55384086 316.27769894 801.12865498 312.25836545 804.67358398 308.11352539 C805.57930592 307.07139955 806.48560201 306.02977255 807.39233398 304.98852539 C813.88270567 297.51044217 820.11548513 289.87616997 826.17260742 282.04418945 C827.79961662 279.95141315 829.44257966 277.8718205 831.08764648 275.79321289 C838.13655297 266.8596392 844.83225595 257.78563532 851.17504883 248.33911133 C853.44113798 244.9735739 855.73228597 241.6252478 858.02075195 238.27490234 C859.9371414 235.46867284 861.85063076 232.66048587 863.76342773 229.85180664 C867.02536488 225.06310963 870.29303936 220.27835831 873.56225586 215.49462891 C875.45850639 212.71642937 877.34971503 209.93485542 879.23999023 207.15258789 C881.29146703 204.1336885 883.35740603 201.12682887 885.45092773 198.13696289 C899.59768385 177.75590409 911.48109632 155.52052974 909.67358398 130.11352539 C908.13048887 124.13513405 904.72706358 120.48251178 899.67358398 117.11352539 C867.18966427 104.24253833 830.30572124 144.2086774 811.67358398 166.11352539 Z M1082.67358398 167.11352539 C1081.75148768 168.18476914 1080.82819719 169.25498554 1079.90405273 170.32446289 C1073.71319776 177.49687925 1067.62452395 184.73997015 1061.67358398 192.11352539 C1061.02534668 192.91016602 1061.02534668 192.91016602 1060.36401367 193.72290039 C1002.3288964 261.20950427 1002.3288964 261.20950427 975.36499023 342.34008789 C976.07218231 348.69586473 978.1912503 354.15439501 982.92358398 358.55102539 C990.29020318 364.04873485 997.60486969 365.06579576 1006.67358398 364.11352539 C1021.34340215 361.40024213 1032.56888909 352.68508757 1043.05639648 342.61352539 C1045.14526987 340.61818365 1047.25264593 338.7524814 1049.48608398 336.92602539 C1052.57297146 334.32146408 1055.11395162 331.39048574 1057.72436523 328.31665039 C1059.9442661 325.80758408 1062.28861901 323.46601732 1064.67358398 321.11352539 C1068.89021442 316.93488262 1072.82882475 312.63226633 1076.67358398 308.11352539 C1077.57643642 307.07377342 1078.48015665 306.03477466 1079.38452148 304.99633789 C1085.89337076 297.49939568 1092.16221924 289.85454255 1098.22436523 281.99243164 C1099.7547812 280.00825352 1101.29244585 278.02980476 1102.82983398 276.05102539 C1115.79901886 259.29422474 1127.64933504 241.80564591 1139.53198242 224.26928711 C1142.24663192 220.26910934 1144.97269668 216.27681149 1147.70092773 212.28588867 C1149.5740527 209.54275654 1151.44056156 206.7952131 1153.30639648 204.04711914 C1155.33626009 201.06045009 1157.38730536 198.09284067 1159.47827148 195.14868164 C1172.51845217 176.59360155 1184.47407156 153.40730051 1181.67358398 130.11352539 C1180.06459003 124.12698924 1176.75993123 120.50442356 1171.67358398 117.11352539 C1138.90867876 104.13120445 1101.36716461 144.93204398 1082.67358398 167.11352539 Z M126.04858398 138.17602539 C124.95425708 139.19893717 123.85920519 140.2210739 122.76342773 141.24243164 C122.23088379 141.7401709 121.69833984 142.23791016 121.1496582 142.75073242 C119.34266902 144.4190443 117.48456139 146.02048535 115.61108398 147.61352539 C108.39489028 153.88259367 101.66449399 160.77056924 95.46655273 168.04321289 C93.34211575 170.49626649 91.13169762 172.86055686 88.92358398 175.23852539 C84.65175952 179.91749803 80.71554075 184.77866579 76.84375 189.79101562 C73.79151387 193.73101979 70.62503331 197.53566295 67.36108398 201.30102539 C60.94318906 208.76603229 55.20044653 216.71769441 49.43334961 224.68920898 C47.73901817 227.0233809 46.02917695 229.34527093 44.31420898 231.66430664 C32.77798315 247.33188759 22.62096373 263.76790075 13.0456543 280.69555664 C11.65021431 283.15470924 10.23614399 285.60257879 8.82202148 288.05102539 C-2.19081657 307.33433696 -13.70492237 329.64375157 -9.92797852 352.52758789 C-8.23403789 358.22538818 -4.1058818 361.78909859 0.67358398 365.11352539 C13.35369842 369.3402302 27.62316001 364.76688484 39.046875 359.12109375 C50.71404766 353.08518275 60.53160395 345.31840819 70.16186523 336.41430664 C72.23321969 334.51690731 74.33804138 332.68681191 76.47045898 330.85961914 C80.78104209 327.09660339 84.71335326 323.04816183 88.61108398 318.86352539 C89.30331055 318.12207275 89.99553711 317.38062012 90.70874023 316.61669922 C100.93064968 307.07677435 100.93064968 307.07677435 105.67358398 295.11352539 C104.31798361 292.83723379 104.31798361 292.83723379 102.48608398 290.55102539 C88.74726133 271.56647045 87.3356398 246.24691604 90.79858398 223.67602539 C95.93391441 193.4328891 108.59713149 165.10697049 127.67358398 141.11352539 C128.86620307 139.53404433 130.05433488 137.95115562 131.23608398 136.36352539 C132.04858398 135.28019206 132.86108398 134.19685872 133.67358398 133.11352539 C130.31916617 133.11352539 128.37302904 135.97117627 126.04858398 138.17602539 Z M991.44702148 432.61352539 C990.4826416 433.01422493 990.4826416 433.01422493 989.4987793 433.42301941 C988.0915148 434.0078459 986.6848649 434.59415289 985.27874756 435.18173218 C981.43444273 436.78793595 977.5857842 438.38358395 973.73608398 439.97680664 C972.92311859 440.31327713 972.1101532 440.64974762 971.27255249 440.99641418 C965.32080987 443.45201281 959.34777752 445.84999602 953.36108398 448.21899414 C952.50794113 448.5566127 951.65479828 448.89423126 950.77580261 449.24208069 C949.92375748 449.57920578 949.07171234 449.91633087 948.19384766 450.26367188 C931.79509515 456.75261344 915.5176363 463.3412093 899.67358398 471.11352539 C898.88032715 471.50056641 898.08707031 471.88760742 897.26977539 472.28637695 C873.78816005 483.8670267 854.81158642 498.41218556 845.36108398 523.61352539 C843.92141383 530.94275525 843.56983601 537.82893671 847.40014648 544.45727539 C850.33246548 548.27108906 854.04426578 550.23019259 858.67358398 551.11352539 C879.99360617 552.82925277 898.4021242 543.06016677 914.67358398 530.11352539 C915.52694336 529.45094727 916.38030273 528.78836914 917.25952148 528.10571289 C934.93539323 514.05831922 950.60862169 497.81679763 964.29516602 479.89477539 C966.22493593 477.40104508 968.21354381 474.95683132 970.20043945 472.50854492 C975.85093959 465.53570199 981.1780543 458.39818062 986.31713867 451.04223633 C987.85158655 448.86042599 989.40615698 446.69372493 990.96264648 444.52758789 C992.07471055 442.97296112 993.18669091 441.41827446 994.29858398 439.86352539 C994.83225586 439.12376465 995.36592773 438.38400391 995.91577148 437.62182617 C996.65053711 436.58904541 996.65053711 436.58904541 997.40014648 435.53540039 C997.8392334 434.92277344 998.27832031 434.31014648 998.73071289 433.67895508 C999.84556694 432.13256071 999.84556694 432.13256071 999.67358398 430.11352539 C996.61655061 430.11352539 994.26080577 431.43717193 991.44702148 432.61352539 Z " fill="#FFFFFF" transform="translate(2220.326416015625,562.886474609375)"/>
<path d="M0 0 C0.66 2.97 1.32 5.94 2 9 C1.07590332 9.30591064 0.15180664 9.61182129 -0.80029297 9.92700195 C-20.57689169 16.49518359 -39.99342503 23.40661887 -59 32 C-59.91346191 32.40927734 -60.82692383 32.81855469 -61.76806641 33.24023438 C-90.60876429 46.24918544 -118.46329081 62.94771166 -143 83 C-143.91910156 83.72960937 -144.83820313 84.45921875 -145.78515625 85.2109375 C-151.79804747 90.03139882 -157.50338168 95.12397663 -163.14453125 100.3671875 C-165.66303899 102.68931365 -168.22307741 104.94538536 -170.8125 107.1875 C-174.21762493 110.20207296 -177.22391699 113.37223406 -180.15234375 116.84765625 C-181.43975935 118.34737294 -182.76922659 119.81156933 -184.12890625 121.24609375 C-196.5695001 134.38352482 -207.21956279 149.19781206 -216 165 C-216.3407959 165.59554687 -216.6815918 166.19109375 -217.03271484 166.8046875 C-225.53897016 181.67169163 -231.4723065 197.23397284 -235 214 C-235.19207031 214.89332031 -235.38414063 215.78664063 -235.58203125 216.70703125 C-238.05969167 236.22729045 -236.77371416 255.64225778 -225 272 C-210.49380749 289.88687297 -186.00199612 295.44881741 -164.125 297.75 C-162.08498458 297.86697991 -160.04262424 297.94492338 -158 298 C-157.26185059 298.02046387 -156.52370117 298.04092773 -155.76318359 298.06201172 C-140.75241624 298.41655063 -125.93863636 297.40951751 -111 296 C-111.27714844 295.26394531 -111.55429688 294.52789063 -111.83984375 293.76953125 C-112.20207031 292.79371094 -112.56429688 291.81789063 -112.9375 290.8125 C-113.29714844 289.84957031 -113.65679688 288.88664062 -114.02734375 287.89453125 C-121.45879645 265.77924429 -112.94941021 240.23075763 -103.26171875 220.2421875 C-92.179453 198.0959315 -77.73362148 179.17307279 -61 161 C-60.17757813 160.07445312 -59.35515625 159.14890625 -58.5078125 158.1953125 C-54.2956972 153.47108592 -50.08596033 148.99627731 -45.23828125 144.92578125 C-42.93739037 142.94613168 -40.72935015 140.88164501 -38.52197266 138.79882812 C-31.35496517 132.05890884 -23.87030525 125.89875404 -16 120 C-15.31808594 119.48824219 -14.63617187 118.97648437 -13.93359375 118.44921875 C24.51824087 89.76736026 67.49419691 67.56662023 115 59 C116.08885498 58.80301514 116.08885498 58.80301514 117.19970703 58.60205078 C137.45002092 55.11702211 164.05650433 53.95501372 182.1328125 65.34375 C184.1827643 66.80911479 186.09417321 68.35225392 188 70 C188.61875 70.52464844 189.2375 71.04929687 189.875 71.58984375 C198.20829008 79.22270643 201.4027421 88.92635306 202.21875 99.95703125 C203.02578136 127.22796607 189.93119538 151.49358735 171.82080078 171.07080078 C162.13251918 181.3358586 152.31655205 191.51625541 141 200 C140.3292041 200.50950195 139.6584082 201.01900391 138.96728516 201.54394531 C119.88434812 216.01383276 99.87586161 228.27980527 79 240 C78.17838379 240.4626123 77.35676758 240.92522461 76.51025391 241.40185547 C29.46414516 267.6570493 -23.65372603 286.87321476 -76 299 C-76 303.93287964 -72.90840957 306.96542243 -69.75 310.5625 C-51.9328247 326.35499629 -26.85647171 326.39877142 -4.375 327.1875 C-2.28902148 327.26914077 -0.20308322 327.35181726 1.8828125 327.43554688 C6.92149233 327.6355967 11.96050286 327.82177778 17 328 C16.67 331.3 16.34 334.6 16 338 C15.13125244 338.01981934 14.26250488 338.03963867 13.36743164 338.06005859 C-61.04366036 339.83396806 -132.44360889 354.41437494 -186.19921875 410.01171875 C-189.50873408 413.6658257 -192.62788048 417.45525111 -195.67822266 421.32763672 C-196.60945146 422.50586304 -197.54725292 423.67890931 -198.48974609 424.84814453 C-207.17426878 435.63622186 -214.45015208 446.80136933 -221 459 C-221.36963867 459.68416992 -221.73927734 460.36833984 -222.12011719 461.07324219 C-239.94947006 494.41495369 -253.37484829 536.27705162 -243 574 C-238.16019893 588.63954013 -230.05361436 599.86726627 -216.4765625 607.36328125 C-177.68924091 625.62382928 -126.54598694 614.09857001 -88.203125 600.6796875 C-59.40827312 590.15668037 -31.81538396 576.0305758 -7 558 C-6.45021484 557.60184082 -5.90042969 557.20368164 -5.33398438 556.79345703 C16.76723179 540.70328592 38.53800753 521.84091547 54.76464844 499.68408203 C56.00519748 497.99291458 57.27047188 496.32254115 58.5390625 494.65234375 C77.98008414 468.67728053 91.7410229 436.91968504 89 404 C86.94951787 392.48933894 81.9364842 383.36176862 72.40625 376.5 C56.23610853 366.41991181 36.32567093 368.00378713 18.5 372.0625 C-8.26823474 378.6382283 -30.33716017 394.24380408 -50 413 C-50.72960938 413.68835938 -51.45921875 414.37671875 -52.2109375 415.0859375 C-76.29953276 438.41283804 -93.51323408 469.67585547 -107 500 C-109.97 499.34 -112.94 498.68 -116 498 C-115.39473176 494.33606047 -114.37436731 491.32026945 -112.77734375 487.97265625 C-112.32560791 487.02285889 -111.87387207 486.07306152 -111.40844727 485.09448242 C-110.92303467 484.09392822 -110.43762207 483.09337402 -109.9375 482.0625 C-109.43726318 481.02778564 -108.93702637 479.99307129 -108.42163086 478.92700195 C-97.5410146 456.62339538 -83.92764047 435.52056884 -67.0625 417.25 C-65.24942906 415.27210442 -63.52960986 413.24803183 -61.8125 411.1875 C-36.66019958 382.50809538 -0.28486622 361.83883663 38 359 C57.23891327 357.80158049 75.03311296 361.447127 90 374 C99.53750039 382.94477438 104.80919228 395.45026072 105.43359375 408.47265625 C105.45701903 410.3357907 105.45773441 412.19932817 105.4375 414.0625 C105.42614014 415.55740967 105.42614014 415.55740967 105.41455078 417.08251953 C105.20963469 426.43835999 103.67303079 435.05483447 101 444 C100.79632812 444.69754395 100.59265625 445.39508789 100.3828125 446.11376953 C95.41901899 462.6559178 87.08272256 478.02709315 77 492 C76.30390625 492.969375 75.6078125 493.93875 74.890625 494.9375 C67.75960212 504.64782903 60.16578366 514.16303439 51.47265625 522.52734375 C49.76334088 524.18614742 49.76334088 524.18614742 47.5625 527 C45.00220406 529.99741964 42.33095779 532.42855909 39.3359375 534.97265625 C36.67230037 537.28440821 34.12736524 539.70418883 31.5625 542.125 C14.38435472 558.0379385 -5.66537128 571.46706243 -26 583 C-27.2689209 583.72654785 -27.2689209 583.72654785 -28.56347656 584.46777344 C-86.93302445 617.69037075 -161.24347606 638.2457884 -228 620 C-248.95657126 613.7889731 -267.35654427 603.12009867 -278.84375 583.91796875 C-285.34799646 571.86030847 -288.51029864 558.69034684 -289 545 C-289.03996094 544.18144531 -289.07992188 543.36289062 -289.12109375 542.51953125 C-290.2571156 498.34832863 -267.55276706 457.01619242 -237.8671875 425.75390625 C-236.26693432 424.14326181 -234.64103282 422.56881133 -233 421 C-230.57648283 418.59609057 -228.17261219 416.18094945 -225.81640625 413.7109375 C-219.07224841 406.72132504 -211.76337779 400.81031341 -204 395 C-203.4539209 394.58782227 -202.9078418 394.17564453 -202.34521484 393.75097656 C-157.50086208 360.09398123 -104.99853715 341.03547396 -50 332 C-50.67353516 331.82984375 -51.34707031 331.6596875 -52.04101562 331.484375 C-91.22445285 321.44144903 -91.22445285 321.44144903 -101.1875 308.0625 C-105.5964803 304.82924778 -109.65169191 306.0272943 -114.89355469 306.7265625 C-151.78941876 311.51601171 -195.26487976 311.49693076 -226.84765625 288.96875 C-240.8210769 278.05141447 -248.7901983 264.44057102 -252 247 C-252.41606702 242.4694176 -252.47758815 237.98513714 -252.4375 233.4375 C-252.42920166 232.21168213 -252.42090332 230.98586426 -252.41235352 229.72290039 C-251.73454002 192.94006059 -232.50923038 157.43522512 -209 130 C-208.19691406 129.02675781 -207.39382813 128.05351562 -206.56640625 127.05078125 C-197.75196084 116.40379051 -188.62047434 105.50575352 -177.96484375 96.65234375 C-175.52316212 94.59900114 -173.21073022 92.42300881 -170.875 90.25 C-125.04579109 48.56993758 -67.40344963 21.10654892 -8.98046875 2.16796875 C-7.96242409 1.83619881 -7.96242409 1.83619881 -6.92381287 1.49772644 C-2.24013175 0 -2.24013175 0 0 0 Z M15 120 C14.40219727 120.47920898 13.80439453 120.95841797 13.18847656 121.45214844 C4.14881517 128.79022651 -4.12564525 136.92417736 -12.375 145.125 C-12.88555939 145.63020172 -13.39611877 146.13540344 -13.92214966 146.65591431 C-20.75065909 153.42997496 -27.04590185 160.42830567 -33 168 C-33.48629883 168.60666504 -33.97259766 169.21333008 -34.47363281 169.83837891 C-53.7812986 193.98435434 -70.17038518 221.94286685 -78 252 C-78.17644043 252.66773438 -78.35288086 253.33546875 -78.53466797 254.0234375 C-81.55368099 265.94390121 -81.32917494 277.79182991 -81 290 C-32.93777976 279.92243769 13.23624561 260.90505364 57 239 C57.9502002 238.52884766 58.90040039 238.05769531 59.87939453 237.57226562 C89.05080072 223.04752403 116.50099377 205.17668794 140.58984375 183.1875 C142.92581254 181.06733383 145.30326875 179.0030269 147.6875 176.9375 C166.87400079 159.78998274 184.68101303 133.82862065 186.203125 107.484375 C186.36733989 94.40192171 184.44985604 85.88808287 175.40625 76.3125 C165.49006783 66.95761116 151.06919308 65.50990244 138.0078125 65.75390625 C91.89233958 68.10530403 50.25243238 91.69043958 15 120 Z " fill="#FFFFFF" transform="translate(1598,312)"/>
</svg>
