<?xml version="1.0" encoding="UTF-8"?>
<svg id="Layer_1" xmlns="http://www.w3.org/2000/svg" viewBox="0 0 1200 300">
  <defs>
    <style>
      .cls-1 {
        fill: #4c531f;
      }
    </style>
  </defs>
  <path class="cls-1" d="M296.02,77.74c-18.4,3.18-41.57,15.57-57.67,34.5,4.78,7.43,7.61,16.98,7.61,28.48,0,42.63-39.62,84.56-84.02,84.56-9.2,0-17.34-2.3-25.3-5.66-13.62,3.89-28.66,5.66-45.11,5.66s-32.2-3.54-32.2-13.8c0-7.61,8.31-12.91,23.17-12.91,20.87,0,36.26,11.14,53.07,18.57,28.66-9.91,47.05-31.49,69.17-66.69,9.55-15.39,19.28-27.95,28.66-37.86-9.38-14.86-26.53-21.58-44.93-21.58-41.22,0-75.18,29.54-75.18,57.49,0,9.91,5.13,17.16,17.16,17.16,27.59,0,44.22-26.53,46.88-47.58h1.95c-3.01,22.47-19.81,49.53-49.53,49.53-12.56,0-22.11-5.48-22.11-19.46,0-28.3,38.03-59.08,80.84-59.08,19.81,0,37.68,6.54,48.12,20.52,20.17-19.81,40.86-30.43,59.44-33.61v1.77ZM132.92,218.02c-16.27-7.43-31.49-17.51-50.42-17.51-13.44,0-20.34,4.42-20.34,10.97,0,9.02,14.68,11.85,29.72,11.85,15.92,0,29.36-1.77,41.04-5.31ZM241.18,141.95c0-10.44-2.12-19.1-5.84-26.18-6.54,8.67-12.03,18.57-21.23,35.38-20.7,37.33-44.4,58.02-74.65,67.57,7.08,2.65,14.33,4.6,22.47,4.6,42.45,0,79.25-40.69,79.25-81.37Z"/>
  <path class="cls-1" d="M290.71,193.25c-4.78,5.48-9.91,12.21-14.68,17.69-7.25,8.49-12.56,14.33-19.81,14.33-4.25,0-7.25-3.54-7.25-8.67,0-3.71,1.42-7.43,4.07-10.97l15.74-21.94c5.31-7.43,9.02-12.03,9.02-16.45,0-3.01-.88-4.25-4.95-4.6-1.06,0-1.95-.18-2.65-.35-6.54,8.49-15.57,20.17-24.41,30.96h-2.12c9.73-11.85,17.16-21.58,24.41-31.66-1.77-.88-2.83-2.3-2.83-4.78,0-5.13,3.36-12.38,8.67-12.38,2.12,0,3.18,1.24,3.18,2.65,0,5.31-9.73,5.13-9.73,10.44,0,2.65,1.95,3.01,5.48,3.36,6.55.53,9.91,2.83,9.91,9.2,0,4.6-2.48,9.2-7.25,15.92l-14.68,20.17c-4.6,6.01-6.72,9.91-6.72,12.91,0,2.48,1.24,4.07,3.71,4.07,4.78,0,10.26-5.13,17.16-13.44l13.62-16.45h2.12Z"/>
  <path class="cls-1" d="M343.07,193.25c-15.21,18.57-28.48,32.02-44.4,32.02-7.08,0-13.97-3.71-13.97-11.67,0-3.89,1.59-8.31,4.07-13.27,3.36-6.19,8.67-13.8,14.51-19.81h-.18c-4.95,4.42-9.02,8.84-12.38,12.74h-2.12c6.19-7.61,15.74-16.8,24.94-23.53,9.2-6.72,15.21-8.84,19.64-8.84,6.9,0,9.02,6.9,4.78,15.39-7.08,13.62-23.7,20.87-38.74,20.87h-.35c-1.06,1.77-2.3,3.71-3.36,5.66-2.3,3.89-4.78,8.84-4.78,12.74,0,4.78,3.54,7.43,9.38,7.43,13.97,0,27.77-13.8,40.86-29.72h2.12ZM300.08,195.37c13.8-.18,25.12-5.31,33.79-20.7,4.6-7.78,3.18-12.03-.71-12.03-5.13,0-10.97,5.13-18.4,13.62-6.01,7.08-10.61,12.91-14.68,19.11Z"/>
  <path class="cls-1" d="M323.08,215.89c0-7.08,3.89-12.21,8.31-12.21,2.12,0,3.18,1.24,3.18,2.65,0,5.66-9.2,4.25-9.2,11.5,0,3.18,2.48,5.48,6.72,5.48,5.31,0,12.91-4.25,22.11-15.92,11.67-14.5,13.27-26.36,13.27-36.26,0-2.3-.18-5.31-.35-8.14-6.54,8.84-15.57,19.81-24.06,30.25h-2.12c9.2-11.14,18.57-22.47,25.83-32.55-.18-1.95-.18-3.71-.18-5.48,0-7.78,3.01-13.09,6.9-13.09,2.12,0,3.18,1.24,3.18,3.36,0,4.07-3.36,8.49-8.31,15.57,1.77,15.21,3.18,35.2-6.9,48.29h.35c4.6-3.71,11.14-9.73,16.63-16.1h2.12c-4.95,5.84-10.61,11.67-16.98,16.8-8.84,7.61-20.52,15.21-30.78,15.21-6.54,0-9.73-4.25-9.73-9.38Z"/>
  <path class="cls-1" d="M360.58,215.89c0-7.08,3.89-12.21,8.31-12.21,2.12,0,3.18,1.24,3.18,2.65,0,5.66-9.2,4.25-9.2,11.5,0,3.18,2.48,5.48,6.72,5.48,5.31,0,12.91-4.25,22.11-15.92,11.67-14.5,13.27-26.36,13.27-36.26,0-2.3-.18-5.31-.35-8.14-6.54,8.84-15.57,19.81-24.06,30.25h-2.12c9.2-11.14,18.57-22.47,25.83-32.55-.18-1.95-.18-3.71-.18-5.48,0-7.78,3.01-13.09,6.9-13.09,2.12,0,3.18,1.24,3.18,3.36,0,4.07-3.36,8.49-8.31,15.57,1.77,15.21,3.18,35.2-6.9,48.29h.35c4.6-3.71,11.14-9.73,16.63-16.1h2.12c-4.95,5.84-10.61,11.67-16.98,16.8-8.84,7.61-20.52,15.21-30.78,15.21-6.54,0-9.73-4.25-9.73-9.38Z"/>
  <path class="cls-1" d="M491.12,168.84h-.18c-6.19,6.72-13.62,15.74-20.87,24.41h-2.12c15.39-18.75,23.35-27.07,30.78-36.79h-15.21l1.24-2.12h15.74c1.59-2.12,3.54-4.6,4.6-6.37l8.31-12.38h8.14l-12.74,18.75h20.7l-1.42,2.12h-20.7l-30.78,45.82c-3.54,5.13-6.19,9.73-6.19,14.15,0,3.54,1.95,6.72,6.19,6.72,6.19,0,12.74-4.6,19.81-13.27,4.6-5.31,9.55-11.5,13.8-16.63h2.12c-4.78,5.84-10.08,12.21-14.51,17.69-6.37,7.78-13.62,14.33-22.82,14.33-6.54,0-10.61-4.07-10.61-11.14,0-5.31,2.48-9.55,5.66-14.33l21.05-30.96Z"/>
  <path class="cls-1" d="M574.62,193.25c-9.55,11.67-16.8,16.27-26,16.27-1.06,0-1.95,0-2.83-.18-.71.53-1.24,1.24-1.95,1.95-7.43,7.08-16.63,13.97-26.71,13.97-6.54,0-10.79-4.25-10.79-11.32,0-4.25,1.59-8.67,4.07-13.62,3.36-6.19,8.67-13.8,14.51-19.81h-.18c-4.95,4.42-9.02,8.84-12.38,12.74h-2.12c6.19-7.43,15.74-16.8,24.94-23.53,9.2-6.72,16.1-8.84,21.76-8.84,6.55,0,10.79,4.25,10.79,11.32,0,4.25-1.59,8.67-4.07,13.62-3.89,7.25-8.67,13.8-16.45,22.11h1.42c8.67,0,15.57-4.78,23.88-14.68h2.12ZM540.12,206.7c-3.18-2.83-4.6-7.61-4.6-12.91,0-10.97,6.9-23.17,12.74-28.13h-.18c-3.89,2.48-7.43,6.19-11.67,10.61-8.31,9.73-13.97,17.16-19.28,26.54-2.48,4.42-5.66,10.08-5.66,15.04,0,3.89,1.95,5.66,5.13,5.66,7.08,0,14.33-6.37,20.87-13.8.88-1.06,1.77-2.12,2.65-3.01ZM537.47,193.78c0,5.13,1.24,9.2,3.89,11.68,6.54-7.78,11.14-14.15,15.57-22.11,2.48-4.42,5.66-10.08,5.66-15.21,0-3.71-1.95-5.48-5.13-5.48-9.2,0-19.99,17.87-19.99,31.13Z"/>
  <path class="cls-1" d="M666.07,153.45c-10.79,16.1-17.87,33.08-17.87,47.94s7.25,21.94,21.05,21.94c25.47,0,52.89-20.52,52.89-41.39,0-9.2-4.95-15.92-15.21-15.92-19.1,0-27.95,16.1-31.31,30.07l-2.12-.18c3.54-14.68,13.44-31.84,33.79-31.84,11.5,0,19.1,6.72,19.1,18.22,0,21.23-30.6,42.99-56.78,42.99-18.75,0-31.31-6.37-31.31-23.88,0-15.39,8.31-32.9,20.7-49.53-15.21-4.42-23.17-13.97-23.17-27.6,0-19.46,19.64-41.75,52.89-49.53l.53,1.77c-31.49,7.78-48.65,26.53-48.65,46.88,0,12.38,6.72,21.76,20.17,26.36,25.3-32.55,66.34-60.67,91.28-60.67,11.14,0,16.63,5.48,16.63,12.74,0,26.71-50.42,52.89-87.56,52.89-5.48,0-10.44-.35-15.04-1.24ZM667.66,151.33c4.07.88,8.67,1.24,13.62,1.24,36.44,0,83.32-25.65,83.32-50.77,0-6.9-3.89-10.79-12.56-10.79-24.41,0-61.74,28.13-84.38,60.32Z"/>
  <path class="cls-1" d="M790.6,193.25c-15.21,18.57-28.48,32.02-44.4,32.02-7.08,0-13.97-3.71-13.97-11.67,0-3.89,1.59-8.31,4.07-13.27,3.36-6.19,8.67-13.8,14.51-19.81h-.18c-4.95,4.42-9.02,8.84-12.38,12.74h-2.12c6.19-7.61,15.74-16.8,24.94-23.53,9.2-6.72,15.21-8.84,19.64-8.84,6.9,0,9.02,6.9,4.78,15.39-7.08,13.62-23.7,20.87-38.74,20.87h-.35c-1.06,1.77-2.3,3.71-3.36,5.66-2.3,3.89-4.78,8.84-4.78,12.74,0,4.78,3.54,7.43,9.38,7.43,13.98,0,27.77-13.8,40.86-29.72h2.12ZM747.62,195.37c13.8-.18,25.12-5.31,33.79-20.7,4.6-7.78,3.18-12.03-.71-12.03-5.13,0-10.97,5.13-18.4,13.62-6.01,7.08-10.61,12.91-14.68,19.11Z"/>
  <path class="cls-1" d="M782.64,216.6c0-3.71,1.42-7.43,4.07-10.97l24.94-36.79h-.18c-6.19,6.72-13.62,15.74-20.87,24.41h-2.12c15.39-18.75,29.54-33.96,36.97-45.11l38.56-57.31h8.14l-77.66,115.33c-4.25,6.19-6.72,9.91-6.72,12.91,0,2.48,1.24,4.07,3.71,4.07,4.78,0,10.26-5.13,16.98-13.44,4.6-5.31,9.55-11.32,13.8-16.45h2.12c-4.78,5.48-10.08,12.21-14.68,17.69-7.25,8.49-12.56,14.33-19.81,14.33-4.42,0-7.25-3.54-7.25-8.67Z"/>
  <path class="cls-1" d="M876.75,193.25c-15.21,18.57-28.48,32.02-44.4,32.02-7.08,0-13.97-3.71-13.97-11.67,0-3.89,1.59-8.31,4.07-13.27,3.36-6.19,8.67-13.8,14.51-19.81h-.18c-4.95,4.42-9.02,8.84-12.38,12.74h-2.12c6.19-7.61,15.74-16.8,24.94-23.53,9.2-6.72,15.21-8.84,19.64-8.84,6.9,0,9.02,6.9,4.78,15.39-7.08,13.62-23.7,20.87-38.74,20.87h-.35c-1.06,1.77-2.3,3.71-3.36,5.66-2.3,3.89-4.78,8.84-4.78,12.74,0,4.78,3.54,7.43,9.38,7.43,13.98,0,27.77-13.8,40.86-29.72h2.12ZM833.76,195.37c13.8-.18,25.12-5.31,33.79-20.7,4.6-7.78,3.18-12.03-.71-12.03-5.13,0-10.97,5.13-18.4,13.62-6.01,7.08-10.61,12.91-14.68,19.11Z"/>
  <path class="cls-1" d="M933.7,193.25h2.12c-7.08,9.2-15.57,18.22-27.77,16.27-8.49,8.84-18.57,15.74-27.07,15.74-6.54,0-10.97-4.42-10.97-10.08,0-5.31,2.83-9.38,6.37-14.68l21.4-31.66h-.18c-6.19,6.72-13.62,15.74-20.87,24.41h-2.12c15.39-18.75,29.54-33.96,36.97-45.11l38.56-57.31h8.14l-75.36,111.97c-4.6,6.54-7.78,10.79-7.78,14.86,0,3.18,1.95,5.31,6.54,5.31,10.97,0,23.53-12.03,30.6-20.7,10.97-13.27,12.74-21.58,12.74-26.53,0-6.01-2.83-7.08-2.83-10.79,0-2.3,1.24-4.07,3.36-4.07,2.48,0,4.07,2.48,4.07,7.25,0,9.02-4.6,21.4-15.92,35.2-1.42,1.59-2.65,3.18-4.07,4.6,7.43,1.24,15.04-3.18,24.06-14.68Z"/>
  <path class="cls-1" d="M980.76,193.25c-4.78,5.48-9.91,12.21-14.68,17.69-7.25,8.49-12.56,14.33-19.81,14.33-4.25,0-7.25-3.54-7.25-8.67,0-3.71,1.42-7.43,4.07-10.97l15.74-21.94c5.31-7.43,9.02-12.03,9.02-16.45,0-3.01-.88-4.25-4.95-4.6-1.06,0-1.95-.18-2.65-.35-6.54,8.49-15.57,20.17-24.41,30.96h-2.12c9.73-11.85,17.16-21.58,24.41-31.66-1.77-.88-2.83-2.3-2.83-4.78,0-5.13,3.36-12.38,8.67-12.38,2.12,0,3.18,1.24,3.18,2.65,0,5.31-9.73,5.13-9.73,10.44,0,2.65,1.95,3.01,5.48,3.36,6.55.53,9.91,2.83,9.91,9.2,0,4.6-2.48,9.2-7.25,15.92l-14.68,20.17c-4.6,6.01-6.72,9.91-6.72,12.91,0,2.48,1.24,4.07,3.71,4.07,4.78,0,10.26-5.13,17.16-13.44l13.62-16.45h2.12Z"/>
  <path class="cls-1" d="M974.74,213.95c0-4.25,1.42-8.49,4.07-13.62,3.36-6.19,8.67-13.8,14.51-19.81h-.18c-4.95,4.42-9.02,8.84-12.38,12.74h-2.12c6.19-7.61,15.74-16.8,24.94-23.53,9.2-6.72,15.57-8.84,20.17-8.84,6.19,0,9.2,4.78,6.37,13.09h.18l7.78-11.32h7.25l-29.19,43.16c-4.6,6.54-6.72,10.26-6.72,13.27,0,2.48,1.24,4.07,3.71,4.07,4.78,0,10.08-5.13,16.98-13.44,4.42-5.31,9.55-11.5,13.8-16.45h2.12c-4.78,5.48-10.08,12.21-14.68,17.69-7.25,8.49-12.56,14.33-19.81,14.33-4.6,0-6.9-3.36-6.9-8.84,0-2.3.71-4.6,2.48-7.61h-.18c-2.83,3.18-6.72,7.61-10.08,10.61-4.42,3.89-8.31,5.84-12.03,5.84-5.84,0-10.08-4.25-10.08-11.32ZM995.62,218.19c6.01-5.48,14.33-15.21,20.52-24.41l7.96-11.67c5.66-8.31,8.49-19.1,0-19.1-6.72,0-13.62,6.72-19.28,13.27-8.31,9.73-13.8,17.16-19.28,26.54-1.77,3.01-4.78,8.31-5.48,11.5-1.42,5.48,1.42,8.67,5.48,8.67,3.54,0,6.54-1.59,10.08-4.78Z"/>
  <path class="cls-1" d="M1067.08,168.84h-.18c-6.19,6.72-13.62,15.74-20.87,24.41h-2.12c15.39-18.75,23.35-27.07,30.78-36.79h-15.21l1.24-2.12h15.74c1.59-2.12,3.54-4.6,4.6-6.37l8.31-12.38h8.14l-12.74,18.75h20.7l-1.42,2.12h-20.7l-30.78,45.82c-3.54,5.13-6.19,9.73-6.19,14.15,0,3.54,1.95,6.72,6.19,6.72,6.19,0,12.74-4.6,19.81-13.27,4.6-5.31,9.55-11.5,13.8-16.63h2.12c-4.78,5.84-10.08,12.21-14.51,17.69-6.37,7.78-13.62,14.33-22.82,14.33-6.54,0-10.61-4.07-10.61-11.14,0-5.31,2.48-9.55,5.66-14.33l21.05-30.96Z"/>
  <path class="cls-1" d="M1140.67,193.25c-15.21,18.57-28.48,32.02-44.4,32.02-7.08,0-13.97-3.71-13.97-11.67,0-3.89,1.59-8.31,4.07-13.27,3.36-6.19,8.67-13.8,14.51-19.81h-.18c-4.95,4.42-9.02,8.84-12.38,12.74h-2.12c6.19-7.61,15.74-16.8,24.94-23.53,9.2-6.72,15.21-8.84,19.64-8.84,6.9,0,9.02,6.9,4.78,15.39-7.08,13.62-23.7,20.87-38.74,20.87h-.35c-1.06,1.77-2.3,3.71-3.36,5.66-2.3,3.89-4.78,8.84-4.78,12.74,0,4.78,3.54,7.43,9.38,7.43,13.97,0,27.77-13.8,40.86-29.72h2.12ZM1097.68,195.37c13.8-.18,25.12-5.31,33.79-20.7,4.6-7.78,3.18-12.03-.71-12.03-5.13,0-10.97,5.13-18.4,13.62-6.01,7.08-10.61,12.91-14.68,19.11Z"/>
</svg>