<?xml version="1.0" encoding="UTF-8"?>
<svg id="Layer_1" xmlns="http://www.w3.org/2000/svg" viewBox="0 0 1200 300">
  <defs>
    <style>
      .cls-1 {
        fill: #fff;
      }
    </style>
  </defs>
  <path class="cls-1" d="M302.02,184.58c0-9.73,8.49-17.87,21.23-17.87,10.44,0,18.04,4.07,18.04,8.31,0,1.95-1.41,3.18-2.65,3.18-5.13,0-5.84-9.55-16.98-9.55-9.38,0-15.57,6.54-15.57,15.92s7.61,16.63,22.11,16.63c25.65,0,44.93-24.23,67.75-59.97,21.58-33.61,44.22-52.18,69.17-53.95l-.18,1.77c-23,1.95-38.03,17.16-59.44,52.89-23,38.39-50.06,61.21-77.3,61.21-15.74,0-26.18-7.61-26.18-18.57ZM331.92,106.75c0-21.94,25.83-39.8,61.56-39.8,20.88,0,40.33,5.31,61.38,10.79,35.2,9.2,46.52,10.79,60.32,10.79,15.39,0,26.18-5.48,26.18-17.69,0-1.24-.18-2.48-.35-3.54l1.95-.18c.35.88.53,2.65.53,3.89,0,13.27-9.73,20.52-27.24,20.52-15.57,0-35.73-4.78-62.44-11.85-20.52-5.48-40.33-10.26-58.02-10.26-31.84,0-60.32,17.51-60.32,38.39,0,12.38,8.31,18.4,19.11,18.4,19.28,0,36.97-15.74,44.22-33.96l1.95.53c-7.43,18.93-26.18,35.38-46.52,35.38-12.03,0-22.29-6.37-22.29-21.4Z"/>
  <path class="cls-1" d="M436.11,194.49c0-3.71,1.24-7.43,3.89-10.97l15.74-21.94c3.18-4.78,6.72-9.55,7.78-13.62,1.24-4.6-.88-7.08-4.95-7.08-3.54,0-6.54,1.59-10.26,4.95-4.25,3.89-14.68,15.74-19.99,23.7l-21.76,31.84h-8.14l37.15-54.66h-.18c-6.19,6.72-13.62,15.74-20.87,24.41h-2.12c15.39-18.75,29.54-33.96,36.97-45.11l38.56-57.31h8.14l-55.9,82.79h.18c2.48-2.65,4.78-5.31,6.72-6.9,4.42-4.07,8.31-5.84,12.74-5.84,4.78,0,8.84,3.01,8.84,10.08,0,4.95-2.65,9.91-6.19,15.04l-14.68,20.17c-4.42,6.01-6.54,9.91-6.54,12.91,0,2.48,1.06,4.07,3.54,4.07,4.78,0,10.26-5.13,16.98-13.44,4.6-5.31,9.55-11.32,13.8-16.45h2.12c-4.6,5.48-10.08,12.21-14.5,17.69-7.43,8.49-12.74,14.33-19.81,14.33-4.42,0-7.25-3.54-7.25-8.67Z"/>
  <path class="cls-1" d="M530.04,171.14c-15.21,18.57-28.48,32.02-44.4,32.02-7.07,0-13.97-3.71-13.97-11.67,0-3.89,1.59-8.31,4.07-13.27,3.36-6.19,8.67-13.8,14.51-19.81h-.18c-4.95,4.42-9.02,8.84-12.38,12.74h-2.12c6.19-7.61,15.74-16.8,24.94-23.53,9.2-6.72,15.21-8.84,19.64-8.84,6.9,0,9.02,6.9,4.78,15.39-7.08,13.62-23.7,20.87-38.74,20.87h-.35c-1.06,1.77-2.3,3.71-3.36,5.66-2.3,3.89-4.78,8.84-4.78,12.74,0,4.78,3.54,7.43,9.38,7.43,13.97,0,27.77-13.8,40.86-29.72h2.12ZM487.06,173.26c13.8-.18,25.12-5.31,33.79-20.7,4.6-7.78,3.18-12.03-.71-12.03-5.13,0-10.97,5.13-18.4,13.62-6.01,7.08-10.61,12.91-14.68,19.11Z"/>
  <path class="cls-1" d="M689.42,114.71c-3.18,6.19-6.72,12.91-10.26,20.52-21.4,45.11-45.99,67.93-79.07,67.93-16.8,0-27.42-7.61-27.42-18.57,0-9.73,8.49-17.87,21.23-17.87,10.44,0,18.04,4.07,18.04,8.31,0,1.95-1.42,3.18-2.65,3.18-5.13,0-5.84-9.55-16.98-9.55-9.38,0-15.57,6.54-15.57,15.92s7.78,16.63,23.17,16.63c34.85,0,49-24.06,69.7-66.69,3.01-6.37,6.19-12.21,9.2-17.69-5.66.88-11.5,1.42-16.98,1.42-27.24,0-43.52-9.38-43.52-27.42,0-16.1,17.16-32.37,45.82-38.21l.35,1.95c-27.06,5.66-41.04,20.34-41.04,36.44s14.33,25.3,38.56,25.3c6.01,0,12.03-.53,18.04-1.59,18.57-32.19,36.62-47.76,50.42-47.76,7.08,0,10.61,3.89,10.61,10.08,0,15.39-24.41,30.78-51.65,37.68ZM737.36,77.03c0-5.31-1.77-8.14-6.9-8.14-10.44,0-23.53,13.44-39.8,43.34,25.3-6.72,46.7-21.23,46.7-35.2Z"/>
  <path class="cls-1" d="M705.16,146.73h-.18c-6.19,6.72-13.62,15.74-20.88,24.41h-2.12c15.39-18.75,23.35-27.07,30.78-36.79h-15.21l1.24-2.12h15.74c1.59-2.12,3.54-4.6,4.6-6.37l8.31-12.38h8.14l-12.74,18.75h20.7l-1.42,2.12h-20.7l-30.78,45.82c-3.54,5.13-6.19,9.73-6.19,14.15,0,3.54,1.95,6.72,6.19,6.72,6.19,0,12.74-4.6,19.81-13.27,4.6-5.31,9.55-11.5,13.8-16.63h2.12c-4.78,5.84-10.08,12.21-14.51,17.69-6.37,7.78-13.62,14.33-22.82,14.33-6.54,0-10.61-4.07-10.61-11.14,0-5.31,2.48-9.55,5.66-14.33l21.05-30.96Z"/>
  <path class="cls-1" d="M788.66,171.14c-9.55,11.67-16.8,16.27-26,16.27-1.06,0-1.95,0-2.83-.18-.71.53-1.24,1.24-1.95,1.95-7.43,7.08-16.63,13.97-26.71,13.97-6.54,0-10.79-4.25-10.79-11.32,0-4.25,1.59-8.67,4.07-13.62,3.36-6.19,8.67-13.8,14.51-19.81h-.18c-4.95,4.42-9.02,8.84-12.38,12.74h-2.12c6.19-7.43,15.74-16.8,24.94-23.53,9.2-6.72,16.1-8.84,21.76-8.84,6.54,0,10.79,4.25,10.79,11.32,0,4.25-1.59,8.67-4.07,13.62-3.89,7.25-8.67,13.8-16.45,22.11h1.41c8.67,0,15.57-4.78,23.88-14.68h2.12ZM754.16,184.58c-3.19-2.83-4.6-7.61-4.6-12.91,0-10.97,6.9-23.17,12.74-28.13h-.18c-3.89,2.48-7.43,6.19-11.67,10.61-8.31,9.73-13.97,17.16-19.28,26.54-2.48,4.42-5.66,10.08-5.66,15.04,0,3.89,1.95,5.66,5.13,5.66,7.08,0,14.33-6.37,20.87-13.8.88-1.06,1.77-2.12,2.65-3.01ZM751.51,171.67c0,5.13,1.24,9.2,3.89,11.68,6.54-7.78,11.14-14.15,15.57-22.11,2.48-4.42,5.66-10.08,5.66-15.21,0-3.71-1.95-5.48-5.13-5.48-9.2,0-19.99,17.87-19.99,31.13Z"/>
  <path class="cls-1" d="M833.59,171.14c-4.78,5.48-9.91,12.21-14.68,17.69-7.25,8.49-12.56,14.33-19.81,14.33-4.25,0-7.25-3.54-7.25-8.67,0-3.71,1.42-7.43,4.07-10.97l15.74-21.94c5.31-7.43,9.02-12.03,9.02-16.45,0-3.01-.88-4.25-4.95-4.6-1.06,0-1.95-.18-2.65-.35-6.54,8.49-15.57,20.17-24.41,30.96h-2.12c9.73-11.85,17.16-21.58,24.41-31.66-1.77-.88-2.83-2.3-2.83-4.78,0-5.13,3.36-12.38,8.67-12.38,2.12,0,3.18,1.24,3.18,2.65,0,5.31-9.73,5.13-9.73,10.44,0,2.65,1.95,3.01,5.48,3.36,6.55.53,9.91,2.83,9.91,9.2,0,4.6-2.48,9.2-7.25,15.92l-14.68,20.17c-4.6,6.01-6.72,9.91-6.72,12.91,0,2.48,1.24,4.07,3.71,4.07,4.78,0,10.26-5.13,17.16-13.44l13.62-16.45h2.12Z"/>
  <path class="cls-1" d="M897.98,171.14c-19.81,24.06-35.73,33.96-48.65,40.33-7.61,11.14-14.33,20.52-22.11,26.89-5.31,4.42-14.68,9.02-22.11,9.02-4.6,0-8.31-2.65-8.31-6.9,0-1.77.53-3.71,1.42-5.31,5.66-9.91,24.77-14.15,41.75-21.76l16.98-24.77h-.18c-2.48,2.83-5.66,6.37-8.14,8.67-4.42,4.07-8.14,5.84-12.74,5.84s-8.84-3.01-8.84-10.08c0-4.95,2.83-9.91,6.19-15.04l19.1-27.77h-.18c-6.02,6.01-12.91,13.97-18.57,20.87h-2.12c9.73-12.03,18.22-20.87,26.53-30.6h8.67l-26.71,39.98c-3.18,4.6-6.72,9.38-7.78,13.44-1.24,4.6,1.06,7.08,4.95,7.08s6.72-1.59,10.26-4.95c4.25-3.89,14.68-15.74,20.17-23.7l21.58-31.84h8.14l-45.99,68.1c11.85-6.01,26.89-15.92,44.58-37.5h2.12ZM838.36,215.89c-13.97,6.54-30.07,10.44-35.91,18.75-1.24,1.95-2.3,4.42-2.3,6.72,0,2.83,1.95,4.42,5.13,4.42,7.25,0,15.04-7.25,20.34-13.09,4.25-4.78,8.49-10.44,12.74-16.8Z"/>
</svg>