<?xml version="1.0" encoding="UTF-8"?>
<svg id="Layer_1" xmlns="http://www.w3.org/2000/svg" viewBox="0 0 1200 300">
  <path d="M271.35,163.97h2.12c-18.75,23-34.32,30.6-55.01,33.79-23.17,26.89-43.87,42.46-61.74,42.46-15.39,0-20.34-11.68-13.27-24.06,7.78-13.62,27.95-16.98,50.95-18.04,6.9-.35,13.09-.71,18.75-1.42,9.91-12.56,20.34-27.77,31.66-45.82h-.35c-12.38,15.21-28.13,31.84-44.05,31.84-7.96,0-14.51-5.66-14.51-15.74,0-11.32,8.31-24.41,18.22-39.09l8.14-12.21c12.38-18.4,18.4-28.83,18.4-37.86,0-10.44-8.14-16.1-24.24-16.1-33.08,0-62.97,23.53-62.97,49.53,0,9.91,5.13,16.98,17.16,16.98,22.29,0,36.79-18.22,40.33-40.33h2.12c-3.01,20.34-17.34,42.46-43.16,42.46-14.33,0-22.11-6.9-22.11-19.46,0-26.89,36.79-51.12,68.63-51.12,18.75,0,30.96,8.14,30.96,21.76,0,8.31-3.71,17.34-15.57,34.85l-11.32,16.8c-10.61,15.74-18.22,28.13-18.22,38.39,0,5.84,3.89,9.02,9.02,9.02,18.04,0,40.86-27.42,57.84-52.71l44.4-66.33h10.08l-53.42,79.96c-13.97,20.87-27.24,39.27-39.98,54.13,19.64-3.36,34.14-11.14,51.12-31.66ZM211.56,198.82c-5.31.53-10.97.88-17.16,1.24-22.82,1.24-41.04,4.95-47.76,17.51-6.9,12.74-.53,20.52,10.08,20.52,16.1,0,33.96-13.27,54.84-39.27Z"/>
  <path d="M335.73,163.97c-9.55,11.67-16.8,16.27-26,16.27-1.06,0-1.95,0-2.83-.18-.71.53-1.24,1.24-1.95,1.95-7.43,7.08-16.63,13.97-26.71,13.97-6.54,0-10.79-4.25-10.79-11.32,0-4.25,1.59-8.67,4.07-13.62,3.36-6.19,8.67-13.8,14.51-19.81h-.18c-4.95,4.42-9.02,8.84-12.38,12.74h-2.12c6.19-7.43,15.74-16.8,24.94-23.53,9.2-6.72,16.1-8.84,21.76-8.84,6.55,0,10.79,4.25,10.79,11.32,0,4.25-1.59,8.67-4.07,13.62-3.89,7.25-8.67,13.8-16.45,22.11h1.42c8.67,0,15.57-4.78,23.88-14.68h2.12ZM301.24,177.42c-3.18-2.83-4.6-7.61-4.6-12.91,0-10.97,6.9-23.17,12.74-28.13h-.18c-3.89,2.48-7.43,6.19-11.67,10.61-8.31,9.73-13.97,17.16-19.28,26.54-2.48,4.42-5.66,10.08-5.66,15.04,0,3.89,1.95,5.66,5.13,5.66,7.08,0,14.33-6.37,20.87-13.8.88-1.06,1.77-2.12,2.65-3.01ZM298.59,164.5c0,5.13,1.24,9.2,3.89,11.68,6.54-7.78,11.14-14.15,15.57-22.11,2.48-4.42,5.66-10.08,5.66-15.21,0-3.71-1.95-5.48-5.13-5.48-9.2,0-19.99,17.87-19.99,31.13Z"/>
  <path d="M329.19,185.91c0-4.95,2.83-9.91,6.19-15.04l19.1-27.77h-.18c-6.01,6.01-12.91,13.97-18.57,20.87h-2.12c9.73-12.03,18.22-20.87,26.53-30.6h8.67l-26.71,39.98c-3.18,4.6-6.72,9.38-7.78,13.44-1.24,4.6,1.06,7.08,4.95,7.08s6.72-1.59,10.26-4.95c4.25-3.89,14.68-15.74,20.17-23.7l21.58-31.84h8.14l-29.01,43.16c-4.42,6.54-7.08,10.79-7.08,14.15,0,1.95,1.06,3.36,3.54,3.36,4.95,0,10.79-5.48,17.51-13.62l13.62-16.45h2.12c-4.78,5.48-9.91,12.21-14.68,17.69-6.54,7.78-12.74,14.33-19.63,14.33-4.95,0-6.72-3.54-6.72-8.49,0-2.83.71-5.48,2.48-9.02h-.18c-3.01,3.71-7.25,8.67-10.61,11.68-4.42,4.07-8.14,5.84-12.74,5.84s-8.84-3.01-8.84-10.08Z"/>
  <path d="M406.85,120.28l-.53-1.42c7.25-3.18,13.09-7.61,13.09-12.21,0-6.9-7.43-6.9-7.43-10.79,0-1.42,1.24-3.89,4.07-3.89,3.18,0,7.43,3.89,7.43,9.91,0,8.49-7.43,14.33-16.63,18.4Z"/>
  <path d="M449.48,163.97c-4.78,5.48-9.91,12.21-14.68,17.69-7.25,8.49-12.56,14.33-19.81,14.33-4.25,0-7.25-3.54-7.25-8.67,0-3.71,1.42-7.43,4.07-10.97l15.74-21.94c5.31-7.43,9.02-12.03,9.02-16.45,0-3.01-.88-4.25-4.95-4.6-1.06,0-1.95-.18-2.65-.35-6.54,8.49-15.57,20.17-24.41,30.96h-2.12c9.73-11.85,17.16-21.58,24.41-31.66-1.77-.88-2.83-2.3-2.83-4.78,0-5.13,3.36-12.38,8.67-12.38,2.12,0,3.18,1.24,3.18,2.65,0,5.31-9.73,5.13-9.73,10.44,0,2.65,1.95,3.01,5.48,3.36,6.55.53,9.91,2.83,9.91,9.2,0,4.6-2.48,9.2-7.25,15.92l-14.68,20.17c-4.6,6.01-6.72,9.91-6.72,12.91,0,2.48,1.24,4.07,3.71,4.07,4.78,0,10.26-5.13,17.16-13.44l13.62-16.45h2.12Z"/>
  <path d="M501.84,163.97c-15.21,18.57-28.48,32.02-44.4,32.02-7.08,0-13.97-3.71-13.97-11.67,0-3.89,1.59-8.31,4.07-13.27,3.36-6.19,8.67-13.8,14.51-19.81h-.18c-4.95,4.42-9.02,8.84-12.38,12.74h-2.12c6.19-7.61,15.74-16.8,24.94-23.53,9.2-6.72,15.21-8.84,19.64-8.84,6.9,0,9.02,6.9,4.78,15.39-7.08,13.62-23.7,20.87-38.74,20.87h-.35c-1.06,1.77-2.3,3.71-3.36,5.66-2.3,3.89-4.78,8.84-4.78,12.74,0,4.78,3.54,7.43,9.38,7.43,13.97,0,27.77-13.8,40.86-29.72h2.12ZM458.85,166.1c13.8-.18,25.12-5.31,33.79-20.7,4.6-7.78,3.18-12.03-.71-12.03-5.13,0-10.97,5.13-18.4,13.62-6.01,7.08-10.61,12.91-14.68,19.11Z"/>
  <path d="M545.88,175.83c0-7.08,3.71-12.74,8.31-12.74,2.12,0,3.18,1.24,3.18,2.65,0,5.48-9.02,4.95-9.02,11.32,0,10.08,6.37,16.98,19.99,16.98,24.77,0,45.11-24.41,67.93-59.97,14.68-22.47,26.89-42.1,44.4-58.73l-.18-.18c-12.74,9.38-19.28,11.68-25.3,11.68-7.43,0-12.56-5.13-17.51-12.03-6.37-8.67-10.61-13.09-21.94-13.09-21.93,0-40.33,13.44-40.33,31.84,0,10.61,5.84,17.16,16.98,17.16,13.62,0,25.65-10.26,30.07-21.4l1.77.71c-4.42,11.5-17.51,23-33.08,23-10.44,0-19.81-6.54-19.81-19.28,0-19.46,22.64-33.96,44.4-33.96,17.51,0,23.35,5.66,29.9,14.68,4.78,6.54,7.43,9.91,11.5,9.91,9.55,0,21.76-9.91,41.04-24.59l1.42,1.42c-23.7,18.04-18.4,16.45-53.78,73.59-23,38.39-51.65,61.21-77.48,61.21-14.5,0-22.46-7.96-22.46-20.17Z"/>
  <path d="M703.85,154.42c3.36-4.78,6.9-9.55,7.96-13.62,1.24-4.6-1.06-7.08-5.13-7.08-3.54,0-6.54,1.59-10.26,4.95-4.07,3.89-14.68,15.74-19.99,23.7l-21.58,31.84h-8.14l29.01-43.16c4.25-6.55,6.9-10.79,6.9-14.33,0-1.95-.88-3.36-3.36-3.36-4.95,0-10.79,5.66-17.69,13.97-4.25,5.31-9.55,11.5-13.8,16.63h-2.12c4.78-5.66,10.08-12.38,14.68-17.69,6.72-8.31,13.09-14.68,19.81-14.68,5.13,0,6.9,3.54,6.9,8.49,0,2.83-.71,5.48-2.65,8.84h.18c3.01-3.54,7.43-8.67,10.79-11.5,4.25-4.07,8.14-5.84,12.74-5.84s8.84,3.01,8.84,10.08c0,4.95-2.65,9.91-6.37,15.04l-14.51,20.17c-4.6,6.01-6.72,9.91-6.72,12.91,0,2.48,1.24,4.07,3.71,4.07,4.78,0,10.26-5.13,17.16-13.44,4.42-5.31,9.38-11.32,13.44-16.45h2.12c-4.6,5.48-9.73,12.21-14.51,17.69-7.25,8.49-12.74,14.33-19.81,14.33-4.42,0-7.25-3.54-7.25-8.67,0-3.71,1.42-7.43,4.07-10.97l15.57-21.94Z"/>
  <path d="M797.07,163.97c-8.67,10.61-15.74,16.27-23.53,16.27-1.24,0-2.3-.18-3.18-.53-7.61,7.96-17.69,16.27-27.6,16.27-5.48,0-9.73-3.18-9.73-10.08,0-4.95,2.65-9.91,6.19-15.04l14.68-20.17c4.42-6.01,6.72-9.91,6.72-13.09,0-2.3-1.24-3.89-3.71-3.89-4.78,0-10.44,5.13-17.16,13.27-4.42,5.48-9.38,11.68-13.97,16.98h-2.12c4.95-5.84,10.26-12.56,14.86-18.04,7.43-8.49,12.74-14.33,19.81-14.33,4.42,0,7.25,3.54,7.25,8.67,0,3.71-1.24,7.43-3.89,10.97l-15.92,22.29c-4.78,6.72-7.78,10.97-7.78,15.39,0,2.65,1.95,4.95,6.01,4.95,8.14,0,17.87-7.43,24.77-14.86-3.36-1.95-4.95-6.19-4.95-10.79,0-13.8,14.15-36.62,23.7-36.62,4.42,0,6.01,3.01,6.01,6.9,0,9.91-9.2,24.41-19.1,36.62-.88,1.06-1.77,2.12-2.83,3.18.53.18,1.24.35,2.12.35,7.08,0,13.62-5.66,21.23-14.68h2.12ZM770.01,177.6c1.06-1.24,2.12-2.3,3.01-3.54,10.79-13.09,18.4-25.65,18.4-35.38,0-3.54-1.24-5.31-4.07-5.31-6.9,0-19.99,23.53-19.99,36.97,0,3.36.71,6.01,2.65,7.25Z"/>
  <path d="M789.11,187.33c0-3.71,1.42-7.43,4.07-10.97l22.64-33.26h-.18c-6.01,6.01-12.91,13.97-18.57,20.87h-2.12c9.73-12.03,18.22-20.87,26.53-30.6h8.67l-29.36,43.52c-4.25,6.19-6.54,9.91-6.54,12.91,0,2.48,1.24,4.07,3.71,4.07,4.78,0,10.26-5.13,16.98-13.44,4.6-5.31,9.55-11.32,13.8-16.45h2.12c-4.78,5.48-10.08,12.21-14.68,17.69-7.25,8.49-12.56,14.33-19.81,14.33-4.42,0-7.25-3.54-7.25-8.67ZM840.76,100.47c0-2.83,2.3-5.31,5.31-5.31,2.83,0,5.13,2.48,5.13,5.31,0,3.01-2.3,5.13-5.13,5.13-3.01,0-5.31-2.12-5.31-5.13Z"/>
  <path d="M851.91,139.56h-.18c-6.19,6.72-13.62,15.74-20.87,24.41h-2.12c15.39-18.75,23.35-27.07,30.78-36.79h-15.21l1.24-2.12h15.74c1.59-2.12,3.54-4.6,4.6-6.37l8.31-12.38h8.14l-12.74,18.75h20.7l-1.42,2.12h-20.7l-30.78,45.82c-3.54,5.13-6.19,9.73-6.19,14.15,0,3.54,1.95,6.72,6.19,6.72,6.19,0,12.74-4.6,19.81-13.27,4.6-5.31,9.55-11.5,13.8-16.63h2.12c-4.78,5.84-10.08,12.21-14.51,17.69-6.37,7.78-13.62,14.33-22.82,14.33-6.54,0-10.61-4.07-10.61-11.14,0-5.31,2.48-9.55,5.66-14.33l21.05-30.96Z"/>
  <path d="M925.5,163.97c-15.21,18.57-28.48,32.02-44.4,32.02-7.08,0-13.97-3.71-13.97-11.67,0-3.89,1.59-8.31,4.07-13.27,3.36-6.19,8.67-13.8,14.51-19.81h-.18c-4.95,4.42-9.02,8.84-12.38,12.74h-2.12c6.19-7.61,15.74-16.8,24.94-23.53,9.2-6.72,15.21-8.84,19.64-8.84,6.9,0,9.02,6.9,4.78,15.39-7.08,13.62-23.7,20.87-38.74,20.87h-.35c-1.06,1.77-2.3,3.71-3.36,5.66-2.3,3.89-4.78,8.84-4.78,12.74,0,4.78,3.54,7.43,9.38,7.43,13.97,0,27.77-13.8,40.86-29.72h2.12ZM882.51,166.1c13.8-.18,25.12-5.31,33.79-20.7,4.6-7.78,3.18-12.03-.71-12.03-5.13,0-10.97,5.13-18.4,13.62-6.01,7.08-10.61,12.91-14.68,19.11Z"/>
  <path d="M919.48,184.67c0-4.25,1.42-8.49,4.07-13.62,3.36-6.19,8.67-13.8,14.51-19.81h-.18c-4.95,4.42-9.02,8.84-12.38,12.74h-2.12c6.19-7.61,15.74-16.8,24.94-23.53,9.2-6.72,15.57-8.84,20.17-8.84,6.19,0,8.84,4.78,6.9,11.5h.18l54.84-81.55h8.14l-77.66,114.98c-4.42,6.37-6.72,10.26-6.72,13.27,0,2.48,1.24,4.07,3.71,4.07,4.78,0,10.08-5.13,16.98-13.44,4.42-5.31,9.55-11.5,13.8-16.45h2.12c-4.78,5.48-10.08,12.21-14.68,17.69-7.25,8.49-12.56,14.33-19.81,14.33-4.6,0-6.9-3.36-6.9-8.84,0-2.3.71-4.78,2.48-7.61h-.18c-2.83,3.18-6.72,7.61-10.08,10.61-4.42,3.89-8.31,5.84-12.03,5.84-5.84,0-10.08-4.25-10.08-11.32ZM940.35,188.92c6.01-5.48,14.33-15.21,20.52-24.41l7.96-11.67c5.66-8.31,8.49-19.1,0-19.1-6.72,0-13.62,6.72-19.28,13.27-8.31,9.73-13.8,17.16-19.28,26.54-1.77,3.01-4.78,8.31-5.48,11.5-1.42,5.48,1.42,8.67,5.48,8.67,3.54,0,6.54-1.59,10.08-4.78Z"/>
  <path d="M997.49,194.22c-3.18,0-5.48-2.3-5.48-5.48s2.3-5.48,5.31-5.48c3.18,0,5.48,2.3,5.48,5.48s-2.3,5.48-5.31,5.48ZM1004.74,172.29c18.57-26.36,34.85-55.9,47.23-75.36,2.12-3.36,3.89-4.95,7.08-4.95,2.3,0,4.25,2.48,2.48,4.95-15.04,21.58-35.03,47.41-54.13,75.36h-2.65Z"/>
</svg>