<?xml version="1.0" encoding="UTF-8"?>
<svg id="Layer_1" xmlns="http://www.w3.org/2000/svg" viewBox="0 0 1200 300">
  <defs>
    <style>
      .cls-1 {
        fill: #fff;
      }
    </style>
  </defs>
  <path class="cls-1" d="M246.66,68.36c-23.71,18.04-18.04,16.63-53.78,73.6-.35.35-30.6,45.47-44.4,61.39,23.17-2.83,39.98-9.91,58.2-32.2h2.12c-20.17,24.77-38.39,31.67-62.1,34.32-23.18,26.54-44.58,41.93-61.74,41.93-15.39,0-20.34-11.67-13.27-24.06,7.78-13.62,27.95-16.98,50.95-18.05,6.72-.35,12.91-.71,18.58-1.24,12.03-15.21,41.57-61.92,42.1-62.8,13.8-23,28.13-42.99,44.41-58.74l-.18-.18c-12.74,9.38-19.28,11.68-25.3,11.68-7.43,0-12.56-5.13-17.52-12.03-6.37-8.67-10.62-13.09-21.94-13.09-21.94,0-40.33,13.44-40.33,31.84,0,10.62,5.84,17.16,16.98,17.16,13.62,0,25.65-10.26,30.08-21.41l1.77.71c-4.42,11.5-17.51,23-33.08,23-10.44,0-19.81-6.54-19.81-19.28,0-19.46,22.64-33.97,44.4-33.97,17.52,0,23.35,5.66,29.9,14.68,4.78,6.54,7.43,9.91,11.5,9.91,9.55,0,21.76-9.91,41.04-24.59l1.42,1.42ZM139.63,206.17l-16.98,1.06c-22.82,1.24-41.04,4.95-47.77,17.51-6.9,12.74-.53,20.52,10.08,20.52,15.92,0,33.97-13.27,54.67-39.1Z"/>
  <path class="cls-1" d="M202.78,191.84c0-4.25,1.42-8.49,4.07-13.62,3.36-6.19,8.67-13.8,14.51-19.81h-.18c-4.95,4.42-9.02,8.85-12.39,12.74h-2.12c6.19-7.61,15.75-16.81,24.94-23.53,9.2-6.72,15.57-8.85,20.17-8.85,6.19,0,9.2,4.78,6.37,13.09h.18l7.78-11.32h7.25l-29.19,43.17c-4.6,6.54-6.72,10.26-6.72,13.27,0,2.48,1.24,4.07,3.72,4.07,4.77,0,10.08-5.13,16.98-13.44,4.42-5.31,9.55-11.5,13.8-16.45h2.12c-4.77,5.48-10.08,12.21-14.68,17.69-7.25,8.49-12.56,14.33-19.81,14.33-4.6,0-6.9-3.36-6.9-8.85,0-2.3.71-4.6,2.48-7.61h-.18c-2.83,3.19-6.72,7.61-10.08,10.62-4.42,3.89-8.31,5.84-12.03,5.84-5.84,0-10.08-4.25-10.08-11.32ZM223.65,196.09c6.02-5.48,14.33-15.21,20.52-24.41l7.96-11.68c5.66-8.31,8.49-19.11,0-19.11-6.72,0-13.62,6.72-19.28,13.27-8.32,9.73-13.8,17.16-19.28,26.54-1.77,3.01-4.78,8.31-5.48,11.5-1.42,5.48,1.42,8.67,5.48,8.67,3.54,0,6.54-1.59,10.08-4.77Z"/>
  <path class="cls-1" d="M254.08,193.79c0-7.08,3.89-12.21,8.31-12.21,2.12,0,3.19,1.24,3.19,2.65,0,5.66-9.2,4.25-9.2,11.5,0,3.19,2.48,5.48,6.72,5.48,5.31,0,12.91-4.25,22.12-15.92,11.67-14.5,13.27-26.36,13.27-36.27,0-2.3-.18-5.31-.35-8.14-6.54,8.85-15.57,19.81-24.06,30.25h-2.12c9.2-11.15,18.58-22.47,25.83-32.55-.18-1.94-.18-3.71-.18-5.48,0-7.78,3.01-13.09,6.9-13.09,2.12,0,3.19,1.24,3.19,3.36,0,4.07-3.36,8.49-8.31,15.57,1.77,15.21,3.18,35.2-6.9,48.3h.35c4.6-3.71,11.15-9.73,16.63-16.1h2.12c-4.95,5.84-10.62,11.68-16.98,16.81-8.85,7.61-20.52,15.22-30.78,15.22-6.55,0-9.73-4.25-9.73-9.38Z"/>
  <path class="cls-1" d="M265.39,245.62l64.93-95.36h-.18c-6.01,6.02-12.91,13.98-18.57,20.87h-2.12c9.73-12.03,18.22-20.87,26.54-30.6h7.61l-10.44,15.57h.18c3.01-3.54,7.43-8.67,10.79-11.5,4.25-4.07,8.14-5.84,12.56-5.84,4.77,0,8.84,3.01,8.84,10.08,0,4.95-2.65,9.91-6.19,15.04l-14.68,20.17c-4.42,6.02-6.54,9.91-6.54,12.91,0,2.48,1.24,4.07,3.54,4.07,4.78,0,10.44-5.13,17.16-13.44,4.6-5.31,9.38-11.32,13.62-16.45h2.12c-4.6,5.48-9.91,12.21-14.51,17.69-7.43,8.49-12.74,14.33-19.81,14.33-4.42,0-7.25-3.54-7.25-8.67,0-3.72,1.24-7.43,3.89-10.97l15.74-21.94c3.19-4.78,6.72-9.55,7.79-13.62,1.24-4.6-.88-7.08-4.95-7.08-3.54,0-6.54,1.59-10.26,4.95-4.25,3.89-14.68,15.92-19.99,23.71l-51.66,76.07h-8.14Z"/>
  <path class="cls-1" d="M426.9,171.14c-15.21,18.58-28.48,32.02-44.4,32.02-7.08,0-13.98-3.72-13.98-11.68,0-3.89,1.59-8.31,4.07-13.27,3.36-6.19,8.67-13.8,14.51-19.81h-.18c-4.95,4.42-9.02,8.85-12.38,12.74h-2.12c6.19-7.61,15.75-16.81,24.94-23.53,9.2-6.72,15.22-8.85,19.64-8.85,6.9,0,9.02,6.9,4.77,15.39-7.08,13.62-23.71,20.88-38.74,20.88h-.35c-1.06,1.77-2.3,3.71-3.36,5.66-2.3,3.89-4.77,8.84-4.77,12.74,0,4.77,3.54,7.43,9.38,7.43,13.98,0,27.77-13.8,40.87-29.72h2.12ZM383.91,173.26c13.8-.18,25.12-5.31,33.79-20.7,4.6-7.79,3.19-12.03-.71-12.03-5.13,0-10.97,5.13-18.4,13.62-6.01,7.08-10.61,12.91-14.68,19.11Z"/>
  <path class="cls-1" d="M471.83,171.14c-4.78,5.48-9.91,12.21-14.68,17.69-7.25,8.49-12.56,14.33-19.81,14.33-4.25,0-7.25-3.54-7.25-8.67,0-3.72,1.42-7.43,4.07-10.97l15.75-21.94c5.31-7.43,9.02-12.03,9.02-16.45,0-3.01-.89-4.25-4.95-4.6-1.06,0-1.94-.18-2.65-.35-6.54,8.49-15.57,20.17-24.41,30.96h-2.12c9.73-11.85,17.16-21.58,24.41-31.67-1.77-.89-2.83-2.3-2.83-4.78,0-5.13,3.36-12.38,8.67-12.38,2.12,0,3.18,1.24,3.18,2.65,0,5.31-9.73,5.13-9.73,10.44,0,2.65,1.95,3.01,5.48,3.36,6.55.53,9.91,2.83,9.91,9.2,0,4.6-2.48,9.2-7.25,15.92l-14.68,20.17c-4.6,6.02-6.72,9.91-6.72,12.91,0,2.48,1.24,4.07,3.71,4.07,4.78,0,10.26-5.13,17.16-13.44l13.62-16.45h2.12Z"/>
  <path class="cls-1" d="M635.47,159.11c0,6.19-5.13,10.97-9.56,10.97-1.94,0-3.18-1.06-3.18-2.65,0-5.31,10.61-2.12,10.61-9.02,0-5.48-4.77-8.84-10.79-8.84-12.03,0-20.52,10.26-32.55,23.88-.71.71-1.42,1.42-1.95,2.12,5.13,9.55,9.73,19.46,9.73,30.25,0,24.41-21.76,41.57-46.35,41.57-17.52,0-31.85-11.5-33.61-29.54l1.94-.53c1.59,15.92,13.45,27.95,31.49,27.95,24.41,0,41.4-17.16,41.4-41.58,0-9.2-2.48-17.69-6.37-26.18-10.97,12.38-22.29,25.83-40.51,25.83-13.98,0-22.47-7.43-22.47-18.4,0-19.28,21.58-29.9,43.87-40.34-2.83-5.48-4.6-10.44-4.6-16.1,0-17.87,17.87-30.96,33.61-30.96,9.38,0,15.04,5.13,15.04,12.91,0,14.33-16.98,23.53-39.45,34.32.35,1.42.88,3.01,1.59,4.42,1.77,3.71,4.25,7.96,7.43,13.8,1.95,3.54,4.07,6.9,6.02,10.62l1.42-1.59c11.68-12.74,21.58-24.24,34.5-24.24,6.19,0,12.74,3.71,12.74,11.32ZM585.4,175.39c-1.42-2.83-2.83-5.48-4.42-8.14-4.78-8.31-9.38-14.86-12.74-20.87-27.6,13.09-35.91,22.82-35.91,38.04,0,9.91,5.48,16.28,15.39,16.28,16.1,0,27.42-13.62,37.68-25.3ZM570.36,132.75c0,3.71.35,6.9.88,9.9,23-10.79,35.56-19.28,35.56-32.37,0-6.54-3.71-11.15-10.79-11.15-14.5,0-25.65,15.39-25.65,33.62Z"/>
  <path class="cls-1" d="M731.87,131.34c-10.79,16.1-17.87,33.08-17.87,47.95s7.25,21.94,21.05,21.94c25.48,0,52.9-20.52,52.9-41.4,0-9.2-4.95-15.92-15.21-15.92-19.11,0-27.95,16.1-31.31,30.07l-2.12-.18c3.54-14.68,13.45-31.84,33.79-31.84,11.5,0,19.11,6.72,19.11,18.22,0,21.23-30.6,42.99-56.79,42.99-18.75,0-31.31-6.37-31.31-23.88,0-15.39,8.31-32.91,20.7-49.54-15.22-4.42-23.18-13.98-23.18-27.6,0-19.46,19.64-41.75,52.9-49.54l.53,1.77c-31.49,7.78-48.65,26.54-48.65,46.88,0,12.38,6.72,21.76,20.17,26.36,25.3-32.55,66.34-60.68,91.29-60.68,11.15,0,16.63,5.48,16.63,12.74,0,26.71-50.42,52.9-87.57,52.9-5.48,0-10.44-.35-15.04-1.24ZM733.46,129.21c4.07.88,8.67,1.24,13.62,1.24,36.44,0,83.32-25.65,83.32-50.77,0-6.9-3.89-10.79-12.56-10.79-24.41,0-61.74,28.13-84.39,60.33Z"/>
  <path class="cls-1" d="M798.02,191.84c0-4.25,1.42-8.49,4.07-13.62,3.36-6.19,8.67-13.8,14.51-19.81h-.18c-4.95,4.42-9.02,8.85-12.38,12.74h-2.12c6.19-7.61,15.75-16.81,24.94-23.53,9.2-6.72,15.57-8.85,20.17-8.85,6.19,0,9.2,4.78,6.37,13.09h.17l7.79-11.32h7.25l-29.19,43.17c-4.6,6.54-6.72,10.26-6.72,13.27,0,2.48,1.24,4.07,3.72,4.07,4.77,0,10.08-5.13,16.98-13.44,4.42-5.31,9.55-11.5,13.8-16.45h2.12c-4.77,5.48-10.08,12.21-14.68,17.69-7.25,8.49-12.56,14.33-19.81,14.33-4.6,0-6.9-3.36-6.9-8.85,0-2.3.71-4.6,2.48-7.61h-.18c-2.83,3.19-6.72,7.61-10.08,10.62-4.42,3.89-8.31,5.84-12.03,5.84-5.84,0-10.08-4.25-10.08-11.32ZM818.89,196.09c6.02-5.48,14.33-15.21,20.52-24.41l7.96-11.68c5.66-8.31,8.49-19.11,0-19.11-6.72,0-13.62,6.72-19.28,13.27-8.31,9.73-13.8,17.16-19.28,26.54-1.77,3.01-4.77,8.31-5.48,11.5-1.42,5.48,1.42,8.67,5.48,8.67,3.54,0,6.55-1.59,10.08-4.77Z"/>
  <path class="cls-1" d="M936.18,194.49c0-3.72,1.42-7.43,4.07-10.97l15.57-21.94c3.36-4.78,6.9-9.55,7.96-13.62,1.24-4.6-1.06-7.08-4.95-7.08s-6.72,1.59-10.26,4.95c-4.24,3.89-14.86,15.75-20.17,23.71l-21.58,31.84h-8.14l26.71-39.81c3.19-4.78,6.72-9.55,7.78-13.62,1.24-4.6-.88-7.08-4.95-7.08-3.54,0-6.54,1.59-10.26,4.95-4.07,3.89-14.68,15.75-19.99,23.71l-21.58,31.84h-8.14l29.01-43.16c4.25-6.55,6.9-10.79,6.9-14.33,0-1.95-.89-3.36-3.36-3.36-4.95,0-10.79,5.66-17.69,13.98-4.25,5.31-9.55,11.5-13.8,16.63h-2.12c4.78-5.66,10.08-12.38,14.68-17.69,6.72-8.31,13.09-14.68,19.81-14.68,5.13,0,6.9,3.54,6.9,8.49,0,2.83-.71,5.48-2.65,8.85h.17c3.01-3.54,7.43-8.67,10.79-11.5,4.25-4.07,8.14-5.84,12.74-5.84s8.85,3.01,8.85,10.08c0,2.12-.71,4.42-2.12,7.25h.18c3.19-3.54,7.43-8.67,10.79-11.5,4.25-4.07,8.14-5.84,12.74-5.84s8.85,3.01,8.85,10.08c0,4.95-2.65,9.91-6.37,15.04l-14.51,20.17c-4.6,6.02-6.72,9.91-6.72,12.91,0,2.48,1.24,4.07,3.71,4.07,4.78,0,10.26-5.13,17.16-13.44,4.42-5.31,9.38-11.32,13.44-16.45h2.12c-4.6,5.48-9.73,12.21-14.51,17.69-7.25,8.49-12.74,14.33-19.81,14.33-4.42,0-7.25-3.54-7.25-8.67Z"/>
  <path class="cls-1" d="M969.78,194.49c0-3.72,1.42-7.43,4.07-10.97l22.64-33.26h-.18c-6.01,6.02-12.91,13.98-18.57,20.87h-2.12c9.73-12.03,18.22-20.87,26.54-30.6h8.67l-29.37,43.52c-4.25,6.19-6.54,9.91-6.54,12.91,0,2.48,1.24,4.07,3.71,4.07,4.78,0,10.26-5.13,16.98-13.44,4.6-5.31,9.55-11.32,13.8-16.45h2.12c-4.78,5.48-10.08,12.21-14.68,17.69-7.25,8.49-12.56,14.33-19.81,14.33-4.42,0-7.25-3.54-7.25-8.67ZM1021.44,107.63c0-2.83,2.3-5.31,5.31-5.31,2.83,0,5.13,2.48,5.13,5.31,0,3.01-2.3,5.13-5.13,5.13-3.01,0-5.31-2.12-5.31-5.13Z"/>
  <path class="cls-1" d="M1003.56,194.49c0-3.72,1.42-7.43,4.07-10.97l24.95-36.8h-.18c-6.19,6.72-13.62,15.74-20.87,24.41h-2.12c15.39-18.75,29.54-33.97,36.97-45.11l38.57-57.32h8.14l-77.66,115.34c-4.25,6.19-6.72,9.91-6.72,12.91,0,2.48,1.24,4.07,3.71,4.07,4.78,0,10.26-5.13,16.98-13.44,4.6-5.31,9.55-11.32,13.8-16.45h2.12c-4.78,5.48-10.08,12.21-14.68,17.69-7.25,8.49-12.56,14.33-19.81,14.33-4.42,0-7.25-3.54-7.25-8.67Z"/>
  <path class="cls-1" d="M1037.35,194.49c0-3.72,1.42-7.43,4.07-10.97l24.95-36.8h-.18c-6.19,6.72-13.62,15.74-20.88,24.41h-2.12c15.39-18.75,29.54-33.97,36.97-45.11l38.57-57.32h8.14l-77.66,115.34c-4.25,6.19-6.72,9.91-6.72,12.91,0,2.48,1.24,4.07,3.72,4.07,4.77,0,10.26-5.13,16.98-13.44,4.6-5.31,9.55-11.32,13.8-16.45h2.12c-4.78,5.48-10.08,12.21-14.68,17.69-7.25,8.49-12.56,14.33-19.81,14.33-4.42,0-7.25-3.54-7.25-8.67Z"/>
  <path class="cls-1" d="M1131.46,171.14c-15.21,18.58-28.48,32.02-44.4,32.02-7.08,0-13.98-3.72-13.98-11.68,0-3.89,1.59-8.31,4.07-13.27,3.36-6.19,8.67-13.8,14.51-19.81h-.18c-4.95,4.42-9.02,8.85-12.38,12.74h-2.12c6.19-7.61,15.75-16.81,24.94-23.53,9.2-6.72,15.22-8.85,19.64-8.85,6.9,0,9.02,6.9,4.77,15.39-7.08,13.62-23.71,20.88-38.74,20.88h-.35c-1.06,1.77-2.3,3.71-3.36,5.66-2.3,3.89-4.77,8.84-4.77,12.74,0,4.77,3.54,7.43,9.38,7.43,13.98,0,27.77-13.8,40.87-29.72h2.12ZM1088.48,173.26c13.8-.18,25.12-5.31,33.79-20.7,4.6-7.79,3.19-12.03-.71-12.03-5.13,0-10.97,5.13-18.4,13.62-6.01,7.08-10.61,12.91-14.68,19.11Z"/>
</svg>