<?xml version="1.0" encoding="UTF-8"?>
<svg id="Layer_1" xmlns="http://www.w3.org/2000/svg" viewBox="0 0 1200 300">
  <defs>
    <style>
      .cls-1 {
        fill: #4c531f;
      }
    </style>
  </defs>
  <path class="cls-1" d="M113.9,206.7c0-9.73,8.49-17.87,21.23-17.87,10.44,0,18.04,4.07,18.04,8.31,0,1.95-1.42,3.18-2.65,3.18-5.13,0-5.84-9.55-16.98-9.55-9.38,0-15.57,6.54-15.57,15.92s7.61,16.63,22.11,16.63c25.65,0,44.93-24.23,67.75-59.97,21.58-33.61,44.22-52.18,69.17-53.95l-.18,1.77c-23,1.95-38.03,17.16-59.44,52.89-23,38.39-50.06,61.21-77.3,61.21-15.74,0-26.18-7.61-26.18-18.57ZM143.8,128.86c0-21.94,25.83-39.8,61.56-39.8,20.87,0,40.33,5.31,61.38,10.79,35.2,9.2,46.52,10.79,60.32,10.79,15.39,0,26.18-5.48,26.18-17.69,0-1.24-.18-2.48-.35-3.54l1.95-.18c.35.88.53,2.65.53,3.89,0,13.27-9.73,20.52-27.24,20.52-15.57,0-35.73-4.78-62.44-11.85-20.52-5.48-40.33-10.26-58.02-10.26-31.84,0-60.32,17.51-60.32,38.39,0,12.38,8.31,18.4,19.1,18.4,19.28,0,36.97-15.74,44.22-33.96l1.95.53c-7.43,18.93-26.18,35.38-46.52,35.38-12.03,0-22.29-6.37-22.29-21.4Z"/>
  <path class="cls-1" d="M247.99,216.6c0-3.71,1.24-7.43,3.89-10.97l15.74-21.94c3.18-4.78,6.72-9.55,7.78-13.62,1.24-4.6-.88-7.08-4.95-7.08-3.54,0-6.54,1.59-10.26,4.95-4.25,3.89-14.68,15.74-19.99,23.7l-21.76,31.84h-8.14l37.15-54.66h-.18c-6.19,6.72-13.62,15.74-20.87,24.41h-2.12c15.39-18.75,29.54-33.96,36.97-45.11l38.56-57.31h8.14l-55.9,82.79h.18c2.48-2.65,4.78-5.31,6.72-6.9,4.42-4.07,8.31-5.84,12.74-5.84,4.78,0,8.84,3.01,8.84,10.08,0,4.95-2.65,9.91-6.19,15.04l-14.68,20.17c-4.42,6.01-6.54,9.91-6.54,12.91,0,2.48,1.06,4.07,3.54,4.07,4.78,0,10.26-5.13,16.98-13.44,4.6-5.31,9.55-11.32,13.8-16.45h2.12c-4.6,5.48-10.08,12.21-14.5,17.69-7.43,8.49-12.74,14.33-19.81,14.33-4.42,0-7.25-3.54-7.25-8.67Z"/>
  <path class="cls-1" d="M341.92,193.25c-15.21,18.57-28.48,32.02-44.4,32.02-7.08,0-13.97-3.71-13.97-11.67,0-3.89,1.59-8.31,4.07-13.27,3.36-6.19,8.67-13.8,14.51-19.81h-.18c-4.95,4.42-9.02,8.84-12.38,12.74h-2.12c6.19-7.61,15.74-16.8,24.94-23.53,9.2-6.72,15.21-8.84,19.64-8.84,6.9,0,9.02,6.9,4.78,15.39-7.08,13.62-23.7,20.87-38.74,20.87h-.35c-1.06,1.77-2.3,3.71-3.36,5.66-2.3,3.89-4.78,8.84-4.78,12.74,0,4.78,3.54,7.43,9.38,7.43,13.97,0,27.77-13.8,40.86-29.72h2.12ZM298.93,195.37c13.8-.18,25.12-5.31,33.79-20.7,4.6-7.78,3.18-12.03-.71-12.03-5.13,0-10.97,5.13-18.4,13.62-6.01,7.08-10.61,12.91-14.68,19.11Z"/>
  <path class="cls-1" d="M593.46,118.6c-16.45,23.88-42.28,34.14-65.63,35.73-17.51,29.54-37.15,48.65-58.73,59.61,13.27,5.13,26.53,9.55,39.98,9.55,18.57,0,29.72-12.56,44.4-30.25h2.12c-16.1,19.46-27.24,32.02-46.52,32.02-14.5,0-28.66-4.78-42.45-10.26-14.68,7.08-30.6,10.26-47.23,10.26-15.57,0-30.43-3.54-30.43-13.8,0-7.96,8.49-12.91,25.47-12.91s33.43,6.9,49.88,13.44c19.28-10.97,35.91-29.9,53.25-57.31-27.6-.71-42.28-12.03-42.28-31.13s20.34-41.04,52.89-48.82l.53,1.77c-31.49,7.78-48.65,26.89-48.65,46.88,0,17.16,12.74,28.83,38.74,29.37.53-.71.88-1.59,1.42-2.3,23.88-38.56,45.29-61.38,65.1-61.38,18.4,0,16.27,17.51,8.14,29.54ZM462.02,213.24c-15.92-6.37-31.66-12.74-47.58-12.74s-22.64,4.07-22.64,10.97c0,9.02,13.97,11.85,27.95,11.85,15.92,0,29.72-3.36,42.28-10.08ZM585.67,91.01c-18.93,0-35.02,23.88-55.9,60.14l-.71,1.24c21.94-1.95,45.46-11.67,61.03-34.67,7.43-11.14,9.91-26.71-4.42-26.71Z"/>
  <path class="cls-1" d="M549.59,213.95c0-4.25,1.42-8.49,4.07-13.62,3.36-6.19,8.67-13.8,14.51-19.81h-.18c-4.95,4.42-9.02,8.84-12.38,12.74h-2.12c6.19-7.61,15.74-16.8,24.94-23.53,9.2-6.72,15.57-8.84,20.17-8.84,6.19,0,9.2,4.78,6.37,13.09h.18l7.78-11.32h7.25l-29.19,43.16c-4.6,6.54-6.72,10.26-6.72,13.27,0,2.48,1.24,4.07,3.71,4.07,4.78,0,10.08-5.13,16.98-13.44,4.42-5.31,9.55-11.5,13.8-16.45h2.12c-4.78,5.48-10.08,12.21-14.68,17.69-7.25,8.49-12.56,14.33-19.81,14.33-4.6,0-6.9-3.36-6.9-8.84,0-2.3.71-4.6,2.48-7.61h-.18c-2.83,3.18-6.72,7.61-10.08,10.61-4.42,3.89-8.31,5.84-12.03,5.84-5.84,0-10.08-4.25-10.08-11.32ZM570.46,218.19c6.01-5.48,14.33-15.21,20.52-24.41l7.96-11.67c5.66-8.31,8.49-19.1,0-19.1-6.72,0-13.62,6.72-19.28,13.27-8.31,9.73-13.8,17.16-19.28,26.54-1.77,3.01-4.78,8.31-5.48,11.5-1.42,5.48,1.42,8.67,5.48,8.67,3.54,0,6.54-1.59,10.08-4.78Z"/>
  <path class="cls-1" d="M676.95,183.7c3.36-4.78,6.9-9.55,7.96-13.62,1.24-4.6-1.06-7.08-5.13-7.08-3.54,0-6.54,1.59-10.26,4.95-4.07,3.89-14.68,15.74-19.99,23.7l-21.58,31.84h-8.14l29.01-43.16c4.25-6.55,6.9-10.79,6.9-14.33,0-1.95-.88-3.36-3.36-3.36-4.95,0-10.79,5.66-17.69,13.97-4.25,5.31-9.55,11.5-13.8,16.63h-2.12c4.78-5.66,10.08-12.38,14.68-17.69,6.72-8.31,13.09-14.68,19.81-14.68,5.13,0,6.9,3.54,6.9,8.49,0,2.83-.71,5.48-2.65,8.84h.18c3.01-3.54,7.43-8.67,10.79-11.5,4.25-4.07,8.14-5.84,12.74-5.84s8.84,3.01,8.84,10.08c0,4.95-2.65,9.91-6.37,15.04l-14.51,20.17c-4.6,6.01-6.72,9.91-6.72,12.91,0,2.48,1.24,4.07,3.71,4.07,4.78,0,10.26-5.13,17.16-13.44,4.42-5.31,9.38-11.32,13.44-16.45h2.12c-4.6,5.48-9.73,12.21-14.51,17.69-7.25,8.49-12.74,14.33-19.81,14.33-4.42,0-7.25-3.54-7.25-8.67,0-3.71,1.42-7.43,4.07-10.97l15.57-21.94Z"/>
  <path class="cls-1" d="M692.87,213.95c0-4.25,1.42-8.49,4.07-13.62,3.36-6.19,8.67-13.8,14.51-19.81h-.18c-4.95,4.42-9.02,8.84-12.38,12.74h-2.12c6.19-7.61,15.74-16.8,24.94-23.53,9.2-6.72,15.57-8.84,20.17-8.84,6.19,0,8.84,4.78,6.9,11.5h.18l54.84-81.55h8.14l-77.66,114.98c-4.42,6.37-6.72,10.26-6.72,13.27,0,2.48,1.24,4.07,3.71,4.07,4.78,0,10.08-5.13,16.98-13.44,4.42-5.31,9.55-11.5,13.8-16.45h2.12c-4.78,5.48-10.08,12.21-14.68,17.69-7.25,8.49-12.56,14.33-19.81,14.33-4.6,0-6.9-3.36-6.9-8.84,0-2.3.71-4.78,2.48-7.61h-.18c-2.83,3.18-6.72,7.61-10.08,10.61-4.42,3.89-8.31,5.84-12.03,5.84-5.84,0-10.08-4.25-10.08-11.32ZM713.74,218.19c6.01-5.48,14.33-15.21,20.52-24.41l7.96-11.67c5.66-8.31,8.49-19.1,0-19.1-6.72,0-13.62,6.72-19.28,13.27-8.31,9.73-13.8,17.16-19.28,26.54-1.77,3.01-4.78,8.31-5.48,11.5-1.42,5.48,1.42,8.67,5.48,8.67,3.54,0,6.54-1.59,10.08-4.78Z"/>
  <path class="cls-1" d="M831.02,216.6c0-3.71,1.42-7.43,4.07-10.97l15.57-21.94c3.36-4.78,6.9-9.55,7.96-13.62,1.24-4.6-1.06-7.08-4.95-7.08s-6.72,1.59-10.26,4.95c-4.25,3.89-14.86,15.74-20.17,23.7l-21.58,31.84h-8.14l26.71-39.8c3.18-4.78,6.72-9.55,7.78-13.62,1.24-4.6-.88-7.08-4.95-7.08-3.54,0-6.54,1.59-10.26,4.95-4.07,3.89-14.68,15.74-19.99,23.7l-21.58,31.84h-8.14l29.01-43.16c4.25-6.55,6.9-10.79,6.9-14.33,0-1.95-.88-3.36-3.36-3.36-4.95,0-10.79,5.66-17.69,13.97-4.25,5.31-9.55,11.5-13.8,16.63h-2.12c4.78-5.66,10.08-12.38,14.68-17.69,6.72-8.31,13.09-14.68,19.81-14.68,5.13,0,6.9,3.54,6.9,8.49,0,2.83-.71,5.48-2.65,8.84h.18c3.01-3.54,7.43-8.67,10.79-11.5,4.25-4.07,8.14-5.84,12.74-5.84s8.84,3.01,8.84,10.08c0,2.12-.71,4.42-2.12,7.25h.18c3.18-3.54,7.43-8.67,10.79-11.5,4.25-4.07,8.14-5.84,12.74-5.84s8.84,3.01,8.84,10.08c0,4.95-2.65,9.91-6.37,15.04l-14.5,20.17c-4.6,6.01-6.72,9.91-6.72,12.91,0,2.48,1.24,4.07,3.71,4.07,4.78,0,10.26-5.13,17.16-13.44,4.42-5.31,9.38-11.32,13.44-16.45h2.12c-4.6,5.48-9.73,12.21-14.5,17.69-7.25,8.49-12.74,14.33-19.81,14.33-4.42,0-7.25-3.54-7.25-8.67Z"/>
  <path class="cls-1" d="M866.58,213.95c0-4.25,1.42-8.49,4.07-13.62,3.36-6.19,8.67-13.8,14.51-19.81h-.18c-4.95,4.42-9.02,8.84-12.38,12.74h-2.12c6.19-7.61,15.74-16.8,24.94-23.53,9.2-6.72,15.57-8.84,20.17-8.84,6.19,0,9.2,4.78,6.37,13.09h.18l7.78-11.32h7.25l-29.19,43.16c-4.6,6.54-6.72,10.26-6.72,13.27,0,2.48,1.24,4.07,3.71,4.07,4.78,0,10.08-5.13,16.98-13.44,4.42-5.31,9.55-11.5,13.8-16.45h2.12c-4.78,5.48-10.08,12.21-14.68,17.69-7.25,8.49-12.56,14.33-19.81,14.33-4.6,0-6.9-3.36-6.9-8.84,0-2.3.71-4.6,2.48-7.61h-.18c-2.83,3.18-6.72,7.61-10.08,10.61-4.42,3.89-8.31,5.84-12.03,5.84-5.84,0-10.08-4.25-10.08-11.32ZM887.45,218.19c6.01-5.48,14.33-15.21,20.52-24.41l7.96-11.67c5.66-8.31,8.49-19.1,0-19.1-6.72,0-13.62,6.72-19.28,13.27-8.31,9.73-13.8,17.16-19.28,26.54-1.77,3.01-4.78,8.31-5.48,11.5-1.42,5.48,1.42,8.67,5.48,8.67,3.54,0,6.54-1.59,10.08-4.78Z"/>
  <path class="cls-1" d="M982.79,193.25c-4.78,5.48-9.91,12.21-14.68,17.69-7.25,8.49-12.56,14.33-19.81,14.33-4.25,0-7.25-3.54-7.25-8.67,0-3.71,1.42-7.43,4.07-10.97l15.74-21.94c5.31-7.43,9.02-12.03,9.02-16.45,0-3.01-.88-4.25-4.95-4.6-1.06,0-1.95-.18-2.65-.35-6.54,8.49-15.57,20.17-24.41,30.96h-2.12c9.73-11.85,17.16-21.58,24.41-31.66-1.77-.88-2.83-2.3-2.83-4.78,0-5.13,3.36-12.38,8.67-12.38,2.12,0,3.18,1.24,3.18,2.65,0,5.31-9.73,5.13-9.73,10.44,0,2.65,1.95,3.01,5.48,3.36,6.55.53,9.91,2.83,9.91,9.2,0,4.6-2.48,9.2-7.25,15.92l-14.68,20.17c-4.6,6.01-6.72,9.91-6.72,12.91,0,2.48,1.24,4.07,3.71,4.07,4.78,0,10.26-5.13,17.16-13.44l13.62-16.45h2.12Z"/>
  <path class="cls-1" d="M1006.67,216.6c0-3.89,1.95-7.25,4.42-10.97,3.18-5.13,6.01-8.49,6.01-11.5,0-2.65-1.42-4.78-4.95-4.78-5.66,0-13.44,3.89-20.7,11.5-3.01,3.18-6.19,6.9-8.49,10.44l-8.14,12.21h-8.14l37.15-54.66h-.18c-6.19,6.72-13.62,15.74-20.87,24.41h-2.12c15.39-18.75,29.72-34.14,36.97-45.11l38.56-57.31h8.14l-71.11,105.43h.18c1.42-1.59,5.13-5.31,6.55-6.72,18.57-18.57,31.49-28.66,41.57-28.66,4.78,0,7.78,2.12,7.78,6.9,0,7.25-5.84,11.32-9.38,11.32-2.12,0-3.18-1.24-3.18-2.83,0-5.31,10.08-3.18,10.08-9.38,0-2.12-1.59-4.07-5.31-4.07-9.55,0-22.11,9.73-41.57,29.01h.35c4.6-3.01,9.2-4.6,12.91-4.6,4.95,0,9.2,3.18,9.2,9.02,0,4.07-2.12,7.61-5.84,12.91-2.65,3.89-4.78,6.9-4.78,9.73,0,3.01,1.59,4.25,4.07,4.25,4.78,0,10.08-5.13,16.98-13.44,4.42-5.31,9.55-11.32,13.62-16.45h2.12c-4.6,5.48-9.91,12.21-14.5,17.69-7.25,8.49-12.74,14.33-19.81,14.33-4.78,0-7.61-3.01-7.61-8.67Z"/>
  <path class="cls-1" d="M1028.61,215.89c0-7.08,3.89-12.21,8.31-12.21,2.12,0,3.18,1.24,3.18,2.65,0,5.66-9.2,4.25-9.2,11.5,0,3.18,2.48,5.48,6.72,5.48,5.31,0,12.91-4.25,22.11-15.92,11.67-14.5,13.27-26.36,13.27-36.26,0-2.3-.18-5.31-.35-8.14-6.54,8.84-15.57,19.81-24.06,30.25h-2.12c9.2-11.14,18.57-22.47,25.83-32.55-.18-1.95-.18-3.71-.18-5.48,0-7.78,3.01-13.09,6.9-13.09,2.12,0,3.18,1.24,3.18,3.36,0,4.07-3.36,8.49-8.31,15.57,1.77,15.21,3.18,35.2-6.9,48.29h.35c4.6-3.71,11.14-9.73,16.63-16.1h2.12c-4.95,5.84-10.61,11.67-16.98,16.8-8.84,7.61-20.52,15.21-30.78,15.21-6.54,0-9.73-4.25-9.73-9.38Z"/>
</svg>