<?xml version="1.0" encoding="UTF-8"?>
<svg id="Layer_1" xmlns="http://www.w3.org/2000/svg" viewBox="0 0 1200 300">
  <defs>
    <style>
      .cls-1 {
        fill: #fff;
      }
    </style>
  </defs>
  <path class="cls-1" d="M437.61,134.17c-5.84,11.32-9.38,22.29-9.38,31.31,0,15.39,6.72,21.94,18.04,21.94,16.45,0,39.98-11.67,60.85-39.09h9.02c-30.78,46.88-62.27,99.06-107.2,99.06-15.39,0-24.06-7.78-24.06-17.34,0-7.08,3.71-12.38,8.31-12.38,2.12,0,3.18,1.24,3.18,2.65,0,5.48-8.84,4.95-8.84,11.32,0,6.9,7.43,13.8,21.4,13.8,34.14,0,58.2-39.09,88.62-82.61h-.35c-15.04,15.39-33.96,26.53-50.95,26.53-15.92,0-27.95-7.43-27.95-23.88,0-9.02,4.25-20.34,11.14-32.02-22.29-3.01-32.73-13.97-32.73-31.31,0-19.28,19.64-41.75,52.89-49.53l.53,1.77c-31.49,7.96-48.65,26.89-48.65,47.58,0,15.74,9.73,26.36,29.19,29.36,19.28-31.31,56.78-64.39,83.67-64.39,12.21,0,19.46,6.19,19.46,15.74,0,26.53-52.89,51.48-91.81,51.48h-4.42ZM438.67,132.04h3.54c36.44,0,87.56-23.17,87.56-49.35,0-9.2-5.66-13.8-15.57-13.8-26.18,0-59.08,32.37-75.53,63.15Z"/>
  <path class="cls-1" d="M514.56,191.83c0-4.25,1.42-8.49,4.07-13.62,3.36-6.19,8.67-13.8,14.51-19.81h-.18c-4.95,4.42-9.02,8.84-12.38,12.74h-2.12c6.19-7.61,15.74-16.8,24.94-23.53,9.2-6.72,15.57-8.84,20.17-8.84,6.19,0,9.2,4.78,6.37,13.09h.18l7.78-11.32h7.25l-29.19,43.16c-4.6,6.54-6.72,10.26-6.72,13.27,0,2.48,1.24,4.07,3.71,4.07,4.78,0,10.08-5.13,16.98-13.44,4.42-5.31,9.55-11.5,13.8-16.45h2.12c-4.78,5.48-10.08,12.21-14.68,17.69-7.25,8.49-12.56,14.33-19.81,14.33-4.6,0-6.9-3.36-6.9-8.84,0-2.3.71-4.6,2.48-7.61h-.18c-2.83,3.18-6.72,7.61-10.08,10.61-4.42,3.89-8.31,5.84-12.03,5.84-5.84,0-10.08-4.25-10.08-11.32ZM535.44,196.08c6.01-5.48,14.33-15.21,20.52-24.41l7.96-11.67c5.66-8.31,8.49-19.1,0-19.1-6.72,0-13.62,6.72-19.28,13.27-8.31,9.73-13.8,17.16-19.28,26.54-1.77,3.01-4.78,8.31-5.48,11.5-1.42,5.48,1.42,8.67,5.48,8.67,3.54,0,6.54-1.59,10.08-4.78Z"/>
  <path class="cls-1" d="M577.89,194.49c0-3.71,1.42-7.43,4.07-10.97l24.94-36.79h-.18c-6.19,6.72-13.62,15.74-20.87,24.41h-2.12c15.39-18.75,29.54-33.96,36.97-45.11l38.56-57.31h8.14l-77.66,115.33c-4.25,6.19-6.72,9.91-6.72,12.91,0,2.48,1.24,4.07,3.71,4.07,4.78,0,10.26-5.13,16.98-13.44,4.6-5.31,9.55-11.32,13.8-16.45h2.12c-4.78,5.48-10.08,12.21-14.68,17.69-7.25,8.49-12.56,14.33-19.81,14.33-4.42,0-7.25-3.54-7.25-8.67Z"/>
  <path class="cls-1" d="M611.67,194.49c0-3.71,1.42-7.43,4.07-10.97l24.94-36.79h-.18c-6.19,6.72-13.62,15.74-20.87,24.41h-2.12c15.39-18.75,29.54-33.96,36.97-45.11l38.56-57.31h8.14l-77.66,115.33c-4.25,6.19-6.72,9.91-6.72,12.91,0,2.48,1.24,4.07,3.71,4.07,4.78,0,10.26-5.13,16.98-13.44,4.6-5.31,9.55-11.32,13.8-16.45h2.12c-4.78,5.48-10.08,12.21-14.68,17.69-7.25,8.49-12.56,14.33-19.81,14.33-4.42,0-7.25-3.54-7.25-8.67Z"/>
  <path class="cls-1" d="M705.78,171.14c-15.21,18.57-28.48,32.02-44.4,32.02-7.08,0-13.97-3.71-13.97-11.67,0-3.89,1.59-8.31,4.07-13.27,3.36-6.19,8.67-13.8,14.51-19.81h-.18c-4.95,4.42-9.02,8.84-12.38,12.74h-2.12c6.19-7.61,15.74-16.8,24.94-23.53,9.2-6.72,15.21-8.84,19.64-8.84,6.9,0,9.02,6.9,4.78,15.39-7.08,13.62-23.7,20.87-38.74,20.87h-.35c-1.06,1.77-2.3,3.71-3.36,5.66-2.3,3.89-4.78,8.84-4.78,12.74,0,4.78,3.54,7.43,9.38,7.43,13.97,0,27.77-13.8,40.86-29.72h2.12ZM662.8,173.26c13.8-.18,25.12-5.31,33.79-20.7,4.6-7.78,3.18-12.03-.71-12.03-5.13,0-10.97,5.13-18.4,13.62-6.01,7.08-10.61,12.91-14.68,19.11Z"/>
  <path class="cls-1" d="M750.71,171.14c-4.78,5.48-9.91,12.21-14.68,17.69-7.25,8.49-12.56,14.33-19.81,14.33-4.25,0-7.25-3.54-7.25-8.67,0-3.71,1.42-7.43,4.07-10.97l15.74-21.94c5.31-7.43,9.02-12.03,9.02-16.45,0-3.01-.88-4.25-4.95-4.6-1.06,0-1.95-.18-2.65-.35-6.54,8.49-15.57,20.17-24.41,30.96h-2.12c9.73-11.85,17.16-21.58,24.41-31.66-1.77-.88-2.83-2.3-2.83-4.78,0-5.13,3.36-12.38,8.67-12.38,2.12,0,3.18,1.24,3.18,2.65,0,5.31-9.73,5.13-9.73,10.44,0,2.65,1.95,3.01,5.48,3.36,6.55.53,9.91,2.83,9.91,9.2,0,4.6-2.48,9.2-7.25,15.92l-14.68,20.17c-4.6,6.01-6.72,9.91-6.72,12.91,0,2.48,1.24,4.07,3.71,4.07,4.78,0,10.26-5.13,17.16-13.44l13.62-16.45h2.12Z"/>
  <path class="cls-1" d="M815.1,171.14c-19.81,24.06-35.73,33.96-48.65,40.33-7.61,11.14-14.33,20.52-22.11,26.89-5.31,4.42-14.68,9.02-22.11,9.02-4.6,0-8.31-2.65-8.31-6.9,0-1.77.53-3.71,1.42-5.31,5.66-9.91,24.76-14.15,41.75-21.76l16.98-24.77h-.18c-2.48,2.83-5.66,6.37-8.14,8.67-4.42,4.07-8.14,5.84-12.74,5.84s-8.84-3.01-8.84-10.08c0-4.95,2.83-9.91,6.19-15.04l19.1-27.77h-.18c-6.01,6.01-12.91,13.97-18.57,20.87h-2.12c9.73-12.03,18.22-20.87,26.53-30.6h8.67l-26.71,39.98c-3.18,4.6-6.72,9.38-7.78,13.44-1.24,4.6,1.06,7.08,4.95,7.08s6.72-1.59,10.26-4.95c4.25-3.89,14.68-15.74,20.17-23.7l21.58-31.84h8.14l-45.99,68.1c11.85-6.01,26.89-15.92,44.58-37.5h2.12ZM755.49,215.89c-13.97,6.54-30.07,10.44-35.91,18.75-1.24,1.95-2.3,4.42-2.3,6.72,0,2.83,1.95,4.42,5.13,4.42,7.25,0,15.04-7.25,20.34-13.09,4.25-4.78,8.49-10.44,12.74-16.8Z"/>
</svg>