<?xml version="1.0" encoding="UTF-8"?>
<svg id="Layer_1" xmlns="http://www.w3.org/2000/svg" viewBox="0 0 1200 300">
  <defs>
    <style>
      .cls-1 {
        fill: #4c531f;
      }
    </style>
  </defs>
  <path class="cls-1" d="M430.54,176.71c0-7.08,3.71-12.74,8.31-12.74,2.12,0,3.18,1.24,3.18,2.65,0,5.48-9.02,4.95-9.02,11.32,0,10.08,6.37,16.98,19.99,16.98,29.54,0,53.07-36.26,72-66.69,17.33-27.77,27.95-41.57,45.99-54.48l1.06,1.59c-11.67,8.67-18.22,19.99-37.5,53.6-19.28,33.79-48.82,67.93-81.55,67.93-14.5,0-22.46-7.96-22.46-20.17ZM549.23,185.73c0-4.6,1.95-9.91,7.78-19.11,4.6-7.43,8.31-13.27,8.31-21.23,0-11.32-9.73-17.16-24.41-17.33v-2.3c29.19,1.59,45.46-12.74,45.46-32.9,0-17.51-11.68-30.25-43.52-30.25-46.88,0-85.09,29.54-85.09,57.49,0,9.91,5.13,17.16,17.16,17.16,27.6,0,44.22-26.53,46.88-47.58h1.95c-3.01,22.47-19.81,49.53-49.53,49.53-12.56,0-22.11-5.48-22.11-19.46,0-28.3,42.63-59.08,90.75-59.08,33.26,0,52.36,12.74,52.36,32.9s-21.76,32.9-45.82,33.79v.18c13.09,1.77,23,10.61,23,22.82,0,6.37-3.54,12.74-6.72,18.04-3.89,6.37-8.85,13.27-8.85,19.99,0,4.25,2.48,6.37,5.84,6.37,6.9,0,12.91-6.01,17.34-11.32,4.07-4.42,12.03-14.33,15.57-18.57h2.12c-4.07,4.95-12.21,15.04-16.1,19.64-4.42,5.31-11.5,12.38-19.99,12.38-6.02,0-12.38-3.54-12.38-11.14Z"/>
  <path class="cls-1" d="M577.71,187.5c0-7.08,3.89-12.21,8.31-12.21,2.12,0,3.18,1.24,3.18,2.65,0,5.66-9.2,4.25-9.2,11.5,0,3.18,2.48,5.48,6.72,5.48,5.31,0,12.91-4.25,22.11-15.92,11.68-14.5,13.27-26.36,13.27-36.26,0-2.3-.18-5.31-.35-8.14-6.54,8.84-15.57,19.81-24.06,30.25h-2.12c9.2-11.14,18.57-22.47,25.83-32.55-.18-1.95-.18-3.71-.18-5.48,0-7.78,3.01-13.09,6.9-13.09,2.12,0,3.19,1.24,3.19,3.36,0,4.07-3.36,8.49-8.31,15.57,1.77,15.21,3.18,35.2-6.9,48.29h.35c4.6-3.71,11.14-9.73,16.63-16.1h2.12c-4.95,5.84-10.61,11.67-16.98,16.8-8.84,7.61-20.52,15.21-30.78,15.21-6.54,0-9.73-4.25-9.73-9.38Z"/>
  <path class="cls-1" d="M706.49,164.86c-8.67,10.61-15.74,16.27-23.53,16.27-1.24,0-2.3-.18-3.19-.53-7.61,7.96-17.69,16.27-27.6,16.27-5.48,0-9.73-3.18-9.73-10.08,0-4.95,2.65-9.91,6.19-15.04l14.68-20.17c4.42-6.01,6.72-9.91,6.72-13.09,0-2.3-1.24-3.89-3.71-3.89-4.78,0-10.44,5.13-17.16,13.27-4.42,5.48-9.38,11.68-13.97,16.98h-2.12c4.95-5.84,10.26-12.56,14.86-18.04,7.43-8.49,12.74-14.33,19.81-14.33,4.42,0,7.25,3.54,7.25,8.67,0,3.71-1.24,7.43-3.89,10.97l-15.92,22.29c-4.78,6.72-7.78,10.97-7.78,15.39,0,2.65,1.95,4.95,6.01,4.95,8.14,0,17.87-7.43,24.77-14.86-3.36-1.95-4.95-6.19-4.95-10.79,0-13.8,14.15-36.62,23.71-36.62,4.42,0,6.01,3.01,6.01,6.9,0,9.91-9.2,24.41-19.1,36.62-.88,1.06-1.77,2.12-2.83,3.18.53.18,1.24.35,2.12.35,7.08,0,13.62-5.66,21.23-14.68h2.12ZM679.42,178.48c1.06-1.24,2.12-2.3,3.01-3.54,10.79-13.09,18.4-25.65,18.4-35.38,0-3.54-1.24-5.31-4.07-5.31-6.9,0-19.99,23.53-19.99,36.97,0,3.36.71,6.01,2.65,7.25Z"/>
  <path class="cls-1" d="M660.32,239.33l64.92-95.35h-.18c-6.01,6.01-12.91,13.97-18.57,20.87h-2.12c9.73-12.03,18.22-20.87,26.54-30.6h7.61l-10.44,15.57h.18c3.01-3.54,7.43-8.67,10.79-11.5,4.25-4.07,8.14-5.84,12.56-5.84,4.78,0,8.84,3.01,8.84,10.08,0,4.95-2.65,9.91-6.19,15.04l-14.68,20.17c-4.42,6.01-6.54,9.91-6.54,12.91,0,2.48,1.24,4.07,3.54,4.07,4.78,0,10.44-5.13,17.16-13.44,4.6-5.31,9.38-11.32,13.62-16.45h2.12c-4.6,5.48-9.91,12.21-14.51,17.69-7.43,8.49-12.74,14.33-19.81,14.33-4.42,0-7.25-3.54-7.25-8.67,0-3.71,1.24-7.43,3.89-10.97l15.74-21.94c3.18-4.78,6.72-9.55,7.78-13.62,1.24-4.6-.88-7.08-4.95-7.08-3.54,0-6.54,1.59-10.26,4.95-4.25,3.89-14.68,15.92-19.99,23.7l-51.65,76.06h-8.14Z"/>
</svg>